<svg width="66" height="56" viewBox="0 0 66 56" fill="none" xmlns="http://www.w3.org/2000/svg">
<path d="M5.72656 48.5156L4.93008 49.1203L5.72656 48.5156ZM5.6875 8.24219L4.89255 7.63551L4.89207 7.63614L5.6875 8.24219ZM36.3906 8.24219L35.5936 8.84622L35.5972 8.85088L36.3906 8.24219ZM36.3906 48.5156L35.5941 47.911L36.3906 48.5156ZM30.0625 14.1016L29.2178 14.6368L29.2207 14.6413L30.0625 14.1016ZM12.0156 14.1016L11.1709 13.5664L11.1698 13.5681L12.0156 14.1016ZM12.0156 42.6953L11.168 43.2259L11.1709 43.2305L12.0156 42.6953ZM21.0781 54.9766C14.92 54.9766 10.1026 52.6261 6.52305 47.911L4.93008 49.1203C8.90264 54.3531 14.3196 56.9766 21.0781 56.9766V54.9766ZM6.52305 47.911C2.91892 43.1635 1.0625 36.6813 1.0625 28.3594H-0.9375C-0.9375 36.9646 0.982117 43.9199 4.93008 49.1203L6.52305 47.911ZM1.0625 28.3594C1.0625 20.0085 2.90719 13.5414 6.48293 8.84823L4.89207 7.63614C0.967814 12.7867 -0.9375 19.7311 -0.9375 28.3594H1.0625ZM6.48245 8.84886C10.0603 4.16068 14.8903 1.82031 21.0781 1.82031V-0.179688C14.2972 -0.179688 8.86681 2.42786 4.89255 7.63551L6.48245 8.84886ZM21.0781 1.82031C27.2382 1.82031 32.0414 4.15925 35.5937 8.84621L37.1876 7.63817C33.2398 2.42929 27.8347 -0.179688 21.0781 -0.179688V1.82031ZM35.5972 8.85088C39.1976 13.5438 41.0547 20.0099 41.0547 28.3594H43.0547C43.0547 19.7297 41.1357 12.7843 37.184 7.63349L35.5972 8.85088ZM41.0547 28.3594C41.0547 36.6813 39.1983 43.1635 35.5941 47.911L37.1871 49.1203C41.1351 43.9199 43.0547 36.9646 43.0547 28.3594H41.0547ZM35.5941 47.911C32.0137 52.6272 27.2087 54.9766 21.0781 54.9766V56.9766C27.8121 56.9766 33.2154 54.3519 37.1871 49.1203L35.5941 47.911ZM21.0781 48.8125C25.2942 48.8125 28.6121 46.9147 30.9463 43.2305L29.2568 42.1601C27.2682 45.2989 24.5704 46.8125 21.0781 46.8125V48.8125ZM30.9463 43.2305C33.2487 39.5965 34.3438 34.6169 34.3438 28.3984H32.3438C32.3438 34.4195 31.2773 38.9712 29.2568 42.1601L30.9463 43.2305ZM34.3438 28.3984C34.3438 22.1783 33.2352 17.1968 30.9043 13.5618L29.2207 14.6413C31.2648 17.8292 32.3438 22.379 32.3438 28.3984H34.3438ZM30.9072 13.5664C28.5745 9.88467 25.271 7.98438 21.0781 7.98438V9.98438C24.5415 9.98438 27.2275 11.4955 29.2178 14.6368L30.9072 13.5664ZM21.0781 7.98438C16.8387 7.98438 13.5067 9.87978 11.1709 13.5664L12.8603 14.6368C14.8475 11.5004 17.5571 9.98438 21.0781 9.98438V7.98438ZM11.1698 13.5681C8.89366 17.1766 7.8125 22.1433 7.8125 28.3594H9.8125C9.8125 22.3359 10.8668 17.7973 12.8614 14.6351L11.1698 13.5681ZM7.8125 28.3594C7.8125 34.6013 8.89359 39.5924 11.168 43.2259L12.8633 42.1647C10.8668 38.9753 9.8125 34.4091 9.8125 28.3594H7.8125ZM11.1709 43.2305C13.5067 46.9171 16.8387 48.8125 21.0781 48.8125V46.8125C17.5571 46.8125 14.8475 45.2964 12.8603 42.1601L11.1709 43.2305ZM47.5234 1.79688V0.796875H46.5234V1.79688H47.5234ZM65.4531 1.79688H66.4531V0.796875H65.4531V1.79688ZM65.4531 55V56H66.4531V55H65.4531ZM56.9375 55H55.9375V56H56.9375V55ZM56.9375 9.57031H57.9375V8.57031H56.9375V9.57031ZM47.5234 9.57031H46.5234V10.5703H47.5234V9.57031ZM47.5234 2.79688H65.4531V0.796875H47.5234V2.79688ZM64.4531 1.79688V55H66.4531V1.79688H64.4531ZM65.4531 54H56.9375V56H65.4531V54ZM57.9375 55V9.57031H55.9375V55H57.9375ZM56.9375 8.57031H47.5234V10.5703H56.9375V8.57031ZM48.5234 9.57031V1.79688H46.5234V9.57031H48.5234Z" fill="#B5B5B5"/>
</svg>
