<svg width="86" height="56" viewBox="0 0 86 56" fill="none" xmlns="http://www.w3.org/2000/svg">
<path d="M5.72656 48.5156L4.93008 49.1203L5.72656 48.5156ZM5.6875 8.24219L4.89255 7.63551L4.89207 7.63614L5.6875 8.24219ZM36.3906 8.24219L35.5936 8.84622L35.5972 8.85088L36.3906 8.24219ZM36.3906 48.5156L35.5941 47.911L36.3906 48.5156ZM30.0625 14.1016L29.2178 14.6368L29.2207 14.6413L30.0625 14.1016ZM12.0156 14.1016L11.1709 13.5664L11.1698 13.5681L12.0156 14.1016ZM12.0156 42.6953L11.168 43.2259L11.1709 43.2305L12.0156 42.6953ZM21.0781 54.9766C14.92 54.9766 10.1026 52.6261 6.52305 47.911L4.93008 49.1203C8.90264 54.3531 14.3196 56.9766 21.0781 56.9766V54.9766ZM6.52305 47.911C2.91892 43.1635 1.0625 36.6813 1.0625 28.3594H-0.9375C-0.9375 36.9646 0.982117 43.9199 4.93008 49.1203L6.52305 47.911ZM1.0625 28.3594C1.0625 20.0085 2.90719 13.5414 6.48293 8.84823L4.89207 7.63614C0.967814 12.7867 -0.9375 19.7311 -0.9375 28.3594H1.0625ZM6.48245 8.84886C10.0603 4.16068 14.8903 1.82031 21.0781 1.82031V-0.179688C14.2972 -0.179688 8.86681 2.42786 4.89255 7.63551L6.48245 8.84886ZM21.0781 1.82031C27.2382 1.82031 32.0414 4.15925 35.5937 8.84621L37.1876 7.63817C33.2398 2.42929 27.8347 -0.179688 21.0781 -0.179688V1.82031ZM35.5972 8.85088C39.1976 13.5438 41.0547 20.0099 41.0547 28.3594H43.0547C43.0547 19.7297 41.1357 12.7843 37.184 7.63349L35.5972 8.85088ZM41.0547 28.3594C41.0547 36.6813 39.1983 43.1635 35.5941 47.911L37.1871 49.1203C41.1351 43.9199 43.0547 36.9646 43.0547 28.3594H41.0547ZM35.5941 47.911C32.0137 52.6272 27.2087 54.9766 21.0781 54.9766V56.9766C27.8121 56.9766 33.2154 54.3519 37.1871 49.1203L35.5941 47.911ZM21.0781 48.8125C25.2942 48.8125 28.6121 46.9147 30.9463 43.2305L29.2568 42.1601C27.2682 45.2989 24.5704 46.8125 21.0781 46.8125V48.8125ZM30.9463 43.2305C33.2487 39.5965 34.3438 34.6169 34.3438 28.3984H32.3438C32.3438 34.4195 31.2773 38.9712 29.2568 42.1601L30.9463 43.2305ZM34.3438 28.3984C34.3438 22.1783 33.2352 17.1968 30.9043 13.5618L29.2207 14.6413C31.2648 17.8292 32.3438 22.379 32.3438 28.3984H34.3438ZM30.9072 13.5664C28.5745 9.88467 25.271 7.98438 21.0781 7.98438V9.98438C24.5415 9.98438 27.2275 11.4955 29.2178 14.6368L30.9072 13.5664ZM21.0781 7.98438C16.8387 7.98438 13.5067 9.87978 11.1709 13.5664L12.8603 14.6368C14.8475 11.5004 17.5571 9.98438 21.0781 9.98438V7.98438ZM11.1698 13.5681C8.89366 17.1766 7.8125 22.1433 7.8125 28.3594H9.8125C9.8125 22.3359 10.8668 17.7973 12.8614 14.6351L11.1698 13.5681ZM7.8125 28.3594C7.8125 34.6013 8.89359 39.5924 11.168 43.2259L12.8633 42.1647C10.8668 38.9753 9.8125 34.4091 9.8125 28.3594H7.8125ZM11.1709 43.2305C13.5067 46.9171 16.8387 48.8125 21.0781 48.8125V46.8125C17.5571 46.8125 14.8475 45.2964 12.8603 42.1601L11.1709 43.2305ZM65.4922 46.8359L64.7457 46.1705L63.2612 47.8359H65.4922V46.8359ZM85.3359 46.8359H86.3359V45.8359H85.3359V46.8359ZM85.3359 55V56H86.3359V55H85.3359ZM48.9297 55H47.9297V56H48.9297V55ZM48.9297 52.6562L48.1924 51.9807L47.9297 52.2674V52.6562H48.9297ZM66.1953 33.1641L65.4259 32.5253L65.4237 32.528L66.1953 33.1641ZM73.2656 23.3984L72.3796 22.9348L72.3776 22.9387L73.2656 23.3984ZM72.7969 11.0938L72.0961 11.8072L72.1025 11.8134L72.7969 11.0938ZM60.9609 11.1719L61.6555 11.8913L61.6557 11.8911L60.9609 11.1719ZM58.6953 18.0469V19.0469H59.6953V18.0469H58.6953ZM50.0625 18.0469H49.0625V19.0469H50.0625V18.0469ZM54.7109 5.23438L55.3995 5.95953L55.4027 5.95649L54.7109 5.23438ZM79.0469 5.27344L78.355 5.99543L78.3581 5.99844L79.0469 5.27344ZM77.1328 32.7734L77.9418 33.3613L77.9438 33.3585L77.1328 32.7734ZM65.4922 47.8359H85.3359V45.8359H65.4922V47.8359ZM84.3359 46.8359V55H86.3359V46.8359H84.3359ZM85.3359 54H48.9297V56H85.3359V54ZM49.9297 55V52.6562H47.9297V55H49.9297ZM49.667 53.3318C57.6376 44.6319 63.4077 38.1184 66.967 33.8001L65.4237 32.528C61.8996 36.8035 56.1593 43.2848 48.1924 51.9807L49.667 53.3318ZM66.9647 33.8029C70.5361 29.5015 72.9542 26.1753 74.1537 23.8581L72.3776 22.9387C71.2853 25.0487 68.99 28.2328 65.4259 32.5253L66.9647 33.8029ZM74.1517 23.8621C75.3867 21.5018 76.0234 19.1303 76.0234 16.7578H74.0234C74.0234 18.7604 73.4883 20.816 72.3796 22.9348L74.1517 23.8621ZM76.0234 16.7578C76.0234 14.1831 75.1983 12.0212 73.4912 10.3741L72.1025 11.8134C73.3642 13.0308 74.0234 14.645 74.0234 16.7578H76.0234ZM73.4976 10.3803C71.8203 8.73296 69.6251 7.94531 67.0156 7.94531V9.94531C69.1979 9.94531 70.8568 10.59 72.0962 11.8072L73.4976 10.3803ZM67.0156 7.94531C64.3037 7.94531 62.0205 8.75776 60.2661 10.4527L61.6557 11.8911C62.9743 10.6172 64.7275 9.94531 67.0156 9.94531V7.94531ZM60.2663 10.4525C58.5371 12.1221 57.6953 14.2947 57.6953 16.875H59.6953C59.6953 14.7678 60.3639 13.1383 61.6555 11.8913L60.2663 10.4525ZM57.6953 16.875V18.0469H59.6953V16.875H57.6953ZM58.6953 17.0469H50.0625V19.0469H58.6953V17.0469ZM51.0625 18.0469V16.8359H49.0625V18.0469H51.0625ZM51.0625 16.8359C51.0625 12.2818 52.5245 8.68961 55.3995 5.95953L54.0223 4.50922C50.6995 7.66455 49.0625 11.8067 49.0625 16.8359H51.0625ZM55.4027 5.95649C58.283 3.19723 62.0943 1.78125 66.9375 1.78125V-0.21875C61.6765 -0.21875 57.3368 1.33402 54.0192 4.51226L55.4027 5.95649ZM66.9375 1.78125C71.6674 1.78125 75.443 3.20483 78.355 5.99543L79.7388 4.55145C76.4007 1.35247 72.1034 -0.21875 66.9375 -0.21875V1.78125ZM78.3581 5.99844C81.2671 8.76193 82.7344 12.3066 82.7344 16.7188H84.7344C84.7344 11.808 83.0767 7.72244 79.7356 4.54844L78.3581 5.99844ZM82.7344 16.7188C82.7344 19.0703 82.3141 21.3309 81.4735 23.5068L83.339 24.2276C84.2692 21.8201 84.7344 19.3151 84.7344 16.7188H82.7344ZM81.4735 23.5068C80.6345 25.6783 78.936 28.5647 76.3218 32.1884L77.9438 33.3585C80.59 29.6905 82.4072 26.6395 83.339 24.2276L81.4735 23.5068ZM76.3238 32.1856C73.7222 35.7661 69.8671 40.4252 64.7457 46.1705L66.2387 47.5013C71.3777 41.7363 75.283 37.0203 77.9418 33.3613L76.3238 32.1856Z" fill="#B5B5B5"/>
</svg>
