<svg width="86" height="56" viewBox="0 0 86 56" fill="none" xmlns="http://www.w3.org/2000/svg">
<path d="M5.72656 48.5156L4.93008 49.1203L5.72656 48.5156ZM5.6875 8.24219L4.89255 7.63551L4.89207 7.63614L5.6875 8.24219ZM36.3906 8.24219L35.5936 8.84622L35.5972 8.85088L36.3906 8.24219ZM36.3906 48.5156L35.5941 47.911L36.3906 48.5156ZM30.0625 14.1016L29.2178 14.6368L29.2207 14.6413L30.0625 14.1016ZM12.0156 14.1016L11.1709 13.5664L11.1698 13.5681L12.0156 14.1016ZM12.0156 42.6953L11.168 43.2259L11.1709 43.2305L12.0156 42.6953ZM21.0781 54.9766C14.92 54.9766 10.1026 52.6261 6.52305 47.911L4.93008 49.1203C8.90264 54.3531 14.3196 56.9766 21.0781 56.9766V54.9766ZM6.52305 47.911C2.91892 43.1635 1.0625 36.6813 1.0625 28.3594H-0.9375C-0.9375 36.9646 0.982117 43.9199 4.93008 49.1203L6.52305 47.911ZM1.0625 28.3594C1.0625 20.0085 2.90719 13.5414 6.48293 8.84823L4.89207 7.63614C0.967814 12.7867 -0.9375 19.7311 -0.9375 28.3594H1.0625ZM6.48245 8.84886C10.0603 4.16068 14.8903 1.82031 21.0781 1.82031V-0.179688C14.2972 -0.179688 8.86681 2.42786 4.89255 7.63551L6.48245 8.84886ZM21.0781 1.82031C27.2382 1.82031 32.0414 4.15925 35.5937 8.84621L37.1876 7.63817C33.2398 2.42929 27.8347 -0.179688 21.0781 -0.179688V1.82031ZM35.5972 8.85088C39.1976 13.5438 41.0547 20.0099 41.0547 28.3594H43.0547C43.0547 19.7297 41.1357 12.7843 37.184 7.63349L35.5972 8.85088ZM41.0547 28.3594C41.0547 36.6813 39.1983 43.1635 35.5941 47.911L37.1871 49.1203C41.1351 43.9199 43.0547 36.9646 43.0547 28.3594H41.0547ZM35.5941 47.911C32.0137 52.6272 27.2087 54.9766 21.0781 54.9766V56.9766C27.8121 56.9766 33.2154 54.3519 37.1871 49.1203L35.5941 47.911ZM21.0781 48.8125C25.2942 48.8125 28.6121 46.9147 30.9463 43.2305L29.2568 42.1601C27.2682 45.2989 24.5704 46.8125 21.0781 46.8125V48.8125ZM30.9463 43.2305C33.2487 39.5965 34.3438 34.6169 34.3438 28.3984H32.3438C32.3438 34.4195 31.2773 38.9712 29.2568 42.1601L30.9463 43.2305ZM34.3438 28.3984C34.3438 22.1783 33.2352 17.1968 30.9043 13.5618L29.2207 14.6413C31.2648 17.8292 32.3438 22.379 32.3438 28.3984H34.3438ZM30.9072 13.5664C28.5745 9.88467 25.271 7.98438 21.0781 7.98438V9.98438C24.5415 9.98438 27.2275 11.4955 29.2178 14.6368L30.9072 13.5664ZM21.0781 7.98438C16.8387 7.98438 13.5067 9.87978 11.1709 13.5664L12.8603 14.6368C14.8475 11.5004 17.5571 9.98438 21.0781 9.98438V7.98438ZM11.1698 13.5681C8.89366 17.1766 7.8125 22.1433 7.8125 28.3594H9.8125C9.8125 22.3359 10.8668 17.7973 12.8614 14.6351L11.1698 13.5681ZM7.8125 28.3594C7.8125 34.6013 8.89359 39.5924 11.168 43.2259L12.8633 42.1647C10.8668 38.9753 9.8125 34.4091 9.8125 28.3594H7.8125ZM11.1709 43.2305C13.5067 46.9171 16.8387 48.8125 21.0781 48.8125V46.8125C17.5571 46.8125 14.8475 45.2964 12.8603 42.1601L11.1709 43.2305ZM71.8984 21.7188L71.0595 21.1745L70.2419 22.4348L71.7201 22.7027L71.8984 21.7188ZM80.4922 50.9766L79.8015 50.2534L79.7988 50.256L80.4922 50.9766ZM54.8281 51.2109L54.1354 51.9321L54.1382 51.9348L54.8281 51.2109ZM49.5547 38.9453V37.9453H48.5122L48.5556 38.9869L49.5547 38.9453ZM58.1484 38.9453L59.1467 38.8866L59.0913 37.9453H58.1484V38.9453ZM60.9219 45.3906L60.2259 46.1087L60.2315 46.1141L60.2372 46.1195L60.9219 45.3906ZM74.3203 45.0781L75.0325 45.7801L75.0374 45.7751L74.3203 45.0781ZM74.0859 31.1328L73.4039 31.8643L73.4142 31.8736L74.0859 31.1328ZM59.9062 28.4375H58.9062V29.4375H59.9062V28.4375ZM59.9062 26.7969L59.0658 26.2551L58.9062 26.5025V26.7969H59.9062ZM70.9609 9.64844L71.8014 10.1903L72.7954 8.64844H70.9609V9.64844ZM51.0781 9.64844H50.0781V10.6484H51.0781V9.64844ZM51.0781 1.79688V0.796875H50.0781V1.79688H51.0781ZM83.6562 1.79688H84.6562V0.796875H83.6562V1.79688ZM83.6562 3.59375L84.4952 4.13798L84.6562 3.8897V3.59375H83.6562ZM71.7201 22.7027C75.6751 23.4196 78.8062 25.1971 81.1704 28.0243L82.7046 26.7413C80.0167 23.5269 76.4551 21.5283 72.0768 20.7348L71.7201 22.7027ZM81.1704 28.0243C83.5328 30.8495 84.7266 34.2627 84.7266 38.3203H86.7266C86.7266 33.8363 85.3942 29.9578 82.7046 26.7413L81.1704 28.0243ZM84.7266 38.3203C84.7266 43.1689 83.0811 47.1206 79.8015 50.2535L81.1829 51.6997C84.8824 48.1658 86.7266 43.68 86.7266 38.3203H84.7266ZM79.7988 50.256C76.5389 53.3933 72.4463 54.9766 67.4453 54.9766V56.9766C72.9131 56.9766 77.5184 55.2265 81.1856 51.6971L79.7988 50.256ZM67.4453 54.9766C62.5953 54.9766 58.6456 53.468 55.5181 50.4871L54.1382 51.9348C57.6773 55.308 62.139 56.9766 67.4453 56.9766V54.9766ZM55.5209 50.4898C52.4172 47.5083 50.7525 43.6718 50.5538 38.9037L48.5556 38.9869C48.7735 44.2188 50.6244 48.5594 54.1354 51.9321L55.5209 50.4898ZM49.5547 39.9453H58.1484V37.9453H49.5547V39.9453ZM57.1502 39.004C57.3191 41.8755 58.33 44.2711 60.2259 46.1087L61.6178 44.6726C60.1283 43.2289 59.2903 41.3276 59.1467 38.8866L57.1502 39.004ZM60.2372 46.1195C62.1633 47.9289 64.5925 48.8125 67.4453 48.8125V46.8125C65.0377 46.8125 63.1179 46.0816 61.6066 44.6618L60.2372 46.1195ZM67.4453 48.8125C70.4733 48.8125 73.0301 47.8116 75.0325 45.7801L73.6081 44.3761C72.0168 45.9905 69.9903 46.8125 67.4453 46.8125V48.8125ZM75.0374 45.7751C77.0348 43.7198 78.0156 41.117 78.0156 38.0469H76.0156C76.0156 40.6539 75.1996 42.7385 73.6032 44.3812L75.0374 45.7751ZM78.0156 38.0469C78.0156 34.9504 76.9372 32.3681 74.7576 30.392L73.4142 31.8736C75.141 33.4392 76.0156 35.4662 76.0156 38.0469H78.0156ZM74.7679 30.4014C72.6268 28.405 69.8826 27.4375 66.625 27.4375V29.4375C69.4611 29.4375 71.6909 30.2668 73.404 31.8642L74.7679 30.4014ZM66.625 27.4375H59.9062V29.4375H66.625V27.4375ZM60.9062 28.4375V26.7969H58.9062V28.4375H60.9062ZM60.7467 27.3387L71.8014 10.1903L70.1204 9.10662L59.0658 26.2551L60.7467 27.3387ZM70.9609 8.64844H51.0781V10.6484H70.9609V8.64844ZM52.0781 9.64844V1.79688H50.0781V9.64844H52.0781ZM51.0781 2.79688H83.6562V0.796875H51.0781V2.79688ZM82.6562 1.79688V3.59375H84.6562V1.79688H82.6562ZM82.8173 3.04952L71.0595 21.1745L72.7374 22.263L84.4952 4.13798L82.8173 3.04952Z" fill="#B5B5B5"/>
</svg>
