<svg width="225" height="122" viewBox="0 0 225 122" fill="none" xmlns="http://www.w3.org/2000/svg">
<g filter="url(#filter0_d_346_392)">
<path d="M20 18C20 15.2386 22.2386 13 25 13H200C202.761 13 205 15.2386 205 18V90C205 92.7614 202.761 95 200 95H25C22.2386 95 20 92.7614 20 90V18Z" fill="white"/>
</g>
<path d="M108.224 58L107.126 55.264H101.51L100.43 58H98.234L103.31 45.4H105.254L110.456 58H108.224ZM104.3 48.1L102.23 53.41H106.406L104.3 48.1ZM117.279 48.064C118.407 48.064 119.301 48.442 119.961 49.198C120.633 49.954 120.969 50.938 120.969 52.15V58H118.971V52.546C118.971 51.67 118.779 51.004 118.395 50.548C118.023 50.08 117.471 49.846 116.739 49.846C115.983 49.846 115.359 50.122 114.867 50.674C114.375 51.226 114.129 51.934 114.129 52.798V58H112.131V48.28H113.517L113.913 49.63C114.285 49.138 114.759 48.754 115.335 48.478C115.923 48.202 116.571 48.064 117.279 48.064ZM131.636 48.28H132.95V56.722C132.95 57.754 132.752 58.642 132.356 59.386C131.972 60.142 131.414 60.718 130.682 61.114C129.95 61.522 129.086 61.726 128.09 61.726C126.854 61.726 125.816 61.42 124.976 60.808C124.136 60.208 123.59 59.368 123.338 58.288H125.336C125.516 58.816 125.858 59.224 126.362 59.512C126.878 59.8 127.448 59.944 128.072 59.944C128.936 59.944 129.638 59.68 130.178 59.152C130.718 58.624 130.988 57.904 130.988 56.992V56.56C130.088 57.328 129.014 57.712 127.766 57.712C126.422 57.712 125.282 57.25 124.346 56.326C123.422 55.39 122.96 54.244 122.96 52.888C122.96 51.532 123.422 50.386 124.346 49.45C125.282 48.514 126.422 48.046 127.766 48.046C129.194 48.046 130.376 48.544 131.312 49.54L131.636 48.28ZM128 55.858C128.42 55.858 128.816 55.786 129.188 55.642C129.56 55.486 129.878 55.282 130.142 55.03C130.406 54.766 130.61 54.448 130.754 54.076C130.91 53.704 130.988 53.308 130.988 52.888C130.988 52.024 130.706 51.31 130.142 50.746C129.578 50.182 128.864 49.9 128 49.9C127.136 49.9 126.416 50.188 125.84 50.764C125.276 51.328 124.994 52.036 124.994 52.888C124.994 53.74 125.276 54.448 125.84 55.012C126.416 55.576 127.136 55.858 128 55.858ZM140.057 58.234C138.725 58.234 137.657 57.838 136.853 57.046C136.049 56.254 135.647 55.204 135.647 53.896V48.28H137.645V53.608C137.645 54.46 137.861 55.126 138.293 55.606C138.725 56.086 139.313 56.326 140.057 56.326C140.813 56.326 141.407 56.086 141.839 55.606C142.271 55.114 142.487 54.448 142.487 53.608V48.28H144.485V53.896C144.485 55.204 144.083 56.254 143.279 57.046C142.475 57.838 141.401 58.234 140.057 58.234ZM147.164 58V44.788H149.162V58H147.164ZM160.134 48.28H161.682V58H160.062L159.864 56.812C158.928 57.76 157.758 58.234 156.354 58.234C154.902 58.234 153.69 57.748 152.718 56.776C151.758 55.804 151.278 54.592 151.278 53.14C151.278 51.676 151.758 50.464 152.718 49.504C153.69 48.532 154.902 48.046 156.354 48.046C157.782 48.046 158.964 48.526 159.9 49.486L160.134 48.28ZM154.212 55.426C154.824 56.026 155.586 56.326 156.498 56.326C157.422 56.326 158.178 56.026 158.766 55.426C159.366 54.814 159.666 54.052 159.666 53.14C159.666 52.216 159.366 51.454 158.766 50.854C158.178 50.254 157.422 49.954 156.498 49.954C155.898 49.954 155.352 50.092 154.86 50.368C154.38 50.644 154.002 51.028 153.726 51.52C153.45 52 153.312 52.54 153.312 53.14C153.312 54.052 153.612 54.814 154.212 55.426ZM169.193 48.226H170.057V50.116H169.013C167.357 50.116 166.529 51.016 166.529 52.816V58H164.531V48.28H165.881L166.223 49.612C166.919 48.688 167.909 48.226 169.193 48.226Z" fill="black"/>
<g clip-path="url(#clip0_346_392)">
<path d="M84.022 69.7617L88 35.3007L62 26L36 35.3007L39.9804 69.7617L62 82L84.022 69.7617ZM51.8175 68.7257H45.724L62 32.1857L78.2902 68.7257H72.2085L68.9302 60.5497H55.0958L51.8175 68.7257Z" fill="#F44336"/>
<path d="M57.2324 55.5119H66.7673L61.9999 44.0623L57.2324 55.5119Z" fill="#F44336"/>
<path d="M62.0001 32.1855L45.7241 68.7255H51.8176L55.0959 60.5495H62.0001V55.5119H57.2327L62.0001 44.0622V32.1855Z" fill="#DEDEDE"/>
<path d="M62 26L36 35.3007L39.9804 69.7617L62 82V60.5497H55.0958L51.8175 68.7257H45.724L62 32.1857V26Z" fill="#D43A2F"/>
<path d="M61.9999 44.0623L57.2324 55.5119H61.9999V44.0623Z" fill="#D43A2F"/>
</g>
<defs>
<filter id="filter0_d_346_392" x="0" y="0" width="225" height="122" filterUnits="userSpaceOnUse" color-interpolation-filters="sRGB">
<feFlood flood-opacity="0" result="BackgroundImageFix"/>
<feColorMatrix in="SourceAlpha" type="matrix" values="0 0 0 0 0 0 0 0 0 0 0 0 0 0 0 0 0 0 127 0" result="hardAlpha"/>
<feOffset dy="7"/>
<feGaussianBlur stdDeviation="10"/>
<feComposite in2="hardAlpha" operator="out"/>
<feColorMatrix type="matrix" values="0 0 0 0 0.266667 0 0 0 0 0.266667 0 0 0 0 0.266667 0 0 0 0.05 0"/>
<feBlend mode="normal" in2="BackgroundImageFix" result="effect1_dropShadow_346_392"/>
<feBlend mode="normal" in="SourceGraphic" in2="effect1_dropShadow_346_392" result="shape"/>
</filter>
<clipPath id="clip0_346_392">
<rect width="52" height="56" fill="white" transform="translate(36 26)"/>
</clipPath>
</defs>
</svg>
