<svg width="106" height="106" viewBox="0 0 106 106" fill="none" xmlns="http://www.w3.org/2000/svg">
<g filter="url(#filter0_d_438_96)">
<rect x="20" y="18" width="66" height="66" rx="8" fill="#5955EC"/>
</g>
<path d="M52.9984 73.936C54.4916 73.936 55.7555 72.9502 56.1703 71.5936H49.8264C50.2412 72.9502 51.5051 73.936 52.9984 73.936ZM59.0975 64.9791H46.8885C46.1251 64.9791 45.4945 65.6095 45.4945 66.4057C45.4945 67.1689 46.1251 67.7993 46.8885 67.7993H48.2153C47.4523 67.7993 46.8221 68.4296 46.8221 69.1927C46.8221 69.9889 47.4522 70.6193 48.2153 70.6193H57.7703C58.5665 70.6193 59.1971 69.9889 59.1971 69.1927C59.1971 68.4296 58.5666 67.7993 57.7703 67.7993H59.0975C59.8937 67.7993 60.5239 67.1689 60.5239 66.4057C60.5239 65.6095 59.8937 64.9791 59.0975 64.9791ZM70.7769 58.3929L68.4789 57.0662C68.036 56.8105 67.4699 56.9622 67.2143 57.405C66.9778 57.8148 67.0935 58.3271 67.4627 58.6042C67.6563 58.8145 67.5999 58.7157 69.9757 60.1085C70.4184 60.364 70.9846 60.2123 71.2401 59.7697C71.5309 59.2658 71.2843 58.6861 70.7769 58.3929ZM36.4453 49.2427C36.4453 48.7315 36.0308 48.3171 35.5195 48.3171H32.866C32.3549 48.3171 31.9404 48.7315 31.9404 49.2427C31.9404 49.7539 32.3549 50.1683 32.866 50.1683H35.5194C36.0308 50.1683 36.4453 49.7539 36.4453 49.2427ZM73.135 48.3135H70.4815C69.9704 48.3135 69.5559 48.728 69.5559 49.2392C69.5559 49.7504 69.9704 50.1648 70.4815 50.1648H73.135C73.6462 50.1648 74.0608 49.7504 74.0608 49.2392C74.0608 48.728 73.6462 48.3135 73.135 48.3135ZM37.4089 57.1374L35.1109 58.4642C34.6683 58.7197 34.5165 59.2859 34.7721 59.7285C35.0277 60.1713 35.5939 60.3229 36.0366 60.0674L38.3345 58.7406C38.7774 58.485 38.929 57.9188 38.6734 57.4761C38.4179 57.0335 37.8517 56.8817 37.4089 57.1374ZM68.6109 41.2567L70.9089 39.93C71.3516 39.6745 71.5035 39.1082 71.2479 38.6655C70.9923 38.2227 70.426 38.0711 69.9832 38.3267L67.6853 39.6534C67.2426 39.909 67.0909 40.4751 67.3465 40.9179C67.6021 41.3606 68.1682 41.5123 68.6109 41.2567ZM61.2723 34.8161C61.7151 35.0718 62.2812 34.92 62.5367 34.4773L63.8634 32.1793C64.119 31.7366 63.9675 31.1703 63.5247 30.9147C63.082 30.6591 62.5157 30.811 62.2602 31.2536L60.9335 33.5517C60.6778 33.9943 60.8296 34.5606 61.2723 34.8161ZM52.9611 32.5689C53.4723 32.5689 53.8866 32.1545 53.8866 31.6434V28.9897C53.8866 28.4786 53.4723 28.0641 52.9611 28.0641C52.4499 28.0641 52.0354 28.4787 52.0354 28.9897V31.6433C52.0353 32.1544 52.4499 32.5689 52.9611 32.5689ZM43.3752 34.4397C43.6308 34.8823 44.1969 35.0341 44.6397 34.7785C45.0824 34.5229 45.2341 33.9568 44.9785 33.5141L43.6517 31.2161C43.3962 30.7734 42.83 30.6215 42.3873 30.8771C41.9445 31.1327 41.793 31.699 42.0485 32.1417L43.3752 34.4397ZM34.9755 39.8647L37.2735 41.1914C37.7161 41.4469 38.2823 41.2953 38.5379 40.8525C38.7935 40.4098 38.6418 39.8437 38.1991 39.5882L35.9011 38.2614C35.4584 38.0058 34.8922 38.1573 34.6366 38.6002C34.381 39.0428 34.5329 39.6091 34.9755 39.8647ZM57.8071 51.5991L57.0157 52.151C56.5159 52.4998 55.8495 52.4998 55.3497 52.151L53.0848 50.5734C53.0328 50.537 52.965 50.537 52.913 50.5734L50.6429 52.151C50.1431 52.4998 49.4767 52.4998 48.9769 52.151L48.1906 51.6043C48.0711 51.5145 47.9163 51.6447 47.9668 51.7709L51.8826 64.0054H54.1584L58.031 51.7658C58.0814 51.6648 57.9612 51.5216 57.8071 51.5991Z" fill="white"/>
<path d="M53.5984 34.7992C45.3416 34.4625 38.5439 41.0698 38.5439 49.2437C38.5439 54.2408 41.0961 58.657 44.9561 61.258C45.9467 61.912 46.6933 62.8684 47.0056 64.0054H50.4836L46.7169 52.1667C46.2947 50.8428 47.7989 49.733 48.9401 50.5317L49.7263 51.0784C49.7784 51.1149 49.8461 51.1149 49.8981 51.0784L52.1682 49.5008C52.6628 49.1519 53.3345 49.1519 53.8291 49.5008L56.0991 51.0784C56.1511 51.1149 56.2188 51.1149 56.2656 51.0784L57.0622 50.5265C58.2196 49.7278 59.6977 50.8632 59.2802 52.1614V52.1666L55.5135 64.0053H59.0003C59.3468 62.8536 60.1276 61.8825 61.1279 61.1945C64.9391 58.6081 67.4278 54.2553 67.4523 49.2972C67.4769 41.6359 61.2599 35.1066 53.5984 34.7992Z" fill="white"/>
<defs>
<filter id="filter0_d_438_96" x="0" y="0" width="106" height="106" filterUnits="userSpaceOnUse" color-interpolation-filters="sRGB">
<feFlood flood-opacity="0" result="BackgroundImageFix"/>
<feColorMatrix in="SourceAlpha" type="matrix" values="0 0 0 0 0 0 0 0 0 0 0 0 0 0 0 0 0 0 127 0" result="hardAlpha"/>
<feOffset dy="2"/>
<feGaussianBlur stdDeviation="10"/>
<feComposite in2="hardAlpha" operator="out"/>
<feColorMatrix type="matrix" values="0 0 0 0 0 0 0 0 0 0 0 0 0 0 0 0 0 0 0.1 0"/>
<feBlend mode="normal" in2="BackgroundImageFix" result="effect1_dropShadow_438_96"/>
<feBlend mode="normal" in="SourceGraphic" in2="effect1_dropShadow_438_96" result="shape"/>
</filter>
</defs>
</svg>
