<svg width="106" height="106" viewBox="0 0 106 106" fill="none" xmlns="http://www.w3.org/2000/svg">
<g filter="url(#filter0_d_438_88)">
<rect x="20" y="18" width="66" height="66" rx="8" fill="#27CE99"/>
</g>
<path d="M59.8771 59.005C59.3379 58.7341 58.7363 58.6116 58.1341 58.65C57.806 58.6819 57.4853 58.7663 57.1841 58.9L60.2231 60.127C59.326 61.1963 58.506 62.3278 57.7691 63.513C57.2423 64.3404 56.8163 65.2276 56.5001 66.156C56.2181 66.8963 56.1083 67.691 56.1791 68.48C57.6291 68.156 59.1631 66.56 60.1541 64.65C60.8577 63.4318 61.1972 62.0373 61.1321 60.632C61.0696 60.2797 60.9229 59.9477 60.7043 59.6644C60.4858 59.3811 60.202 59.1549 59.8771 59.005ZM39.3721 43.634V48.549L56.2351 54.56H56.2451C57.5352 54.5616 58.8244 54.4882 60.1061 54.34C63.3931 53.86 65.5221 52.94 65.5221 51.972V43.872L55.1701 47.38L39.3721 43.634Z" fill="white"/>
<path d="M51.32 33.46L29 39.575L39.372 42.027L55.097 45.753L65.522 42.226L77 38.333L51.32 33.46Z" fill="white"/>
<path d="M54.7004 66.768C54.7214 66.668 54.7424 66.549 54.7624 66.424C54.7824 66.299 54.8254 66.153 54.8774 66.007L54.9094 65.913C55.2913 64.7866 55.8027 63.7084 56.4334 62.7C56.8103 62.0646 57.2286 61.4546 57.6854 60.874C57.7013 60.8543 57.7154 60.8332 57.7274 60.811L55.6714 59.987C55.188 60.4946 54.7771 61.0667 54.4504 61.687C54.0018 62.4568 53.6287 63.2683 53.3364 64.11L29.5324 53.5L29.3864 54.137C29.1864 55.118 29.2404 56.161 29.8774 56.422L54.9834 68.375C54.6384 68.114 54.5554 67.54 54.7004 66.768Z" fill="white"/>
<path d="M29.045 51.569L29.047 51.565L29.041 51.562L29.045 51.569Z" fill="white"/>
<path d="M53.0579 60.967C54.4759 58.236 56.9649 56.667 58.8809 57.176L58.8059 57.148L32.5809 47.786C31.6059 47.371 30.2089 48.475 29.4399 50.286C29.263 50.6972 29.1312 51.1264 29.0469 51.566L52.5789 62.052C52.7154 61.6806 52.8754 61.3182 53.0579 60.967ZM74.2559 44.646V40.921L72.6899 41.443V44.643C72.3571 44.7912 72.0745 45.0328 71.8764 45.3384C71.6783 45.6441 71.5732 46.0008 71.5739 46.365V47.69C71.5739 48.1923 71.7734 48.6741 72.1286 49.0293C72.4838 49.3845 72.9656 49.584 73.4679 49.584C73.9702 49.584 74.4519 49.3845 74.8071 49.0293C75.1623 48.6741 75.3619 48.1923 75.3619 47.69V46.368C75.3646 46.0046 75.2614 45.6483 75.065 45.3425C74.8686 45.0367 74.5875 44.7947 74.2559 44.646Z" fill="white"/>
<defs>
<filter id="filter0_d_438_88" x="0" y="0" width="106" height="106" filterUnits="userSpaceOnUse" color-interpolation-filters="sRGB">
<feFlood flood-opacity="0" result="BackgroundImageFix"/>
<feColorMatrix in="SourceAlpha" type="matrix" values="0 0 0 0 0 0 0 0 0 0 0 0 0 0 0 0 0 0 127 0" result="hardAlpha"/>
<feOffset dy="2"/>
<feGaussianBlur stdDeviation="10"/>
<feComposite in2="hardAlpha" operator="out"/>
<feColorMatrix type="matrix" values="0 0 0 0 0 0 0 0 0 0 0 0 0 0 0 0 0 0 0.1 0"/>
<feBlend mode="normal" in2="BackgroundImageFix" result="effect1_dropShadow_438_88"/>
<feBlend mode="normal" in="SourceGraphic" in2="effect1_dropShadow_438_88" result="shape"/>
</filter>
</defs>
</svg>
