<svg width="106" height="106" viewBox="0 0 106 106" fill="none" xmlns="http://www.w3.org/2000/svg">
<g filter="url(#filter0_d_438_92)">
<rect x="20" y="18" width="66" height="66" rx="8" fill="#E4588B"/>
</g>
<g clip-path="url(#clip0_438_92)">
<path d="M70.8991 56.9667L59.8713 33.6047C59.786 33.4238 59.6509 33.2709 59.482 33.1638C59.3131 33.0568 59.1172 32.9999 58.9171 33H52.2705L59.9697 36.8496C60.4966 37.1109 60.9397 37.5144 61.2489 38.0146C61.558 38.5148 61.721 39.0916 61.7191 39.6797V62.4666L70.3957 58.3709C70.5209 58.3117 70.6333 58.2285 70.7264 58.1259C70.8195 58.0234 70.8915 57.9035 70.9382 57.7731C70.985 57.6427 71.0056 57.5044 70.9989 57.366C70.9922 57.2276 70.9583 57.092 70.8991 56.9667Z" fill="white"/>
<path d="M47.3047 42.8438C48.0813 42.8438 48.7109 42.2142 48.7109 41.4375C48.7109 40.6608 48.0813 40.0312 47.3047 40.0312C46.528 40.0312 45.8984 40.6608 45.8984 41.4375C45.8984 42.2142 46.528 42.8438 47.3047 42.8438Z" fill="white"/>
<path d="M59.0265 38.736L47.7765 33.111C47.63 33.0378 47.4685 32.9996 47.3047 32.9996C47.1409 32.9996 46.9794 33.0378 46.8329 33.111L35.5829 38.736C35.4077 38.8237 35.2604 38.9584 35.1574 39.125C35.0544 39.2917 34.9999 39.4837 35 39.6796V67.9453C35 68.225 35.1111 68.4932 35.3089 68.691C35.5067 68.8888 35.775 69 36.0547 69H58.5547C58.8344 69 59.1027 68.8888 59.3005 68.691C59.4983 68.4932 59.6094 68.225 59.6094 67.9453V39.6796C59.6094 39.4837 59.5549 39.2917 59.452 39.125C59.349 38.9584 59.2017 38.8237 59.0265 38.736ZM48.2124 62.0257V63.216C48.2124 63.3559 48.1569 63.49 48.058 63.5889C47.9591 63.6878 47.8249 63.7434 47.6851 63.7434H46.7077C46.5679 63.7434 46.4337 63.6878 46.3348 63.5889C46.2359 63.49 46.1804 63.3559 46.1804 63.216V62.1417C45.3627 62.0475 44.5562 61.7732 44.0274 61.3957C43.934 61.3288 43.8649 61.2334 43.8307 61.1237C43.7964 61.0141 43.7988 60.8963 43.8376 60.7882L44.2109 59.7489C44.238 59.6735 44.2818 59.6053 44.3391 59.5494C44.3965 59.4935 44.4658 59.4513 44.5418 59.4262C44.6178 59.401 44.6986 59.3936 44.778 59.4043C44.8573 59.415 44.9332 59.4437 44.9998 59.4881C45.5785 59.8621 46.2515 60.064 46.9405 60.0703C47.7294 60.0703 48.2595 59.6709 48.2595 59.0767C48.2595 58.6085 48.017 58.1985 46.835 57.7197C45.4091 57.1572 43.9459 56.3444 43.9459 54.5465C43.9459 53.129 44.8508 52.0209 46.2887 51.6243V50.4782C46.2887 50.3384 46.3442 50.2042 46.4431 50.1053C46.542 50.0064 46.6762 49.9509 46.816 49.9509H47.7779C47.9178 49.9509 48.0519 50.0064 48.1508 50.1053C48.2497 50.2042 48.3052 50.3384 48.3052 50.4782V51.4921C48.925 51.5593 49.5239 51.7558 50.063 52.0687C50.1706 52.1315 50.2524 52.2304 50.2938 52.3478C50.3353 52.4652 50.3337 52.5936 50.2895 52.71L49.902 53.7344C49.875 53.8057 49.8328 53.8703 49.7784 53.9237C49.724 53.9772 49.6587 54.0182 49.5869 54.0439C49.5151 54.0696 49.4386 54.0795 49.3626 54.0728C49.2867 54.0661 49.213 54.043 49.1469 54.0051C48.6354 53.6995 48.0495 53.5411 47.4537 53.5474C46.4166 53.5474 46.3365 54.1647 46.3365 54.3539C46.3365 54.7828 46.5671 55.0696 47.9347 55.6357C49.2045 56.1532 50.6649 57.0004 50.6649 58.9621C50.6635 60.4275 49.6953 61.6122 48.2124 62.0257ZM47.3047 44.9531C46.6094 44.9531 45.9297 44.7469 45.3515 44.3606C44.7734 43.9743 44.3228 43.4252 44.0567 42.7828C43.7906 42.1404 43.721 41.4336 43.8566 40.7516C43.9923 40.0696 44.3271 39.4432 44.8188 38.9515C45.3104 38.4599 45.9369 38.125 46.6188 37.9894C47.3008 37.8537 48.0077 37.9233 48.6501 38.1894C49.2925 38.4555 49.8415 38.9061 50.2278 39.4843C50.6141 40.0624 50.8203 40.7421 50.8203 41.4375C50.8192 42.3695 50.4484 43.2631 49.7894 43.9221C49.1303 44.5812 48.2367 44.952 47.3047 44.9531Z" fill="white"/>
</g>
<defs>
<filter id="filter0_d_438_92" x="0" y="0" width="106" height="106" filterUnits="userSpaceOnUse" color-interpolation-filters="sRGB">
<feFlood flood-opacity="0" result="BackgroundImageFix"/>
<feColorMatrix in="SourceAlpha" type="matrix" values="0 0 0 0 0 0 0 0 0 0 0 0 0 0 0 0 0 0 127 0" result="hardAlpha"/>
<feOffset dy="2"/>
<feGaussianBlur stdDeviation="10"/>
<feComposite in2="hardAlpha" operator="out"/>
<feColorMatrix type="matrix" values="0 0 0 0 0 0 0 0 0 0 0 0 0 0 0 0 0 0 0.1 0"/>
<feBlend mode="normal" in2="BackgroundImageFix" result="effect1_dropShadow_438_92"/>
<feBlend mode="normal" in="SourceGraphic" in2="effect1_dropShadow_438_92" result="shape"/>
</filter>
<clipPath id="clip0_438_92">
<rect width="36" height="36" fill="white" transform="translate(35 33)"/>
</clipPath>
</defs>
</svg>
