<svg width="106" height="106" viewBox="0 0 106 106" fill="none" xmlns="http://www.w3.org/2000/svg">
<g filter="url(#filter0_d_438_90)">
<rect x="20" y="18" width="66" height="66" rx="8" fill="#EDB055"/>
</g>
<path d="M48.9864 53.0999L63.0744 62.0752H30.6406L39.9736 50.8402L43.1604 56.5747C43.296 56.8189 43.5176 57.0039 43.7821 57.0937L51.6354 59.7592C51.9179 59.8551 52.227 59.8348 52.4946 59.7028C52.7622 59.5708 52.9664 59.3379 53.0623 59.0553C53.1581 58.7728 53.1378 58.4637 53.0058 58.1961C52.8738 57.9285 52.6409 57.7243 52.3584 57.6285L44.9161 55.1025L43.3809 52.3402L46.1814 54.1942C46.3699 54.319 46.5917 54.3842 46.8178 54.3811C47.0439 54.378 47.2638 54.3069 47.4489 54.177L48.9864 53.0999ZM66.5746 46.8254L64.2496 46.4714C63.972 46.429 63.7202 46.2843 63.5439 46.0657L62.5914 44.8875L61.5939 51.6629C61.5572 51.9133 61.4373 52.1439 61.2534 52.3177L59.0281 54.4177C58.9207 54.5191 58.7943 54.5984 58.6562 54.651C58.5181 54.7036 58.371 54.7285 58.2233 54.7243C58.0756 54.72 57.9301 54.6867 57.7953 54.6263C57.6604 54.5658 57.5388 54.4794 57.4374 54.3719C57.3359 54.2645 57.2566 54.1381 57.204 54C57.1514 53.8619 57.1266 53.7148 57.1308 53.5671C57.135 53.4194 57.1683 53.274 57.2288 53.1391C57.2893 53.0043 57.3757 52.8826 57.4831 52.7812L59.4249 50.9482L60.1749 45.8715L53.6941 53.4292L63.5191 59.6917H75.3586L66.5746 46.8254ZM49.0389 44.9774C49.5386 44.9776 50.0272 44.8296 50.4428 44.552C50.8584 44.2745 51.1824 43.88 51.3738 43.4183C51.5651 42.9567 51.6153 42.4487 51.518 41.9585C51.4206 41.4683 51.1801 41.018 50.8268 40.6645C50.4736 40.3111 50.0234 40.0703 49.5333 39.9726C49.0432 39.875 48.5351 39.9249 48.0734 40.116C47.6116 40.3071 47.2169 40.6309 46.9391 41.0463C46.6614 41.4617 46.513 41.9502 46.5129 42.45C46.5133 43.1199 46.7795 43.7623 47.2531 44.2362C47.7267 44.7101 48.3689 44.9767 49.0389 44.9774Z" fill="white"/>
<defs>
<filter id="filter0_d_438_90" x="0" y="0" width="106" height="106" filterUnits="userSpaceOnUse" color-interpolation-filters="sRGB">
<feFlood flood-opacity="0" result="BackgroundImageFix"/>
<feColorMatrix in="SourceAlpha" type="matrix" values="0 0 0 0 0 0 0 0 0 0 0 0 0 0 0 0 0 0 127 0" result="hardAlpha"/>
<feOffset dy="2"/>
<feGaussianBlur stdDeviation="10"/>
<feComposite in2="hardAlpha" operator="out"/>
<feColorMatrix type="matrix" values="0 0 0 0 0 0 0 0 0 0 0 0 0 0 0 0 0 0 0.1 0"/>
<feBlend mode="normal" in2="BackgroundImageFix" result="effect1_dropShadow_438_90"/>
<feBlend mode="normal" in="SourceGraphic" in2="effect1_dropShadow_438_90" result="shape"/>
</filter>
</defs>
</svg>
