<svg width="106" height="106" viewBox="0 0 106 106" fill="none" xmlns="http://www.w3.org/2000/svg">
<g filter="url(#filter0_d_438_94)">
<rect x="20" y="18" width="66" height="66" rx="8" fill="#3597ED"/>
</g>
<path d="M69.3197 45.2401V68.2801C69.3197 68.5347 69.2185 68.7789 69.0385 68.9589C68.8585 69.1389 68.6143 69.2401 68.3597 69.2401H62.5997C62.3451 69.2401 62.1009 69.1389 61.9209 68.9589C61.7408 68.7789 61.6397 68.5347 61.6397 68.2801V45.2401C61.6397 44.9855 61.7408 44.7413 61.9209 44.5612C62.1009 44.3812 62.3451 44.2801 62.5997 44.2801H68.3597C68.6143 44.2801 68.8585 44.3812 69.0385 44.5612C69.2185 44.7413 69.3197 44.9855 69.3197 45.2401ZM55.8797 51.9601H50.1197C49.8651 51.9601 49.6209 52.0612 49.4409 52.2412C49.2608 52.4213 49.1597 52.6655 49.1597 52.9201V68.2801C49.1597 68.5347 49.2608 68.7789 49.4409 68.9589C49.6209 69.1389 49.8651 69.2401 50.1197 69.2401H55.8797C56.1343 69.2401 56.3785 69.1389 56.5585 68.9589C56.7385 68.7789 56.8397 68.5347 56.8397 68.2801V52.9201C56.8397 52.6655 56.7385 52.4213 56.5585 52.2412C56.3785 52.0612 56.1343 51.9601 55.8797 51.9601ZM43.3997 59.6401H37.6397C37.3851 59.6401 37.1409 59.7412 36.9609 59.9212C36.7808 60.1013 36.6797 60.3455 36.6797 60.6001V68.2801C36.6797 68.5347 36.7808 68.7789 36.9609 68.9589C37.1409 69.1389 37.3851 69.2401 37.6397 69.2401H43.3997C43.6543 69.2401 43.8985 69.1389 44.0785 68.9589C44.2585 68.7789 44.3597 68.5347 44.3597 68.2801V60.6001C44.3597 60.3455 44.2585 60.1013 44.0785 59.9212C43.8985 59.7412 43.6543 59.6401 43.3997 59.6401ZM62.1197 39.4033L61.6397 33.6433C61.6504 33.5797 61.6504 33.5148 61.6397 33.4513C61.6397 33.4513 61.6397 33.4513 61.6397 33.3553L61.5053 33.2017H61.3709H60.9485L55.2845 34.2193C55.1594 34.2402 55.0397 34.2856 54.9323 34.353C54.825 34.4204 54.732 34.5084 54.6588 34.612C54.5856 34.7155 54.5336 34.8325 54.5059 34.9563C54.4782 35.08 54.4753 35.208 54.4973 35.3329C54.5417 35.5548 54.6616 35.7545 54.8366 35.898C55.0116 36.0416 55.2309 36.12 55.4573 36.1201H55.6109L58.9325 35.5249C56.8034 38.1303 54.1483 40.257 51.1408 41.7657C48.1333 43.2744 44.8411 44.1312 41.4797 44.2801C41.2251 44.2801 40.9809 44.3812 40.8009 44.5612C40.6208 44.7413 40.5197 44.9855 40.5197 45.2401C40.5197 45.4947 40.6208 45.7388 40.8009 45.9189C40.9809 46.0989 41.2251 46.2001 41.4797 46.2001C45.0837 45.9746 48.5974 44.9787 51.7837 43.2796C54.97 41.5804 57.7548 39.2176 59.9501 36.3505L60.2189 39.5569C60.2379 39.7947 60.3448 40.0168 60.5188 40.1801C60.6927 40.3434 60.9212 40.4361 61.1597 40.4401H61.2557C61.5072 40.4157 61.7389 40.2932 61.9006 40.0991C62.0624 39.905 62.1411 39.655 62.1197 39.4033Z" fill="white"/>
<defs>
<filter id="filter0_d_438_94" x="0" y="0" width="106" height="106" filterUnits="userSpaceOnUse" color-interpolation-filters="sRGB">
<feFlood flood-opacity="0" result="BackgroundImageFix"/>
<feColorMatrix in="SourceAlpha" type="matrix" values="0 0 0 0 0 0 0 0 0 0 0 0 0 0 0 0 0 0 127 0" result="hardAlpha"/>
<feOffset dy="2"/>
<feGaussianBlur stdDeviation="10"/>
<feComposite in2="hardAlpha" operator="out"/>
<feColorMatrix type="matrix" values="0 0 0 0 0 0 0 0 0 0 0 0 0 0 0 0 0 0 0.1 0"/>
<feBlend mode="normal" in2="BackgroundImageFix" result="effect1_dropShadow_438_94"/>
<feBlend mode="normal" in="SourceGraphic" in2="effect1_dropShadow_438_94" result="shape"/>
</filter>
</defs>
</svg>
