<svg width="89" height="89" viewBox="0 0 89 89" fill="none" xmlns="http://www.w3.org/2000/svg">
<g clip-path="url(#clip0_196_57)">
<path d="M38.5939 7.64672C38.9106 7.59486 39.2349 7.67094 39.4955 7.85821C39.7562 8.04549 39.9317 8.32862 39.9836 8.64533L40.9612 14.6161C41.0131 14.9328 40.937 15.2571 40.7497 15.5177C40.5624 15.7783 40.2793 15.9539 39.9626 16.0057C39.6459 16.0576 39.3215 15.9815 39.0609 15.7942C38.8003 15.607 38.6248 15.3238 38.5729 15.0071L37.5953 9.03639C37.5434 8.71968 37.6195 8.39535 37.8068 8.13473C37.994 7.87412 38.2772 7.69857 38.5939 7.64672ZM20.9617 27.0235C21.0906 27.1191 21.2372 27.1881 21.393 27.2265C21.5487 27.2649 21.7106 27.272 21.8692 27.2473C22.0277 27.2226 22.1797 27.1666 22.3164 27.0825C22.4531 26.9985 22.5717 26.8881 22.6654 26.7578C22.759 26.6276 22.8258 26.4799 22.8619 26.3236C22.8979 26.1672 22.9025 26.0053 22.8754 25.8471C22.8483 25.689 22.79 25.5378 22.7039 25.4024C22.6178 25.267 22.5056 25.1501 22.3739 25.0584L17.4596 21.5296C17.3307 21.4345 17.1842 21.3659 17.0286 21.3278C16.873 21.2898 16.7114 21.283 16.5532 21.3079C16.3949 21.3327 16.2432 21.3888 16.1068 21.4728C15.9703 21.5568 15.852 21.667 15.7585 21.7971C15.665 21.9272 15.5983 22.0745 15.5622 22.2306C15.5261 22.3867 15.5213 22.5484 15.5482 22.7063C15.5751 22.8642 15.6331 23.0152 15.7188 23.1506C15.8045 23.2859 15.9162 23.4029 16.0475 23.4947L20.9617 27.0235ZM16.6144 45.5865L10.644 46.5665C10.3273 46.6185 10.0442 46.7941 9.85702 47.0547C9.66981 47.3154 9.59381 47.6397 9.64575 47.9564C9.69768 48.2731 9.8733 48.5562 10.134 48.7434C10.3946 48.9306 10.719 49.0066 11.0357 48.9547L11.0351 48.9548L17.0054 47.9748C17.1622 47.9491 17.3124 47.8927 17.4475 47.8089C17.5825 47.7252 17.6997 47.6156 17.7924 47.4866C17.8851 47.3575 17.9515 47.2114 17.9877 47.0567C18.024 46.902 18.0294 46.7417 18.0037 46.5848C17.978 46.428 17.9216 46.2778 17.8378 46.1428C17.7541 46.0078 17.6445 45.8905 17.5155 45.7978C17.3864 45.7052 17.2403 45.6388 17.0856 45.6025C16.9309 45.5663 16.7706 45.5609 16.6138 45.5866L16.6144 45.5865ZM67.5861 57.5272C67.4572 57.4316 67.3106 57.3626 67.1548 57.3241C66.999 57.2857 66.8372 57.2787 66.6786 57.3034C66.5201 57.3281 66.3681 57.3841 66.2314 57.4681C66.0947 57.5521 65.9761 57.6625 65.8824 57.7928C65.7888 57.9231 65.722 58.0707 65.6859 58.2271C65.6499 58.3834 65.6453 58.5454 65.6724 58.7035C65.6995 58.8617 65.7578 59.0129 65.8439 59.1483C65.93 59.2837 66.0422 59.4006 66.1739 59.4922L71.0881 63.0211C71.217 63.1162 71.3635 63.1848 71.5192 63.2228C71.6748 63.2609 71.8364 63.2677 71.9946 63.2428C72.1529 63.2179 72.3046 63.1619 72.441 63.0779C72.5775 62.9939 72.6958 62.8837 72.7893 62.7536C72.8828 62.6235 72.9495 62.4761 72.9856 62.32C73.0217 62.164 73.0264 62.0023 72.9996 61.8444C72.9727 61.6864 72.9147 61.5354 72.829 61.4001C72.7433 61.2647 72.6316 61.1478 72.5003 61.0559L67.5861 57.5272ZM27.0434 64.1657L23.5112 69.0774C23.4161 69.2063 23.3475 69.3528 23.3094 69.5084C23.2714 69.664 23.2646 69.8256 23.2895 69.9839C23.3143 70.1421 23.3704 70.2939 23.4544 70.4303C23.5384 70.5667 23.6486 70.6851 23.7787 70.7786C23.9088 70.8721 24.0561 70.9388 24.2122 70.9749C24.3683 71.011 24.53 71.0157 24.6879 70.9888C24.8458 70.9619 24.9968 70.9039 25.1322 70.8182C25.2675 70.7325 25.3845 70.6208 25.4763 70.4895L29.0085 65.5777C29.1041 65.4488 29.1731 65.3022 29.2115 65.1464C29.25 64.9906 29.257 64.8288 29.2323 64.6702C29.2076 64.5117 29.1515 64.3597 29.0675 64.223C28.9835 64.0863 28.8731 63.9677 28.7428 63.8741C28.6125 63.7804 28.4649 63.7136 28.3085 63.6776C28.1521 63.6416 27.9902 63.637 27.832 63.6641C27.6739 63.6912 27.5227 63.7496 27.3873 63.8357C27.2519 63.9218 27.135 64.0339 27.0434 64.1657ZM77.5127 35.5959L71.5424 36.5759C71.2257 36.6278 70.9426 36.8035 70.7554 37.0641C70.5682 37.3248 70.4922 37.6491 70.5441 37.9658C70.5961 38.2825 70.7717 38.5656 71.0323 38.7528C71.293 38.94 71.6173 39.016 71.934 38.9641L71.9346 38.964L77.905 37.984C78.2217 37.932 78.5048 37.7564 78.692 37.4957C78.8792 37.2351 78.9552 36.9107 78.9032 36.594C78.8513 36.2773 78.6757 35.9942 78.415 35.807C78.1544 35.6198 77.83 35.5438 77.5133 35.5958L77.5127 35.5959ZM60.7032 20.8634C60.8602 20.838 61.0105 20.7817 61.1457 20.698C61.2809 20.6142 61.3981 20.5046 61.4908 20.3753L65.0201 15.4604C65.2074 15.1996 65.2834 14.8752 65.2314 14.5584C65.1794 14.2416 65.0037 13.9585 64.7429 13.7713C64.4822 13.584 64.1577 13.508 63.841 13.56C63.5242 13.612 63.241 13.7877 63.0538 14.0484L59.5246 18.9634C59.385 19.1578 59.3061 19.3892 59.298 19.6284C59.2899 19.8676 59.3529 20.1038 59.4791 20.3072C59.6052 20.5106 59.7889 20.672 60.0068 20.771C60.2247 20.87 60.467 20.9022 60.7032 20.8634ZM64.0374 47.7636C65.1974 44.2968 65.465 40.5935 64.8153 36.9959C64.1656 33.3983 62.6197 30.0224 60.3203 27.1803C58.15 24.4409 55.3242 22.2926 52.1042 20.934C48.8841 19.5753 45.3735 19.05 41.8968 19.4067L41.8945 19.4071C41.0002 19.5033 40.1117 19.6488 39.2334 19.8428C35.8245 20.6136 32.6648 22.231 30.0462 24.5457C27.4276 26.8604 25.4345 29.7977 24.2512 33.0862C22.9784 36.5133 22.5898 40.2059 23.1214 43.8228C23.6531 47.4397 25.0877 50.8643 27.2928 53.7802L37.2899 67.0187L38.2193 72.6946C38.5847 74.9103 39.8141 76.8906 41.6378 78.2011C43.4614 79.5116 45.7304 80.0452 47.947 79.6849L52.7236 78.9028C54.9393 78.5373 56.9197 77.3079 58.2301 75.4843C59.5406 73.6606 60.0742 71.3916 59.7139 69.175L58.7845 63.4992L64.0374 47.7636ZM40.412 71.1094L39.8255 67.5269L56.5435 64.7895L57.1301 68.372L40.412 71.1094ZM26.5227 33.9201C27.5478 31.0012 29.3018 28.3928 31.6184 26.3423C33.935 24.2919 36.7371 22.8676 39.7589 22.2046C40.5479 22.0299 41.346 21.8992 42.1496 21.8131C45.2253 21.4774 48.3359 21.9334 51.1859 23.1379C54.0358 24.3423 56.5306 26.2553 58.4334 28.6951C60.4782 31.222 61.8533 34.2236 62.4316 37.4224C63.0099 40.6212 62.7728 43.9142 61.7421 46.9972L56.6259 62.3237L48.9876 63.5744L47.3548 53.6025C48.002 53.5921 48.6478 53.538 49.2878 53.4406C50.3266 53.3212 51.3309 52.9952 52.2418 52.4818C53.1527 51.9683 53.9516 51.2778 54.5915 50.4509C57.73 46.1795 55.2073 39.3269 55.0982 39.0367C55.0428 38.8876 54.9584 38.7509 54.8499 38.6346C54.7414 38.5183 54.6109 38.4246 54.466 38.3589C54.3211 38.2933 54.1647 38.2569 54.0057 38.252C53.8467 38.2471 53.6883 38.2738 53.5396 38.3304C48.5739 40.198 46.3413 45.5625 45.3853 49.0627C43.3628 46.0501 39.5358 41.6772 34.2339 41.4915C34.0749 41.4854 33.9164 41.5107 33.7673 41.5661C33.6182 41.6215 33.4815 41.7059 33.3652 41.8143C33.2488 41.9227 33.1551 42.0531 33.0893 42.1979C33.0235 42.3427 32.987 42.4991 32.9819 42.658C32.9713 42.9675 32.7659 50.2672 37.1025 53.3145C37.9727 53.8942 38.9501 54.2939 39.9772 54.4901C41.0043 54.6862 42.0602 54.6748 43.0828 54.4566C43.7204 54.3448 44.3497 54.1901 44.9665 53.9935L46.5993 63.9655L38.9609 65.2162L29.2238 52.3217C27.2637 49.7285 25.9888 46.6831 25.5166 43.4668C25.0445 40.2506 25.3906 36.9673 26.5227 33.9201ZM47.3635 51.1943C47.8838 48.7083 49.4082 43.4032 53.2237 41.1548C53.7787 43.3042 54.2277 46.8577 52.6414 49.0178C51.6309 50.3895 49.8601 51.122 47.364 51.1942L47.3635 51.1943ZM44.1892 51.7141C41.8081 52.4417 39.8922 52.3136 38.4978 51.3372C36.1644 49.7016 35.5826 46.0454 35.4415 44.0688C39.7707 44.9868 42.9045 49.5255 44.1897 51.714L44.1892 51.7141ZM52.3325 76.5145L47.556 77.2966C46.1799 77.52 44.769 77.2621 43.5609 76.5665C42.3528 75.8709 41.4215 74.7801 40.9238 73.4779L57.4004 70.78C57.3441 72.1729 56.8093 73.5038 55.8861 74.5484C54.963 75.593 53.7079 76.2873 52.3325 76.5145Z" fill="#474747"/>
</g>
<defs>
<clipPath id="clip0_196_57">
<rect width="77.4339" height="77.0987" fill="white" transform="matrix(0.986976 -0.160869 0.16231 0.98674 0 12.6121)"/>
</clipPath>
</defs>
</svg>
