<svg width="225" height="122" viewBox="0 0 225 122" fill="none" xmlns="http://www.w3.org/2000/svg">
<g filter="url(#filter0_d_346_412)">
<path d="M20 18C20 15.2386 22.2386 13 25 13H200C202.761 13 205 15.2386 205 18V90C205 92.7614 202.761 95 200 95H25C22.2386 95 20 92.7614 20 90V18Z" fill="white"/>
</g>
<path d="M109.272 58.216C107.412 58.216 105.864 57.604 104.628 56.38C103.404 55.144 102.792 53.584 102.792 51.7C102.792 49.816 103.404 48.262 104.628 47.038C105.864 45.802 107.412 45.184 109.272 45.184C110.256 45.184 111.168 45.376 112.008 45.76C112.848 46.144 113.55 46.69 114.114 47.398C114.69 48.106 115.086 48.928 115.302 49.864H113.214C112.914 49.024 112.416 48.37 111.72 47.902C111.024 47.422 110.208 47.182 109.272 47.182C108.012 47.182 106.968 47.608 106.14 48.46C105.312 49.312 104.898 50.398 104.898 51.718C104.898 53.026 105.312 54.106 106.14 54.958C106.968 55.798 108.012 56.218 109.272 56.218C110.232 56.218 111.066 55.966 111.774 55.462C112.482 54.946 112.974 54.244 113.25 53.356H115.356C115.032 54.832 114.318 56.014 113.214 56.902C112.11 57.778 110.796 58.216 109.272 58.216ZM126.757 50.404H125.227L124.867 52.888H126.343V54.616H124.579L124.075 57.982H122.239L122.725 54.616H119.953L119.413 57.982H117.577L118.099 54.616H116.749V52.888H118.387L118.783 50.404H117.163V48.73H119.053L119.575 45.4H121.411L120.889 48.73H123.625L124.129 45.4H125.965L125.461 48.73H126.757V50.404ZM123.013 52.888L123.373 50.404H120.637L120.223 52.888H123.013Z" fill="black"/>
<path d="M89.2065 42.4719C89.2061 41.5328 89.0052 40.703 88.5989 39.9908C88.1998 39.2905 87.6021 38.7036 86.8004 38.2395C80.1828 34.425 73.5587 30.6223 66.9432 26.804C65.1597 25.7747 63.4305 25.8122 61.6602 26.8563C59.0262 28.4091 45.8385 35.962 41.9088 38.2373C40.2904 39.1739 39.5029 40.6072 39.5025 42.4701C39.5 50.1412 39.5025 57.812 39.5 65.4833C39.5004 66.4017 39.6927 67.2154 40.0811 67.9169C40.4804 68.6384 41.0865 69.2415 41.9067 69.7161C45.8366 71.9914 59.026 79.5437 61.6594 81.0969C63.4305 82.1416 65.1597 82.1789 66.9438 81.1493C73.5595 77.3307 80.1839 73.5282 86.8026 69.7138C87.6227 69.2394 88.2288 68.6359 88.6281 67.9149C89.0159 67.2134 89.2086 66.3998 89.209 65.4811C89.209 65.4811 89.209 50.1431 89.2065 42.4719Z" fill="#619FDA"/>
<path d="M64.4305 53.9019L40.0811 67.9168C40.4803 68.6383 41.0864 69.2414 41.9066 69.716C45.8365 71.9914 59.0259 79.5436 61.6593 81.0969C63.4304 82.1415 65.1596 82.1788 66.9437 81.1492C73.5594 77.3307 80.1839 73.5281 86.8025 69.7137C87.6227 69.2393 88.2287 68.6358 88.628 67.9148L64.4305 53.9019Z" fill="#0668B4"/>
<path d="M89.2066 42.4718C89.2062 41.5327 89.0053 40.7029 88.599 39.9907L64.4307 53.9018L88.6282 67.9148C89.016 67.2133 89.2087 66.3997 89.2091 65.481C89.2091 65.481 89.2091 50.143 89.2066 42.4718Z" fill="#0668B4"/>
<path d="M80.6555 49.272H78.9258L78.4934 51.4323H77.124L77.5564 49.272H75.7907L75.3583 51.4323H73.4484V53.2325H75.034L74.7096 54.6727H73.4484V56.4729H74.3493L73.9169 58.6332H75.6466L76.079 56.4729H77.4483L77.0159 58.6332H78.7817L79.2141 56.4729H81.0158V54.6727H79.5384L79.8627 53.2325H81.0158V51.4323H80.2231L80.6555 49.272ZM77.8087 54.6727H76.4393L76.7637 53.2325H78.133L77.8087 54.6727ZM64.0792 62.7738C59.2144 62.7738 55.2505 58.8132 55.2505 53.9526C55.2505 49.092 59.2144 45.1314 64.0792 45.1314C67.3584 45.1314 70.2413 46.9317 71.7547 49.632L76.4393 46.9317C73.9889 42.6471 69.3764 39.7307 64.0792 39.7307C56.2235 39.7307 49.8452 46.1036 49.8452 53.9526C49.8452 61.8016 56.2235 68.1745 64.0792 68.1745C69.3404 68.1745 73.9529 65.2941 76.4033 61.0455L71.7547 58.3092C70.2413 60.9735 67.3584 62.7738 64.0792 62.7738Z" fill="white"/>
<defs>
<filter id="filter0_d_346_412" x="0" y="0" width="225" height="122" filterUnits="userSpaceOnUse" color-interpolation-filters="sRGB">
<feFlood flood-opacity="0" result="BackgroundImageFix"/>
<feColorMatrix in="SourceAlpha" type="matrix" values="0 0 0 0 0 0 0 0 0 0 0 0 0 0 0 0 0 0 127 0" result="hardAlpha"/>
<feOffset dy="7"/>
<feGaussianBlur stdDeviation="10"/>
<feComposite in2="hardAlpha" operator="out"/>
<feColorMatrix type="matrix" values="0 0 0 0 0.266667 0 0 0 0 0.266667 0 0 0 0 0.266667 0 0 0 0.05 0"/>
<feBlend mode="normal" in2="BackgroundImageFix" result="effect1_dropShadow_346_412"/>
<feBlend mode="normal" in="SourceGraphic" in2="effect1_dropShadow_346_412" result="shape"/>
</filter>
</defs>
</svg>
