<svg width="52" height="52" viewBox="0 0 52 52" fill="none" xmlns="http://www.w3.org/2000/svg">
<g clip-path="url(#clip0_1177_6327)">
<path d="M28.3352 6.52556C26.9157 5.60216 25.085 5.60216 23.6656 6.52556C23.6507 6.53521 0.132781 21.8465 0.117547 21.8565L0.0878906 21.8776V50.7308C0.0878906 51.4272 0.656234 52 1.35925 52H50.6413C51.3382 52 51.9137 51.4291 51.9137 50.7307V21.8765C46.9973 18.6757 64.299 29.94 28.3352 6.52556Z" fill="#EEBF00"/>
<path d="M51.9123 21.8767V50.731C51.9123 51.4295 51.3367 51.9997 50.6394 51.9997H1.3578C0.65418 51.9997 0.0859375 51.4273 0.0859375 50.731V21.8777C2.10866 23.1927 22.4078 36.391 23.4601 37.0747C25.004 38.0788 26.9942 38.0788 28.5391 37.0747C29.5358 36.4268 51.3924 22.2149 51.9123 21.8767Z" fill="#FFDE55"/>
<path d="M51.6079 51.5504C51.5698 51.5959 51.5285 51.6383 51.4842 51.6773C51.3732 51.7756 51.2472 51.855 51.1087 51.9099C50.9448 51.9649 50.7777 51.9998 50.6402 51.9998H1.35809C1.31574 51.9998 1.27136 51.9976 1.22586 51.9923C1.2025 51.9902 1.17934 51.9871 1.1571 51.9839C1.14024 51.9818 1.1243 51.9786 1.10744 51.9754C0.864195 51.9257 0.645227 51.8072 0.472875 51.6401C0.449516 51.618 0.427375 51.5946 0.40625 51.5702L0.72668 51.3112L20.7579 35.3182C21.0342 35.4978 19.7569 34.6675 23.4602 37.075C25.0044 38.0788 26.9949 38.0788 28.5392 37.075C32.2788 34.6443 30.9889 35.4826 31.2679 35.3013L51.3869 51.3641L51.6079 51.5504Z" fill="#FFEB99"/>
<path d="M47.3743 17.5067C40.9036 22.3377 34.3313 27.2419 22.2315 36.2746C21.8839 36.05 7.64416 26.791 5.73641 25.5495H5.73539C5.31766 25.2783 4.12776 24.5054 3.27148 23.9478L34.68 0.504343C35.8027 -0.333751 37.3907 -0.103712 38.2288 1.01896C48.5855 14.892 47.9278 14.0028 48.0087 14.1343C48.6965 15.234 48.446 16.7024 47.3743 17.5067Z" fill="#5EAC24"/>
<path d="M35.5788 4.60771C36.0969 4.60771 36.5169 4.18769 36.5169 3.66958C36.5169 3.15146 36.0969 2.73145 35.5788 2.73145C35.0606 2.73145 34.6406 3.15146 34.6406 3.66958C34.6406 4.18769 35.0606 4.60771 35.5788 4.60771Z" fill="#47821C"/>
<path d="M42.4299 12.9866C41.3481 14.2179 41.0432 15.9483 41.5834 17.4533C41.7559 17.9443 41.575 18.4759 41.1697 18.7787C39.6883 19.8843 28.3979 28.3101 26.2698 29.8987C26.2698 29.8997 26.2688 29.8997 26.2688 29.8997C18.5464 35.6627 31.8319 25.7462 19.8235 34.7098C18.381 33.7711 8.64112 27.4388 8.6331 27.4337C9.02168 26.4371 9.04585 25.3175 8.67718 24.2894C8.50493 23.8084 8.68032 23.2696 9.08993 22.964C18.9478 15.607 17.4308 16.7392 17.5926 16.6184L31.6975 6.09068C32.1081 5.78508 32.6732 5.76933 33.086 6.07179C34.3978 7.03318 36.133 7.20736 37.6094 6.52973C38.1167 6.29553 38.7184 6.44574 39.0535 6.89414C39.253 7.16125 38.0941 5.60907 42.491 11.4984C42.8248 11.9458 42.7975 12.5654 42.4299 12.9866Z" fill="#4E901E"/>
<path d="M48.3442 24.1738C36.0367 30.7922 41.1273 28.0548 23.8914 37.3228C23.5693 37.1578 6.13229 25.8069 5.73691 25.5495H5.73589C5.68775 25.5183 3.62512 24.1786 3.58398 24.1506C30.779 9.52867 19.5624 15.5594 38.2924 5.4878C39.5263 4.82409 41.0629 5.28508 41.7267 6.51917C49.9559 21.8211 49.4174 20.8129 49.468 20.9316C50.0084 22.1693 49.4676 23.5818 48.3442 24.1738Z" fill="#7ED63E"/>
<path d="M38.7135 9.68877C39.2316 9.68877 39.6517 9.26875 39.6517 8.75063C39.6517 8.23252 39.2316 7.8125 38.7135 7.8125C38.1954 7.8125 37.7754 8.23252 37.7754 8.75063C37.7754 9.26875 38.1954 9.68877 38.7135 9.68877Z" fill="#4E901E"/>
<path d="M44.1164 18.9748C42.8336 20.0686 42.3165 21.736 42.622 23.2672C42.7207 23.7692 42.4686 24.2754 42.0181 24.518L30.038 30.9591H30.0369C29.6654 31.1589 31.3825 30.2355 26.4041 32.9126C26.4041 32.9126 26.4041 32.9126 26.4031 32.9126C26.1086 33.0708 27.8258 32.1478 21.2884 35.6621C19.3098 34.3864 8.90036 27.6078 8.88086 27.5952C9.17153 26.802 9.22495 25.9523 9.06784 25.1828C8.9681 24.6807 9.2212 24.1745 9.67173 23.9319L20.3076 18.2133L34.5184 10.5728C34.9689 10.3302 35.5297 10.3995 35.8943 10.7586C37.0556 11.9091 38.7551 12.3279 40.3 11.8782C40.8367 11.7217 41.4101 11.958 41.6759 12.4506C45.1558 18.9229 44.2395 17.2187 44.3971 17.5117C44.6615 18.0034 44.5428 18.6126 44.1164 18.9748Z" fill="#5EAC24"/>
<path d="M44.4318 12.5979C44.0706 11.5467 43.0875 10.886 42.0341 10.886C41.5208 10.886 41.1652 11.0451 41.1005 11.0624C40.5357 11.2567 3.51919 23.9847 3.40625 24.036C3.54438 24.1248 4.44412 24.7109 5.73569 25.5494H5.7367C7.31031 26.5733 23.4862 37.0918 23.4984 37.0978C25.0059 38.0618 26.9816 38.0872 28.5405 37.0747C29.1222 36.6969 47.952 24.4531 48.408 24.1568C46.4109 18.3504 46.5259 18.6847 44.4318 12.5979Z" fill="#A4E276"/>
<path d="M41.0983 15.2508C41.6164 15.2508 42.0364 14.8308 42.0364 14.3126C42.0364 13.7945 41.6164 13.3745 41.0983 13.3745C40.5802 13.3745 40.1602 13.7945 40.1602 14.3126C40.1602 14.8308 40.5802 15.2508 41.0983 15.2508Z" fill="#4E901E"/>
<path d="M45.294 23.8774C43.0839 17.4493 43.5829 18.9007 43.4257 18.4434C43.243 17.9151 42.7158 17.5885 42.1601 17.6568C40.5259 17.8537 38.9355 17.1365 37.9928 15.8398C37.6925 15.426 37.1494 15.2685 36.6653 15.4344L9.88926 24.644C9.49855 24.7774 9.20767 25.103 9.11941 25.4926C9.03451 25.848 9.20716 26.4682 8.79492 27.5385C8.91162 27.6162 22.0071 36.127 23.1045 36.8426C23.9258 36.5601 35.3097 32.6446 35.4039 32.6122C46.6669 25.2882 40.4401 29.3381 42.8112 27.7969C43.1273 26.7671 43.8188 25.8551 44.7815 25.2763C45.2604 24.9875 45.4757 24.4057 45.294 23.8774Z" fill="#5EAC24"/>
<path d="M25.8524 32.9387C28.8419 32.9387 31.2654 30.5153 31.2654 27.5258C31.2654 24.5363 28.8419 22.1128 25.8524 22.1128C22.8629 22.1128 20.4395 24.5363 20.4395 27.5258C20.4395 30.5153 22.8629 32.9387 25.8524 32.9387Z" fill="#47821C"/>
<path d="M26.1282 26.6496L26.1283 26.6484C25.3441 26.6105 24.7824 26.716 24.5878 26.1499C24.4174 25.6544 24.756 25.3775 25.2516 25.2071C25.9614 24.963 26.2163 25.2337 26.5425 25.1215C26.9236 24.9904 26.9964 24.5423 26.9025 24.2692C26.7097 23.7089 25.8696 23.7797 25.31 23.8962L25.2245 23.6479C25.1046 23.2992 24.7232 23.113 24.3746 23.2329C24.0258 23.3529 23.8396 23.7343 23.9596 24.0829L24.0719 24.4097C23.3099 24.9431 23.0603 25.7259 23.3696 26.6252C23.8127 27.9135 24.8581 27.943 25.6982 27.9666C26.4941 27.9889 26.9745 28.0025 27.2081 28.6815C27.3989 29.2362 27.1916 29.609 26.5744 29.8214C25.5986 30.157 25.3953 29.4442 24.8915 29.6175C24.5579 29.7322 24.4196 30.1715 24.523 30.4727C24.6782 30.9243 25.4133 31.2923 26.3937 31.1607L26.4774 31.4041C26.5974 31.7527 26.9787 31.939 27.3274 31.819C27.6761 31.6991 27.8623 31.3177 27.7424 30.9691L27.6537 30.7114C28.5067 30.1666 28.7885 29.2599 28.4261 28.2062C27.9387 26.789 26.853 26.6736 26.1282 26.6496Z" fill="#6DC82A"/>
<path d="M16.0743 32.271C15.3874 31.8246 14.6785 31.3635 13.957 30.8951C14.2202 29.5388 16.1267 29.3988 16.5795 30.7145C16.7811 31.3027 16.5585 31.9329 16.0743 32.271Z" fill="#47821C"/>
<path d="M35.897 25.4334C36.6491 25.4334 37.2589 24.8237 37.2589 24.0716C37.2589 23.3194 36.6491 22.7097 35.897 22.7097C35.1449 22.7097 34.5352 23.3194 34.5352 24.0716C34.5352 24.8237 35.1449 25.4334 35.897 25.4334Z" fill="#47821C"/>
<path d="M42.8115 27.7969C42.7863 27.8767 42.7632 27.9586 42.7433 28.0405L42.0879 28.2663C42.3305 28.1089 42.572 27.9524 42.8115 27.7969Z" fill="#FFDE55"/>
<path d="M50.9531 21.2507C50.9558 21.252 50.9584 21.2534 50.9598 21.2547H50.9586C50.9571 21.2534 50.9544 21.252 50.9531 21.2507Z" fill="#EEBF00"/>
<path d="M50.957 21.2539C50.9623 21.2571 50.9675 21.2602 50.9728 21.2644C50.9718 21.2634 50.9706 21.2622 50.9686 21.2622C50.9665 21.2601 50.9655 21.2591 50.9644 21.2591C50.9612 21.2571 50.9591 21.2549 50.957 21.2539Z" fill="#EEBF00"/>
<path d="M50.9824 21.2698C50.9831 21.2705 50.9846 21.2713 50.9853 21.272C50.9846 21.272 50.9838 21.2713 50.9824 21.2705V21.2698Z" fill="#EEBF00"/>
<path d="M50.9961 21.2781C51.0003 21.2812 51.0055 21.2844 51.0097 21.2875C51.0097 21.2875 51.0097 21.2875 51.0087 21.2875C51.0034 21.2834 50.9992 21.2812 50.9961 21.2781Z" fill="#EEBF00"/>
<path d="M51.0098 21.2876C51.0182 21.2929 51.0255 21.297 51.0329 21.3023C51.0266 21.2982 51.0203 21.295 51.015 21.2919C51.0129 21.2897 51.0108 21.2886 51.0098 21.2876Z" fill="#EEBF00"/>
<path d="M51.6562 21.7087C51.6625 21.7129 51.6699 21.7182 51.6762 21.7223C51.6709 21.7202 51.6667 21.7171 51.6625 21.7139C51.6604 21.7119 51.6583 21.7108 51.6562 21.7087Z" fill="#EEBF00"/>
<path d="M51.9123 48.849V50.7311C51.9123 51.4295 51.3367 51.9998 50.6394 51.9998H1.3578C0.65418 51.9998 0.0859375 51.4274 0.0859375 50.7311V21.8777C0.502852 22.1487 1.69804 22.9258 3.34173 23.995V47.5802C3.34173 48.2765 3.90987 48.8489 4.61359 48.8489H51.9123V48.849Z" fill="#FFD422"/>
<path d="M50.9531 21.2507C50.9558 21.252 50.9584 21.2534 50.9598 21.2547H50.9586C50.9571 21.2534 50.9544 21.252 50.9531 21.2507Z" fill="#EEBF00"/>
<path d="M50.957 21.2539C50.9623 21.2571 50.9675 21.2602 50.9728 21.2644C50.9718 21.2634 50.9706 21.2622 50.9686 21.2622C50.9665 21.2601 50.9655 21.2591 50.9644 21.2591C50.9612 21.2571 50.9591 21.2549 50.957 21.2539Z" fill="#EEBF00"/>
<path d="M50.9824 21.2698C50.9831 21.2705 50.9846 21.2713 50.9853 21.272C50.9846 21.272 50.9838 21.2713 50.9824 21.2705V21.2698Z" fill="#EEBF00"/>
<path d="M50.9961 21.2781C51.0003 21.2812 51.0055 21.2844 51.0097 21.2875C51.0097 21.2875 51.0097 21.2875 51.0087 21.2875C51.0034 21.2834 50.9992 21.2812 50.9961 21.2781Z" fill="#EEBF00"/>
<path d="M51.0098 21.2876C51.0182 21.2929 51.0255 21.297 51.0329 21.3023C51.0266 21.2982 51.0203 21.295 51.015 21.2919C51.0129 21.2897 51.0108 21.2886 51.0098 21.2876Z" fill="#EEBF00"/>
<path d="M51.6562 21.7087C51.6625 21.7129 51.6699 21.7182 51.6762 21.7223C51.6709 21.7202 51.6667 21.7171 51.6625 21.7139C51.6604 21.7119 51.6583 21.7108 51.6562 21.7087Z" fill="#EEBF00"/>
<path d="M51.3871 51.3644L48.2363 48.8491H4.61459C4.394 48.8491 4.1861 48.7924 4.00542 48.6947L0.727594 51.3119L0.40625 51.5702C0.530766 51.7065 0.672852 51.8163 0.84632 51.8916C0.867344 51.901 0.889383 51.9105 0.911422 51.9179C0.939148 51.9364 1.15212 51.9999 1.3588 51.9999H50.6404C50.6583 51.9999 50.675 51.9999 50.6929 51.9977C50.7086 51.9967 50.7244 51.9967 50.7401 51.9946C50.8504 51.9841 50.9722 51.9557 51.0941 51.9158C51.1045 51.9116 51.1161 51.9073 51.1277 51.9021C51.1318 51.9 51.1361 51.899 51.1413 51.8969C51.157 51.8896 51.1739 51.8821 51.1896 51.8738C51.2054 51.8665 51.2201 51.8591 51.2348 51.8518C51.3556 51.7877 51.4649 51.7047 51.5583 51.606C51.5762 51.5881 51.5919 51.5692 51.6087 51.5503L51.3871 51.3644Z" fill="#FFEB99"/>
<path d="M51.6087 51.5502C51.3755 51.8233 51.03 51.9997 50.6404 51.9997H1.3588C1.13618 51.9997 0.932445 51.9325 0.911422 51.9178C0.763344 51.8684 0.572203 51.7518 0.40625 51.5701C3.11898 49.4025 3.82159 48.8416 3.9718 48.7219V48.7209C3.97282 48.7199 3.98125 48.7136 3.98755 48.7093C3.98856 48.7072 3.99069 48.7062 3.99171 48.7052C3.99273 48.7041 3.99486 48.703 3.99801 48.701L4.00217 48.6968C4.00319 48.6968 4.0043 48.6958 4.00532 48.6947C4.186 48.7924 4.3939 48.8491 4.61449 48.8491H48.2363C48.8961 49.3776 46.5142 47.4696 51.6087 51.5502Z" fill="#FFDE55"/>
</g>
<defs>
<clipPath id="clip0_1177_6327">
<rect width="52" height="52" fill="white"/>
</clipPath>
</defs>
</svg>
