<svg width="52" height="52" viewBox="0 0 52 52" fill="none" xmlns="http://www.w3.org/2000/svg">
<g clip-path="url(#clip0_1177_6431)">
<path d="M9.08707 38.8121C8.58647 38.8091 8.05276 38.8075 7.48137 38.8075C5.88694 38.8075 4.42718 39.5143 3.83812 41.2593C1.83378 41.2593 0.208984 42.8841 0.208984 44.8884C0.208984 46.8927 1.83378 48.5175 3.83812 48.5175H9.08697V38.8121H9.08707Z" fill="#89C627"/>
<path d="M42.9121 38.8122C43.4127 38.8092 43.9464 38.8076 44.5178 38.8076C46.1122 38.8076 47.572 39.5144 48.1611 41.2594C50.1654 41.2594 51.7902 42.8842 51.7902 44.8886C51.7902 46.8928 50.1654 48.5176 48.1611 48.5176C47.1348 48.5176 44.2243 48.5176 42.9122 48.5176V38.8122H42.9121Z" fill="#89C627"/>
<path d="M44.8575 48.3427H20.7012V14.9801C20.7012 14.2279 21.311 13.6182 22.0631 13.6182H43.4955C44.2476 13.6182 44.8574 14.2279 44.8574 14.9801V48.3427H44.8575Z" fill="#688B96"/>
<path d="M40.4198 23.5555H32.0156V18.3765H40.4198C40.8056 18.3765 41.1183 18.6892 41.1183 19.0749V22.8572C41.1182 23.2428 40.8055 23.5555 40.4198 23.5555Z" fill="#97E4F9"/>
<path d="M40.4198 33.162H32.0156V27.9829H40.4198C40.8056 27.9829 41.1183 28.2956 41.1183 28.6814V32.4636C41.1182 32.8493 40.8055 33.162 40.4198 33.162Z" fill="#97E4F9"/>
<path d="M40.4198 42.7679H32.0156V37.5889H40.4198C40.8056 37.5889 41.1183 37.9016 41.1183 38.2873V42.0696C41.1182 42.4552 40.8055 42.7679 40.4198 42.7679Z" fill="#97E4F9"/>
<path d="M32.8777 48.3428H8.52344V1.39223C8.52344 0.640055 9.13322 0.0302734 9.88539 0.0302734H31.5158C32.2679 0.0302734 32.8777 0.640055 32.8777 1.39223V48.3428Z" fill="#DAEAEF"/>
<path d="M31.5164 0.0300293H27.7832C28.5354 0.0300293 29.1452 0.639811 29.1452 1.39198V48.3426H32.8784V1.39198C32.8784 0.639811 32.2686 0.0300293 31.5164 0.0300293Z" fill="#C9E2E7"/>
<path d="M50.9149 47.2173H1.08509C0.485773 47.2173 0 47.7031 0 48.3024V50.8848C0 51.4841 0.485773 51.9699 1.08509 51.9699H50.9149C51.5142 51.9699 52 51.4841 52 50.8848V48.3024C52 47.7031 51.5142 47.2173 50.9149 47.2173Z" fill="#55BFE9"/>
<path d="M23.7371 37.04H17.5787C17.3271 37.04 17.123 37.244 17.123 37.4955V47.2172H24.1926V37.4955C24.1926 37.244 23.9887 37.04 23.7371 37.04Z" fill="#557981"/>
<path d="M21.9679 7.54221H19.3443C19.0927 7.54221 18.8887 7.33827 18.8887 7.0866V4.46293C18.8887 4.21136 19.0926 4.00732 19.3443 4.00732H21.9679C22.2195 4.00732 22.4236 4.21126 22.4236 4.46293V7.0866C22.4235 7.33827 22.2195 7.54221 21.9679 7.54221Z" fill="#97E4F9"/>
<path d="M28.6926 7.54221H26.0689C25.8173 7.54221 25.6133 7.33827 25.6133 7.0866V4.46293C25.6133 4.21136 25.8172 4.00732 26.0689 4.00732H28.6926C28.9441 4.00732 29.1482 4.21126 29.1482 4.46293V7.0866C29.1482 7.33827 28.9442 7.54221 28.6926 7.54221Z" fill="#97E4F9"/>
<path d="M21.9679 15.8005H19.3443C19.0927 15.8005 18.8887 15.5966 18.8887 15.3449V12.7212C18.8887 12.4697 19.0926 12.2656 19.3443 12.2656H21.9679C22.2195 12.2656 22.4236 12.4696 22.4236 12.7212V15.3449C22.4235 15.5966 22.2195 15.8005 21.9679 15.8005Z" fill="#97E4F9"/>
<path d="M28.6926 15.8005H26.0689C25.8173 15.8005 25.6133 15.5966 25.6133 15.3449V12.7212C25.6133 12.4697 25.8172 12.2656 26.0689 12.2656H28.6926C28.9441 12.2656 29.1482 12.4696 29.1482 12.7212V15.3449C29.1482 15.5966 28.9442 15.8005 28.6926 15.8005Z" fill="#97E4F9"/>
<path d="M21.9679 24.0588H19.3443C19.0927 24.0588 18.8887 23.8549 18.8887 23.6032V20.9795C18.8887 20.728 19.0926 20.5239 19.3443 20.5239H21.9679C22.2195 20.5239 22.4236 20.7279 22.4236 20.9795V23.6032C22.4235 23.8549 22.2195 24.0588 21.9679 24.0588Z" fill="#97E4F9"/>
<path d="M28.6926 24.0588H26.0689C25.8173 24.0588 25.6133 23.8549 25.6133 23.6032V20.9795C25.6133 20.728 25.8172 20.5239 26.0689 20.5239H28.6926C28.9441 20.5239 29.1482 20.7279 29.1482 20.9795V23.6032C29.1482 23.8549 28.9442 24.0588 28.6926 24.0588Z" fill="#97E4F9"/>
<path d="M21.9679 32.3166H19.3443C19.0927 32.3166 18.8887 32.1127 18.8887 31.861V29.2373C18.8887 28.9858 19.0926 28.7817 19.3443 28.7817H21.9679C22.2195 28.7817 22.4236 28.9857 22.4236 29.2373V31.861C22.4235 32.1127 22.2195 32.3166 21.9679 32.3166Z" fill="#97E4F9"/>
<path d="M28.6926 32.3166H26.0689C25.8173 32.3166 25.6133 32.1127 25.6133 31.861V29.2373C25.6133 28.9858 25.8172 28.7817 26.0689 28.7817H28.6926C28.9441 28.7817 29.1482 28.9857 29.1482 29.2373V31.861C29.1482 32.1127 28.9442 32.3166 28.6926 32.3166Z" fill="#97E4F9"/>
<path d="M15.2453 7.54221H12.6216C12.3701 7.54221 12.166 7.33827 12.166 7.0866V4.46293C12.166 4.21136 12.37 4.00732 12.6216 4.00732H15.2453C15.4969 4.00732 15.7009 4.21126 15.7009 4.46293V7.0866C15.7009 7.33827 15.4969 7.54221 15.2453 7.54221Z" fill="#97E4F9"/>
<path d="M15.2453 15.8004H12.6216C12.3701 15.8004 12.166 15.5964 12.166 15.3448V12.7211C12.166 12.4695 12.37 12.2655 12.6216 12.2655H15.2453C15.4969 12.2655 15.7009 12.4694 15.7009 12.7211V15.3448C15.7009 15.5964 15.4969 15.8004 15.2453 15.8004Z" fill="#97E4F9"/>
<path d="M15.2453 24.0586H12.6216C12.3701 24.0586 12.166 23.8546 12.166 23.603V20.9793C12.166 20.7277 12.37 20.5237 12.6216 20.5237H15.2453C15.4969 20.5237 15.7009 20.7276 15.7009 20.9793V23.603C15.7009 23.8546 15.4969 24.0586 15.2453 24.0586Z" fill="#97E4F9"/>
<path d="M15.2453 32.3167H12.6216C12.3701 32.3167 12.166 32.1128 12.166 31.8611V29.2375C12.166 28.9859 12.37 28.7819 12.6216 28.7819H15.2453C15.4969 28.7819 15.7009 28.9858 15.7009 29.2375V31.8611C15.7009 32.1128 15.4969 32.3167 15.2453 32.3167Z" fill="#97E4F9"/>
</g>
<defs>
<clipPath id="clip0_1177_6431">
<rect width="52" height="52" fill="white"/>
</clipPath>
</defs>
</svg>
