<svg width="52" height="52" viewBox="0 0 52 52" fill="none" xmlns="http://www.w3.org/2000/svg">
<path d="M33.4925 49.5625H18.5075C18.1094 49.5625 17.7252 49.4164 17.4277 49.1518C17.1303 48.8873 16.9402 48.5228 16.8937 48.1274L13.8125 21.9375H38.1875L35.1063 48.1274C35.0598 48.5228 34.8697 48.8873 34.5723 49.1518C34.2748 49.4164 33.8906 49.5625 33.4925 49.5625Z" fill="#8C5237"/>
<path d="M19.5 31.6875H24.375V36.5625H19.5V31.6875Z" fill="#E9EEF2"/>
<path d="M24.375 39.8125H29.25V44.6875H24.375V39.8125Z" fill="#E9EEF2"/>
<path d="M27.6191 31.6874L30.8687 28.4379L34.1182 31.6874L30.8687 34.9369L27.6191 31.6874Z" fill="#E9EEF2"/>
<path d="M33.3125 26C33.7612 26 34.125 25.6362 34.125 25.1875C34.125 24.7388 33.7612 24.375 33.3125 24.375C32.8638 24.375 32.5 24.7388 32.5 25.1875C32.5 25.6362 32.8638 26 33.3125 26Z" fill="#AD6643"/>
<path d="M32.5 40.625C32.9487 40.625 33.3125 40.2612 33.3125 39.8125C33.3125 39.3638 32.9487 39 32.5 39C32.0513 39 31.6875 39.3638 31.6875 39.8125C31.6875 40.2612 32.0513 40.625 32.5 40.625Z" fill="#AD6643"/>
<path d="M20.3125 45.5C20.7612 45.5 21.125 45.1362 21.125 44.6875C21.125 44.2388 20.7612 43.875 20.3125 43.875C19.8638 43.875 19.5 44.2388 19.5 44.6875C19.5 45.1362 19.8638 45.5 20.3125 45.5Z" fill="#AD6643"/>
<path d="M12.1875 18.6875H39.8125V21.9375H12.1875V18.6875Z" fill="#DADCDE"/>
<path d="M24.375 21.9375H17.875V30.0625C17.875 30.4935 18.0462 30.9068 18.351 31.2115C18.6557 31.5163 19.069 31.6875 19.5 31.6875C19.931 31.6875 20.3443 31.5163 20.649 31.2115C20.9538 30.9068 21.125 30.4935 21.125 30.0625V26.8125C21.125 26.3815 21.2962 25.9682 21.601 25.6635C21.9057 25.3587 22.319 25.1875 22.75 25.1875C23.181 25.1875 23.5943 25.3587 23.899 25.6635C24.2038 25.9682 24.375 26.3815 24.375 26.8125C24.375 27.2435 24.5462 27.6568 24.851 27.9615C25.1557 28.2663 25.569 28.4375 26 28.4375C26.431 28.4375 26.8443 28.2663 27.149 27.9615C27.4538 27.6568 27.625 27.2435 27.625 26.8125V21.9375H24.375Z" fill="#AD6643"/>
<path d="M23.5625 7.3125H28.4375C31.0234 7.3125 33.5033 8.33973 35.3318 10.1682C37.1603 11.9967 38.1875 14.4766 38.1875 17.0625V18.6875H13.8125V17.0625C13.8125 14.4766 14.8397 11.9967 16.6682 10.1682C18.4967 8.33973 20.9766 7.3125 23.5625 7.3125Z" fill="#E9EEF2"/>
<path d="M24.375 2.4375H27.625V18.6875H24.375V2.4375Z" fill="#596063"/>
<path d="M24.375 2.4375H27.625V7.3125H24.375V2.4375Z" fill="#6A7073"/>
</svg>
