<svg width="52" height="52" viewBox="0 0 52 52" fill="none" xmlns="http://www.w3.org/2000/svg">
<g clip-path="url(#clip0_1177_6369)">
<path d="M26 0C11.6386 0 0 11.6386 0 26C0 40.3614 11.6386 52 26 52C35.7961 52 44.3228 46.585 48.7551 38.5803C50.4134 35.5913 51.4984 32.2339 51.8669 28.6614C51.9488 27.7913 52 26.9008 52 26C52 11.6386 40.3614 0 26 0Z" fill="#F2705B"/>
<path d="M25.9992 45.1419C36.5708 45.1419 45.1409 36.5718 45.1409 26.0001C45.1409 15.4284 36.5708 6.8584 25.9992 6.8584C15.4275 6.8584 6.85742 15.4284 6.85742 26.0001C6.85742 36.5718 15.4275 45.1419 25.9992 45.1419Z" fill="white"/>
<path d="M25.9998 38.2733C32.7781 38.2733 38.273 32.7783 38.273 26C38.273 19.2217 32.7781 13.7268 25.9998 13.7268C19.2215 13.7268 13.7266 19.2217 13.7266 26C13.7266 32.7783 19.2215 38.2733 25.9998 38.2733Z" fill="#F2705B"/>
<path d="M26.0009 31.4149C28.9915 31.4149 31.4159 28.9905 31.4159 25.9999C31.4159 23.0093 28.9915 20.585 26.0009 20.585C23.0103 20.585 20.5859 23.0093 20.5859 25.9999C20.5859 28.9905 23.0103 31.4149 26.0009 31.4149Z" fill="white"/>
<path opacity="0.2" d="M51.867 28.6614C51.4985 32.2338 50.4134 35.5913 48.7552 38.5803L41.8867 36.4512L41.1497 32.0189L25.826 27.259C25.2016 27.0645 24.8536 26.3992 25.0481 25.785C25.2426 25.1606 25.9079 24.8126 26.5221 25.0071L41.8457 29.7771L44.9678 26.5323L51.867 28.6614Z" fill="#334A5E"/>
<path d="M45.8688 6.02913L38.1405 13.952L36.0625 7.93307L43.7908 0L45.8688 6.02913Z" fill="#55BFE9"/>
<path d="M44.2209 15.8764L51.9493 7.94335L45.869 6.02917L38.1406 13.952L44.2209 15.8764Z" fill="#55BFE9"/>
<path d="M49.4616 4.19691L27.2695 26.9725C26.7679 27.4843 25.949 27.4945 25.4372 26.993C24.9254 26.4914 24.9152 25.6725 25.4167 25.1607L47.6089 2.38509C48.1104 1.87328 48.9293 1.86305 49.4412 2.36462C49.9427 2.8662 49.953 3.68509 49.4616 4.19691Z" fill="#41596B"/>
</g>
<defs>
<clipPath id="clip0_1177_6369">
<rect width="52" height="52" fill="white"/>
</clipPath>
</defs>
</svg>
