<svg width="52" height="52" viewBox="0 0 52 52" fill="none" xmlns="http://www.w3.org/2000/svg">
<g clip-path="url(#clip0_1177_6488)">
<path d="M44.6681 13.1841C44.2635 13.1841 43.8454 13.0235 43.5598 12.7378L39.2647 8.4427C38.979 8.15701 38.8184 7.77026 38.8184 7.36564C38.8184 6.96101 38.979 6.54288 39.2647 6.25729L43.5598 1.96069C44.1311 1.3894 45.1427 1.3894 45.714 1.96069L50.0418 6.28847C50.3275 6.57416 50.4882 6.96091 50.4882 7.36553C50.4882 7.77016 50.3275 8.15701 50.0418 8.4426L45.7452 12.7377C45.4596 13.0235 45.0728 13.1841 44.6681 13.1841Z" fill="#DDDAEC"/>
<path d="M13.82 31.7169L20.2832 38.1802L38.1807 20.2827L31.7175 13.8194L13.82 31.7169Z" fill="#DDDAEC"/>
<path d="M7.37269 50.4788C6.9829 50.4788 6.5931 50.33 6.29562 50.0324L1.96785 45.706C1.68216 45.4203 1.52148 45.0336 1.52148 44.629C1.52148 44.2243 1.68216 43.8375 1.96785 43.5519L6.26444 39.2568C6.8595 38.6618 7.82363 38.6618 8.41868 39.2568L12.745 43.5832C13.3401 44.1782 13.3401 45.1424 12.745 45.7374L8.44996 50.0325C8.15228 50.33 7.76249 50.4788 7.37269 50.4788Z" fill="#DDDAEC"/>
<path d="M47.8764 23.5142L28.4863 4.12414L31.718 0.892428C32.9079 -0.297476 34.8371 -0.297476 36.0269 0.892428L51.1081 15.9736C52.298 17.1635 52.298 19.0927 51.1081 20.2825L47.8764 23.5142Z" fill="#1689FC"/>
<path d="M43.567 29.9776L22.0224 8.433C21.4274 7.83805 21.4274 6.87351 22.0224 6.27856L24.1768 4.12412C25.3667 2.93421 27.2959 2.93421 28.4857 4.12412L47.8759 23.5143C49.0658 24.7042 49.0658 26.6334 47.8759 27.8232L45.7214 29.9776C45.1265 30.5726 44.162 30.5726 43.567 29.9776Z" fill="#17ACE8"/>
<path d="M4.12414 28.4857L23.5143 47.8759L20.2826 51.1076C19.0927 52.2975 17.1635 52.2975 15.9737 51.1076L0.892428 36.0263C-0.297476 34.8364 -0.297476 32.9072 0.892428 31.7174L4.12414 28.4857Z" fill="#1689FC"/>
<path d="M8.43373 22.0224L29.9783 43.567C30.5733 44.1619 30.5733 45.1265 29.9783 45.7214L27.8239 47.8759C26.634 49.0658 24.7048 49.0658 23.515 47.8759L4.12485 28.4858C2.93495 27.2959 2.93495 25.3667 4.12485 24.1769L6.27929 22.0225C6.87424 21.4274 7.83878 21.4274 8.43373 22.0224Z" fill="#17ACE8"/>
</g>
<defs>
<clipPath id="clip0_1177_6488">
<rect width="52" height="52" fill="white"/>
</clipPath>
</defs>
</svg>
