<svg width="52" height="52" viewBox="0 0 52 52" fill="none" xmlns="http://www.w3.org/2000/svg">
<path d="M49.0679 39.2983V7.81609C49.0679 6.83905 48.3079 6.0791 47.3309 6.0791H4.99274C4.01581 6.0791 3.25586 6.83905 3.25586 7.81609V39.2983H49.0679Z" fill="#334A5E"/>
<path d="M45.5955 9.44482H6.62305V35.9336H45.5955V9.44482Z" fill="#84DBFF"/>
<path d="M0 41.3611C0 42.5552 0.977034 43.4238 2.06266 43.4238H49.9373C51.1315 43.4238 52 42.4468 52 41.3611C52 40.167 51.023 39.2985 49.9373 39.2985H2.06266C0.977034 39.2985 0 40.2755 0 41.3611Z" fill="#F2F2F2"/>
<path d="M19.3243 28.6597L13.3535 22.6889L19.3243 16.8267L21.0612 18.5636L16.936 22.6889L21.0612 26.9227L19.3243 28.6597Z" fill="white"/>
<path d="M32.7857 28.6597L38.7565 22.6889L32.7857 16.8267L31.0488 18.5636L35.1741 22.6889L31.0488 26.9227L32.7857 28.6597Z" fill="white"/>
<path d="M26.707 15.5239L22.7988 29.9624H25.4043L29.3124 15.5239H26.707Z" fill="white"/>
<path d="M45.4856 45.9209H6.62144L3.79883 43.424H48.3082L45.4856 45.9209Z" fill="#CDD6E0"/>
<path d="M28.9843 42.0127H23.1221C22.7964 42.0127 22.4707 41.687 22.4707 41.3613C22.4707 41.0356 22.7964 40.71 23.1221 40.71H28.9843C29.3099 40.71 29.6356 41.0356 29.6356 41.3613C29.6356 41.687 29.3099 42.0127 28.9843 42.0127Z" fill="#CDD6E0"/>
<path d="M48.3082 43.4238L47.114 44.5094H4.99305L3.79883 43.4238H48.3082Z" fill="#B8C9D8"/>
</svg>
