<svg width="52" height="52" viewBox="0 0 52 52" fill="none" xmlns="http://www.w3.org/2000/svg">
<path d="M19.4805 23.9704C19.4805 24.4181 19.8461 24.7829 20.293 24.7829H49.543C49.9898 24.7829 50.3555 24.4181 50.3555 23.9704V2.03125C50.3555 1.58519 49.9898 1.21875 49.543 1.21875H20.293C19.8461 1.21875 19.4805 1.58519 19.4805 2.03125V23.9704Z" fill="#55BFE9"/>
<path d="M13.793 38.5856V38.5938C13.793 38.5938 12.168 41.8438 8.10547 41.8438C4.04297 41.8438 2.41797 38.5938 2.41797 38.5938V38.5856V35.3356C2.41797 32.2002 4.96109 29.6562 8.10547 29.6562C11.2498 29.6562 13.793 32.2002 13.793 35.3356V38.5856Z" fill="#656D78"/>
<path d="M7.29297 17.4687L8.10547 18.2731L9.73047 17.4606L11.3555 18.2731L12.168 17.4606L9.73047 23.1562L7.29297 17.4687Z" fill="#E6E9ED"/>
<path d="M4.04297 7.82524C8.76359 8.37774 10.6486 6.79337 12.168 6.48462C13.1755 6.27337 14.0205 6.60649 15.418 8.42731V10.149V10.1571C15.418 12.4248 14.0855 14.3829 12.168 15.2848C11.4286 15.6415 10.5998 15.8373 9.73047 15.8373C8.86109 15.8373 8.03234 15.6423 7.29297 15.2848C5.37547 14.3837 4.04297 12.4248 4.04297 10.1571V10.149V7.82524Z" fill="#EAC6BB"/>
<path d="M13.7848 3.17688L12.168 6.47644V6.48456C10.6486 6.79413 8.76359 8.37769 4.04297 7.82519C3.78297 7.79187 3.50672 7.75206 3.23047 7.71062V7.3125C3.23047 3.94956 5.96047 1.21875 9.32422 1.21875C11.0873 1.21875 12.679 1.97438 13.7848 3.17688Z" fill="#FFCE54"/>
<path d="M9.73047 17.4606L8.10547 18.2731L7.29297 17.4687V17.4606V15.2912V15.2831C8.03234 15.6398 8.86109 15.8356 9.73047 15.8356C10.5998 15.8356 11.4286 15.6406 12.168 15.2831V15.2912V17.4606L11.3555 18.2731L9.73047 17.4606Z" fill="#F5F7FA"/>
<path d="M15.418 25.5938H4.04297H0.792969V20.7188C0.792969 18.9239 2.24734 17.4688 4.04297 17.4688H7.29297L9.73047 23.1562L12.168 17.4606L19.4805 17.4688C20.8292 17.4688 21.918 16.38 21.918 15.0312C21.918 14.1302 22.6492 13.4062 23.543 13.4062C24.4367 13.4062 25.168 14.1302 25.168 15.0312C25.168 18.1764 22.6248 20.7188 19.4805 20.7188H15.418V25.5938Z" fill="#656D78"/>
<path d="M50.3555 23.1562C50.8023 23.1562 51.168 23.5227 51.168 23.9688V24.7812C51.168 25.2289 50.8023 25.5938 50.3555 25.5938H22.7305C22.2836 25.5938 21.5523 25.5938 21.1055 25.5938H19.4805C19.0336 25.5938 18.668 25.2289 18.668 24.7812V23.9688C18.668 23.5227 19.0336 23.1562 19.4805 23.1562H50.3555Z" fill="#FFD2A6"/>
<path d="M15.418 8.4264C14.0205 6.6064 13.1755 6.27328 12.168 6.48371V6.47559L13.7848 3.17603C14.8005 4.26478 15.418 5.71184 15.418 7.31165V8.4264Z" fill="#FFCE54"/>
<path d="M21.1055 45.9062H23.543V45.8981L25.9805 46.7106L28.418 45.8981V45.9062H30.8555V45.8981C32.2042 45.8981 33.293 46.9949 33.293 48.3356V50.7812H18.668V48.3356C18.668 46.9949 19.7567 45.8981 21.1055 45.8981V45.9062Z" fill="#E6E9ED"/>
<path d="M28.3945 45.9061H28.4165V45.8979L28.3945 45.9061Z" fill="#8CC152"/>
<path d="M15.418 48.3356V50.7812H0.792969V48.3356C0.792969 46.9949 1.88172 45.8981 3.23047 45.8981V45.9062H5.66797V45.8981H10.543V45.9062H12.9805V45.8981C14.3292 45.8981 15.418 46.9949 15.418 48.3356Z" fill="#E6E9ED"/>
<path d="M33.293 36.1896V44.2813H28.418H23.543H18.668V36.1896C18.668 32.1506 21.9423 28.8771 25.9805 28.8771C30.0186 28.8771 33.293 32.1506 33.293 36.1896Z" fill="#375E7D"/>
<path d="M46.293 43.7287V45.8981H41.418V43.7287V43.7206C42.1573 44.0773 42.9861 44.2731 43.8555 44.2731C44.733 44.2731 45.5536 44.0781 46.293 43.7206V43.7287Z" fill="#F5F7FA"/>
<path d="M28.418 44.2812V45.8981L25.9805 46.7106L23.543 45.8981V44.2812H28.418Z" fill="#EAC6BB"/>
<path d="M47.1055 29.6562V32.0938C48.4542 32.0938 49.5348 33.1744 49.543 34.5231V34.5312V38.5856V38.5938C49.543 38.5938 47.918 41.8438 43.8555 41.8438C39.793 41.8438 38.168 38.5938 38.168 38.5938V38.5856V34.5312V34.5231C38.1761 31.8256 40.3455 29.6562 43.043 29.6562H47.1055Z" fill="#656D78"/>
<path d="M51.168 48.3356V50.7812H36.543V48.3356C36.543 46.9949 37.6317 45.8981 38.9805 45.8981V45.9062H41.418V45.8981H46.293V45.9062H48.7305V45.8981C50.0792 45.8981 51.168 46.9949 51.168 48.3356Z" fill="#E6E9ED"/>
<path d="M43.8555 44.2731C42.9861 44.2731 42.1573 44.0781 41.418 43.7206C39.5005 42.8195 38.168 40.8606 38.168 38.5929C38.168 38.5929 39.793 41.8429 43.8555 41.8429C47.918 41.8429 49.543 38.5929 49.543 38.5929C49.543 40.8606 48.2105 42.8187 46.293 43.7206C45.5528 44.0781 44.733 44.2731 43.8555 44.2731Z" fill="#EAC6BB"/>
<path d="M8.10547 44.2731C7.23609 44.2731 6.40734 44.0781 5.66797 43.7206C3.75047 42.8195 2.41797 40.8606 2.41797 38.5929C2.41797 38.5929 4.04297 41.8429 8.10547 41.8429C12.168 41.8429 13.793 38.5929 13.793 38.5929C13.793 40.8606 12.4605 42.8187 10.543 43.7206C9.80278 44.0781 8.98297 44.2731 8.10547 44.2731Z" fill="#EAC6BB"/>
<path d="M10.543 45.8981H5.66797V43.7287V43.7206C6.40734 44.0773 7.23609 44.2731 8.10547 44.2731C8.98297 44.2731 9.80359 44.0781 10.543 43.7206V43.7287V45.8981Z" fill="#F5F7FA"/>
<path d="M41.418 15.4375H28.418C27.9687 15.4375 27.6055 15.0743 27.6055 14.625C27.6055 14.1757 27.9687 13.8125 28.418 13.8125H41.418C41.8673 13.8125 42.2305 14.1757 42.2305 14.625C42.2305 15.0743 41.8665 15.4375 41.418 15.4375Z" fill="#E6E9ED"/>
<path d="M41.418 12.5938H28.418C27.9687 12.5938 27.6055 12.2306 27.6055 11.7812C27.6055 11.3319 27.9687 10.9688 28.418 10.9688H41.418C41.8673 10.9688 42.2305 11.3319 42.2305 11.7812C42.2305 12.2306 41.8665 12.5938 41.418 12.5938Z" fill="#E6E9ED"/>
<path d="M41.418 9.75H28.418C27.9687 9.75 27.6055 9.38681 27.6055 8.9375C27.6055 8.48819 27.9687 8.125 28.418 8.125H41.418C41.8673 8.125 42.2305 8.48819 42.2305 8.9375C42.2305 9.38681 41.8665 9.75 41.418 9.75Z" fill="#E6E9ED"/>
<path d="M37.3555 17.875H32.4805C32.0312 17.875 31.668 17.5118 31.668 17.0625C31.668 16.6132 32.0312 16.25 32.4805 16.25H37.3555C37.8048 16.25 38.168 16.6132 38.168 17.0625C38.168 17.5118 37.804 17.875 37.3555 17.875Z" fill="#E6E9ED"/>
</svg>
