<svg width="52" height="52" viewBox="0 0 52 52" fill="none" xmlns="http://www.w3.org/2000/svg">
<path fill-rule="evenodd" clip-rule="evenodd" d="M39.4766 12.065L41.8331 16.7224L45.8885 18.0501V4.89955L43.7164 2.70215L39.4766 4.89955V12.065Z" fill="#DDDAEC"/>
<path fill-rule="evenodd" clip-rule="evenodd" d="M39.4773 4.89959H45.8892H46.9332C47.4966 4.89959 47.9563 4.43991 47.9563 3.87939V1.26639C47.9563 0.705867 47.4966 0.246094 46.9332 0.246094H38.4333C37.8698 0.246094 37.4102 0.705766 37.4102 1.26639V3.87929C37.4102 4.43981 37.8698 4.89948 38.4333 4.89948H39.4773V4.89959Z" fill="#375E7D"/>
<path fill-rule="evenodd" clip-rule="evenodd" d="M45.0587 52C45.9336 52 46.6513 51.2823 46.6513 50.4073V25.0287H50.6491C51.4381 25.0376 51.9867 24.7291 51.9986 24.2368V24.2042C51.9927 23.9254 51.8148 23.5873 51.4173 23.2166L45.8892 18.0501L27.54 0.913453C26.8876 0.302555 26.4427 0 26.0008 0C25.556 0 25.1141 0.302555 24.4616 0.913453L0.581242 23.2166C0.183828 23.5873 0.00589062 23.9254 0 24.2042V24.2368C0.0118828 24.7291 0.560523 25.0376 1.34946 25.0287H5.35031V50.4073C5.35031 51.2823 6.06511 52 6.93997 52H45.0587Z" fill="#FBBA58"/>
<path fill-rule="evenodd" clip-rule="evenodd" d="M16.2473 38.0696L14.9275 38.4759C12.0033 39.3775 10.9355 42.2752 10.9355 45.0008V52.0001H16.6357C23.5243 46.7512 16.2473 38.0696 16.2473 38.0696Z" fill="#55BFE9"/>
<path fill-rule="evenodd" clip-rule="evenodd" d="M35.7514 38.0696C35.7514 38.0696 28.6845 44.3797 35.3629 52.0001H41.0631V45.0007C41.0631 42.2721 39.9984 39.3775 37.0712 38.4758L35.7514 38.0696Z" fill="#55BFE9"/>
<path fill-rule="evenodd" clip-rule="evenodd" d="M21.8011 20.0223C21.4452 22.7331 18.257 22.8903 17.2812 23.6407V28.1517C17.2812 28.7271 17.3792 29.3291 17.563 29.9341C18.1591 31.9005 19.648 33.9291 21.546 35.3082C22.2548 35.8213 23.0199 36.2454 23.8148 36.539C24.6066 36.8327 25.3036 36.978 26.0005 36.978C26.6974 36.978 27.3944 36.8327 28.1833 36.539C28.981 36.2454 29.7462 35.8213 30.4521 35.3082C32.3502 33.9291 33.839 31.9005 34.4351 29.9341C34.6189 29.3291 34.7197 28.7271 34.7197 28.1517V23.6407C32.2761 18.5039 25.4697 22.7866 21.8011 20.0223Z" fill="#FFE5C1"/>
<path fill-rule="evenodd" clip-rule="evenodd" d="M17.2816 25.5092C18.2573 24.7588 21.4456 24.6016 21.8014 21.8908C22.3471 20.5651 22.3027 17.0387 20.9799 15.5676C17.7621 16.1311 16.383 18.6165 16.8101 21.8967L17.2816 25.5092Z" fill="#375E7D"/>
<path fill-rule="evenodd" clip-rule="evenodd" d="M21.8004 21.8909C25.4691 24.655 32.2755 20.3725 34.7193 25.5093C35.1998 21.8257 35.3065 18.2489 32.0234 15.4581C28.9894 12.8807 22.4292 12.7858 20.9789 15.5677C20.3294 17.0891 20.359 20.6185 21.8004 21.8909Z" fill="#375E7D"/>
<path d="M29.814 28.447C29.3805 28.447 29.0293 28.0957 29.0293 27.6623V26.9802C29.0293 26.5468 29.3806 26.1956 29.814 26.1956C30.2474 26.1956 30.5986 26.5469 30.5986 26.9802V27.6623C30.5986 28.0957 30.2473 28.447 29.814 28.447Z" fill="#375E7D"/>
<path d="M22.4233 28.447C21.99 28.447 21.6387 28.0957 21.6387 27.6623V26.9802C21.6387 26.5468 21.99 26.1956 22.4233 26.1956C22.8567 26.1956 23.208 26.5469 23.208 26.9802V27.6623C23.2081 28.0957 22.8567 28.447 22.4233 28.447Z" fill="#375E7D"/>
<path d="M26.1183 32.6186C25.4508 32.6186 24.8234 32.3586 24.3509 31.886C24.0445 31.5796 24.0445 31.0827 24.351 30.7762C24.6574 30.4699 25.1543 30.4698 25.4608 30.7763C25.6367 30.9522 25.8703 31.0491 26.1184 31.0491H26.1194C26.3666 31.0488 26.5985 30.9523 26.7727 30.7775C27.0785 30.4703 27.5753 30.4692 27.8825 30.775C28.1895 31.0808 28.1907 31.5778 27.885 31.8849C27.4145 32.3573 26.7882 32.6179 26.1212 32.6186C26.1202 32.6186 26.1192 32.6186 26.1183 32.6186Z" fill="#FFBC85"/>
<path fill-rule="evenodd" clip-rule="evenodd" d="M35.7518 48.2157H16.2461V36.041C16.2461 35.4063 16.768 34.8872 17.4027 34.8872H34.5981C35.2328 34.8872 35.7518 35.4062 35.7518 36.041V48.2157Z" fill="#DDDAEC"/>
<path fill-rule="evenodd" clip-rule="evenodd" d="M30.0989 48.2156H16.2459H15.54C15.2345 48.2156 14.9824 48.4677 14.9824 48.7732V50.2857C14.9824 51.2081 15.7209 51.9643 16.6343 52H35.3631C36.2765 51.9645 37.015 51.2081 37.015 50.2857V48.7732C37.015 48.4677 36.7659 48.2156 36.4574 48.2156H35.7515H30.0989Z" fill="#BEB9DD"/>
<path d="M27.602 42.511H24.396C23.9626 42.511 23.6113 42.1597 23.6113 41.7263C23.6113 41.293 23.9626 40.9417 24.396 40.9417H27.602C28.0355 40.9417 28.3867 41.293 28.3867 41.7263C28.3867 42.1597 28.0354 42.511 27.602 42.511Z" fill="#375E7D"/>
<path fill-rule="evenodd" clip-rule="evenodd" d="M22.1484 3.07257C24.5862 5.47493 26.6771 9.17333 28.2283 13.7407C28.2312 13.7407 28.2312 13.7436 28.2342 13.7436C29.6726 14.0431 31.0338 14.6186 32.0244 15.4579C35.3075 18.2488 35.2007 21.8256 34.7202 25.5091H36.3514C37.1107 25.5091 37.7306 26.1231 37.7306 26.8824V27.6475C37.7306 29.1215 36.2625 29.9194 34.753 29.9342H34.4356C33.9076 31.6752 32.6828 33.4635 31.0932 34.8071C31.0902 34.8338 31.0902 34.8605 31.0902 34.8871H34.5987C35.2333 34.8871 35.7523 35.4061 35.7523 36.0409V38.0695L37.0721 38.4758C39.9994 39.3774 41.064 42.2721 41.064 45.0007V52H45.0589C45.9338 52 46.6515 51.2823 46.6515 50.4073V25.0287H50.6493C51.4382 25.0376 51.9869 24.7291 51.9988 24.2368V24.2042C51.9929 23.9254 51.8149 23.5873 51.4175 23.2166L45.8894 18.0501L39.4774 12.065L27.5402 0.913453C26.8878 0.302555 26.4429 0 26.001 0C25.5562 0 25.1143 0.302555 24.4618 0.913453L22.1484 3.07257Z" fill="#FBBA58"/>
</svg>
