<svg width="52" height="52" viewBox="0 0 52 52" fill="none" xmlns="http://www.w3.org/2000/svg">
<g clip-path="url(#clip0_1177_6381)">
<path d="M38.4158 11.6701V3.62927H13.584V11.6701C13.584 17.3093 17.3438 22.0698 22.4934 23.583C23.5666 23.8983 24.3049 24.8809 24.3049 25.9994V26.0006C24.3049 27.1192 23.5666 28.1018 22.4934 28.4171C17.3438 29.9303 13.584 34.6907 13.584 40.33V48.6611H38.4157V40.33C38.4157 34.6901 34.6551 29.9293 29.5046 28.4166C28.4312 28.1014 27.6927 27.1186 27.6927 26C27.6927 24.8813 28.4313 23.8986 29.5046 23.5835C34.6552 22.0708 38.4158 17.3099 38.4158 11.6701Z" fill="#DDFAFF"/>
<path d="M38.0663 4.38151H13.9322C12.1823 4.38151 10.7637 2.96288 10.7637 1.21296V0H41.2348V1.21296C41.2349 2.96288 39.8162 4.38151 38.0663 4.38151Z" fill="#F2705B"/>
<path d="M34.3312 0V1.11668C34.3312 2.91982 32.8695 4.38151 31.0664 4.38151H37.9705C39.7737 4.38151 41.2354 2.91982 41.2354 1.11668V0L34.3312 0Z" fill="#F2705B"/>
<path d="M13.9322 47.6187H38.0663C39.8162 47.6187 41.2349 49.0373 41.2349 50.7872V52.0002H10.7637V50.7872C10.7637 49.0373 12.1823 47.6187 13.9322 47.6187Z" fill="#F2705B"/>
<path d="M37.9708 47.6185H32.0371C33.8401 47.6185 35.3019 49.0802 35.3019 50.8834V52H41.2356V50.8834C41.2356 49.0803 39.7739 47.6185 37.9708 47.6185Z" fill="#F2705B"/>
<path d="M25.9991 21.0778C20.8618 21.0778 16.6973 16.9133 16.6973 11.776V11.8171C17.5734 12.1928 18.9694 12.66 20.6698 12.6137C25.5093 12.4818 27.6844 8.3297 31.2181 8.86088C32.2496 9.01596 35.0866 9.91784 35.3009 11.8171C35.2994 11.8034 35.3009 11.7897 35.3009 11.776C35.3009 16.9133 31.1363 21.0778 25.9991 21.0778Z" fill="#FFD772"/>
<path d="M25.9987 42.4717C28.8415 42.4717 31.1459 44.7761 31.1459 47.6189V47.5962H20.8516V47.6189C20.8516 44.7761 23.156 42.4717 25.9987 42.4717Z" fill="#FFD772"/>
<path d="M25.9997 20.293C25.5661 20.293 25.2148 20.6444 25.2148 21.0778V23.1912C25.2148 23.6247 25.5661 23.976 25.9997 23.976C26.4333 23.976 26.7846 23.6246 26.7846 23.1912V21.0778C26.7846 20.6444 26.4333 20.293 25.9997 20.293Z" fill="#FFD772"/>
<path d="M25.9997 28.397C25.5661 28.397 25.2148 28.7483 25.2148 29.1818V30.5336C25.2148 30.9672 25.5661 31.3185 25.9997 31.3185C26.4333 31.3185 26.7846 30.9671 26.7846 30.5336V29.1818C26.7846 28.7484 26.4333 28.397 25.9997 28.397Z" fill="#FFD772"/>
<path d="M25.9997 32.6025C25.5661 32.6025 25.2148 32.9539 25.2148 33.3874V33.681C25.2148 34.1146 25.5661 34.4659 25.9997 34.4659C26.4333 34.4659 26.7846 34.1146 26.7846 33.681V33.3874C26.7846 32.9539 26.4333 32.6025 25.9997 32.6025Z" fill="#FFD772"/>
<path d="M25.9997 38.0181C25.5661 38.0181 25.2148 38.3695 25.2148 38.8029V42.4158C25.2148 42.8493 25.5661 43.2007 25.9997 43.2007C26.4333 43.2007 26.7846 42.8493 26.7846 42.4158V38.8029C26.7846 38.3694 26.4333 38.0181 25.9997 38.0181Z" fill="#FFD772"/>
</g>
<defs>
<clipPath id="clip0_1177_6381">
<rect width="52" height="52" fill="white"/>
</clipPath>
</defs>
</svg>
