<svg width="225" height="122" viewBox="0 0 225 122" fill="none" xmlns="http://www.w3.org/2000/svg">
<g filter="url(#filter0_d_346_390)">
<path d="M20 18C20 15.2386 22.2386 13 25 13H200C202.761 13 205 15.2386 205 18V90C205 92.7614 202.761 95 200 95H25C22.2386 95 20 92.7614 20 90V18Z" fill="white"/>
</g>
<path d="M105.272 58.216C103.412 58.216 101.864 57.604 100.628 56.38C99.404 55.144 98.792 53.584 98.792 51.7C98.792 49.816 99.404 48.262 100.628 47.038C101.864 45.802 103.412 45.184 105.272 45.184C106.256 45.184 107.168 45.376 108.008 45.76C108.848 46.144 109.55 46.69 110.114 47.398C110.69 48.106 111.086 48.928 111.302 49.864H109.214C108.914 49.024 108.416 48.37 107.72 47.902C107.024 47.422 106.208 47.182 105.272 47.182C104.012 47.182 102.968 47.608 102.14 48.46C101.312 49.312 100.898 50.398 100.898 51.718C100.898 53.026 101.312 54.106 102.14 54.958C102.968 55.798 104.012 56.218 105.272 56.218C106.232 56.218 107.066 55.966 107.774 55.462C108.482 54.946 108.974 54.244 109.25 53.356H111.356C111.032 54.832 110.318 56.014 109.214 56.902C108.11 57.778 106.796 58.216 105.272 58.216ZM117.483 58.198C116.535 58.198 115.701 58.03 114.981 57.694C114.273 57.358 113.721 56.878 113.325 56.254C112.929 55.618 112.731 54.88 112.731 54.04H114.819C114.819 54.712 115.065 55.246 115.557 55.642C116.061 56.026 116.697 56.218 117.465 56.218C118.161 56.218 118.749 56.05 119.229 55.714C119.709 55.366 119.949 54.916 119.949 54.364C119.949 54.16 119.913 53.974 119.841 53.806C119.781 53.638 119.673 53.494 119.517 53.374C119.373 53.254 119.229 53.152 119.085 53.068C118.953 52.972 118.749 52.882 118.473 52.798C118.209 52.714 117.993 52.654 117.825 52.618C117.657 52.57 117.405 52.504 117.069 52.42C116.697 52.336 116.415 52.27 116.223 52.222C116.031 52.162 115.761 52.078 115.413 51.97C115.077 51.85 114.813 51.736 114.621 51.628C114.441 51.52 114.225 51.376 113.973 51.196C113.721 51.004 113.529 50.806 113.397 50.602C113.277 50.386 113.169 50.128 113.073 49.828C112.977 49.528 112.929 49.192 112.929 48.82C112.929 47.692 113.325 46.81 114.117 46.174C114.921 45.538 115.995 45.22 117.339 45.22C118.707 45.22 119.775 45.568 120.543 46.264C121.311 46.948 121.695 47.884 121.695 49.072H119.643C119.643 48.472 119.421 48.004 118.977 47.668C118.545 47.32 117.987 47.146 117.303 47.146C116.643 47.146 116.091 47.29 115.647 47.578C115.215 47.854 114.999 48.244 114.999 48.748C114.999 48.964 115.053 49.162 115.161 49.342C115.269 49.522 115.395 49.672 115.539 49.792C115.683 49.9 115.899 50.008 116.187 50.116C116.475 50.224 116.715 50.308 116.907 50.368C117.111 50.416 117.405 50.488 117.789 50.584C118.089 50.656 118.311 50.71 118.455 50.746C118.611 50.782 118.833 50.848 119.121 50.944C119.409 51.028 119.631 51.106 119.787 51.178C119.943 51.238 120.141 51.328 120.381 51.448C120.621 51.568 120.807 51.688 120.939 51.808C121.071 51.928 121.215 52.078 121.371 52.258C121.539 52.438 121.665 52.63 121.749 52.834C121.833 53.026 121.905 53.254 121.965 53.518C122.025 53.77 122.055 54.04 122.055 54.328C122.055 55.552 121.623 56.506 120.759 57.19C119.895 57.862 118.803 58.198 117.483 58.198ZM128.399 58.198C127.451 58.198 126.617 58.03 125.897 57.694C125.189 57.358 124.637 56.878 124.241 56.254C123.845 55.618 123.647 54.88 123.647 54.04H125.735C125.735 54.712 125.981 55.246 126.473 55.642C126.977 56.026 127.613 56.218 128.381 56.218C129.077 56.218 129.665 56.05 130.145 55.714C130.625 55.366 130.865 54.916 130.865 54.364C130.865 54.16 130.829 53.974 130.757 53.806C130.697 53.638 130.589 53.494 130.433 53.374C130.289 53.254 130.145 53.152 130.001 53.068C129.869 52.972 129.665 52.882 129.389 52.798C129.125 52.714 128.909 52.654 128.741 52.618C128.573 52.57 128.321 52.504 127.985 52.42C127.613 52.336 127.331 52.27 127.139 52.222C126.947 52.162 126.677 52.078 126.329 51.97C125.993 51.85 125.729 51.736 125.537 51.628C125.357 51.52 125.141 51.376 124.889 51.196C124.637 51.004 124.445 50.806 124.313 50.602C124.193 50.386 124.085 50.128 123.989 49.828C123.893 49.528 123.845 49.192 123.845 48.82C123.845 47.692 124.241 46.81 125.033 46.174C125.837 45.538 126.911 45.22 128.255 45.22C129.623 45.22 130.691 45.568 131.459 46.264C132.227 46.948 132.611 47.884 132.611 49.072H130.559C130.559 48.472 130.337 48.004 129.893 47.668C129.461 47.32 128.903 47.146 128.219 47.146C127.559 47.146 127.007 47.29 126.563 47.578C126.131 47.854 125.915 48.244 125.915 48.748C125.915 48.964 125.969 49.162 126.077 49.342C126.185 49.522 126.311 49.672 126.455 49.792C126.599 49.9 126.815 50.008 127.103 50.116C127.391 50.224 127.631 50.308 127.823 50.368C128.027 50.416 128.321 50.488 128.705 50.584C129.005 50.656 129.227 50.71 129.371 50.746C129.527 50.782 129.749 50.848 130.037 50.944C130.325 51.028 130.547 51.106 130.703 51.178C130.859 51.238 131.057 51.328 131.297 51.448C131.537 51.568 131.723 51.688 131.855 51.808C131.987 51.928 132.131 52.078 132.287 52.258C132.455 52.438 132.581 52.63 132.665 52.834C132.749 53.026 132.821 53.254 132.881 53.518C132.941 53.77 132.971 54.04 132.971 54.328C132.971 55.552 132.539 56.506 131.675 57.19C130.811 57.862 129.719 58.198 128.399 58.198Z" fill="black"/>
<g clip-path="url(#clip0_346_390)">
<path d="M41.021 75.9289L36.353 26.5916H87.6473L82.9747 75.9214L61.9691 81.409L41.021 75.9289Z" fill="#1572B6"/>
<path d="M62.0005 77.2149L78.9743 72.7804L82.9676 30.6255H62.0005V77.2149Z" fill="#33A9DC"/>
<path d="M62.0005 48.5001H70.4978L71.0847 42.3037H62.0005V36.2527H78.1028L77.9487 37.8762L76.3701 54.5511H62.0005V48.5001Z" fill="white"/>
<path d="M62.0388 64.2151L62.0105 64.223L54.8591 62.4035L54.4018 57.5774H47.9565L48.8559 67.0786L62.0095 70.5186L62.0388 70.5108V64.2151Z" fill="#EBEBEB"/>
<path d="M69.9517 54.2954L69.1782 62.3988L62.0161 64.2205V70.5162L75.1805 67.0783L75.277 66.0558L76.3941 54.2954H69.9517Z" fill="white"/>
<path d="M62.0227 36.2527V42.3037H46.5118L46.3832 40.944L46.0907 37.8762L45.937 36.2527H62.0227ZM62.0008 48.5009V54.552H54.9395L54.8109 53.1922L54.5179 50.1245L54.3647 48.5009H62.0008Z" fill="#EBEBEB"/>
</g>
<defs>
<filter id="filter0_d_346_390" x="0" y="0" width="225" height="122" filterUnits="userSpaceOnUse" color-interpolation-filters="sRGB">
<feFlood flood-opacity="0" result="BackgroundImageFix"/>
<feColorMatrix in="SourceAlpha" type="matrix" values="0 0 0 0 0 0 0 0 0 0 0 0 0 0 0 0 0 0 127 0" result="hardAlpha"/>
<feOffset dy="7"/>
<feGaussianBlur stdDeviation="10"/>
<feComposite in2="hardAlpha" operator="out"/>
<feColorMatrix type="matrix" values="0 0 0 0 0.266667 0 0 0 0 0.266667 0 0 0 0 0.266667 0 0 0 0.05 0"/>
<feBlend mode="normal" in2="BackgroundImageFix" result="effect1_dropShadow_346_390"/>
<feBlend mode="normal" in="SourceGraphic" in2="effect1_dropShadow_346_390" result="shape"/>
</filter>
<clipPath id="clip0_346_390">
<rect width="52" height="56" fill="white" transform="translate(36 26)"/>
</clipPath>
</defs>
</svg>
