<svg width="225" height="122" viewBox="0 0 225 122" fill="none" xmlns="http://www.w3.org/2000/svg">
<g filter="url(#filter0_d_346_385)">
<path d="M20 18C20 15.2386 22.2386 13 25 13H200C202.761 13 205 15.2386 205 18V90C205 92.7614 202.761 95 200 95H25C22.2386 95 20 92.7614 20 90V18Z" fill="white"/>
</g>
<path d="M107.432 45.4H109.502V58H107.432V52.51H101.672V58H99.602V45.4H101.672V50.548H107.432V45.4ZM120.942 45.4V47.326H117.234V58H115.182V47.326H111.474V45.4H120.942ZM137.413 58H135.307L133.831 48.874L129.745 57.802H129.223L125.119 48.874L123.643 58H121.537L123.589 45.4H125.623L129.475 53.968L133.327 45.4H135.379L137.413 58ZM141.82 56.074H147.058V58H139.75V45.4H141.82V56.074ZM156.082 50.332C157.306 50.332 158.308 50.704 159.088 51.448C159.88 52.192 160.276 53.122 160.276 54.238C160.276 55.378 159.886 56.326 159.106 57.082C158.326 57.838 157.354 58.216 156.19 58.216C155.038 58.216 154.078 57.856 153.31 57.136C152.554 56.416 152.158 55.498 152.122 54.382H154.066C154.09 54.97 154.3 55.45 154.696 55.822C155.092 56.194 155.59 56.38 156.19 56.38C156.802 56.38 157.306 56.176 157.702 55.768C158.11 55.36 158.314 54.85 158.314 54.238C158.314 54.034 158.284 53.836 158.224 53.644C158.176 53.452 158.104 53.278 158.008 53.122C157.912 52.954 157.792 52.804 157.648 52.672C157.516 52.54 157.366 52.426 157.198 52.33C157.03 52.234 156.844 52.162 156.64 52.114C156.448 52.066 156.238 52.042 156.01 52.042H152.842L152.608 51.772L153.256 46.03H159.448V47.794H154.822L154.552 50.332H156.082Z" fill="black"/>
<path d="M40.7273 76.3125L36 26H88L83.2727 76.3125L61.9424 82" fill="#E34F26"/>
<path d="M62 77.625L79.2946 73.1406L83.3571 30.0469H62" fill="#EF652A"/>
<path d="M62.0002 48.75H53.2949L52.7145 42.4062H62.0002V36.2812H45.5181L47.2591 54.9844H62.0002V48.75ZM61.8841 64.8281L54.5716 62.9688L54.1074 58.0469H47.6074L48.4199 67.7812L61.8841 71.2812V64.8281Z" fill="#EBEBEB"/>
<path d="M61.8838 48.75V54.9844H70.0088L69.1963 62.9688L61.8838 64.8281V71.2812L75.3481 67.7812L77.2052 48.75H61.8838ZM61.8838 36.2812V42.4062H77.7856L78.3659 36.2812H61.8838Z" fill="white"/>
<defs>
<filter id="filter0_d_346_385" x="0" y="0" width="225" height="122" filterUnits="userSpaceOnUse" color-interpolation-filters="sRGB">
<feFlood flood-opacity="0" result="BackgroundImageFix"/>
<feColorMatrix in="SourceAlpha" type="matrix" values="0 0 0 0 0 0 0 0 0 0 0 0 0 0 0 0 0 0 127 0" result="hardAlpha"/>
<feOffset dy="7"/>
<feGaussianBlur stdDeviation="10"/>
<feComposite in2="hardAlpha" operator="out"/>
<feColorMatrix type="matrix" values="0 0 0 0 0.266667 0 0 0 0 0.266667 0 0 0 0 0.266667 0 0 0 0.05 0"/>
<feBlend mode="normal" in2="BackgroundImageFix" result="effect1_dropShadow_346_385"/>
<feBlend mode="normal" in="SourceGraphic" in2="effect1_dropShadow_346_385" result="shape"/>
</filter>
</defs>
</svg>
