<svg width="225" height="122" viewBox="0 0 225 122" fill="none" xmlns="http://www.w3.org/2000/svg">
<g filter="url(#filter0_d_346_402)">
<path d="M20 18C20 15.2386 22.2386 13 25 13H200C202.761 13 205 15.2386 205 18V90C205 92.7614 202.761 95 200 95H25C22.2386 95 20 92.7614 20 90V18Z" fill="white"/>
</g>
<path d="M110.118 56.974C109.29 57.814 108.228 58.234 106.932 58.234C105.636 58.234 104.568 57.814 103.728 56.974C102.888 56.134 102.468 55.066 102.468 53.77V53.428H104.502V53.68C104.502 54.436 104.73 55.054 105.186 55.534C105.642 56.014 106.224 56.254 106.932 56.254C107.628 56.254 108.198 56.014 108.642 55.534C109.086 55.054 109.308 54.436 109.308 53.68V45.4H111.36V53.77C111.36 55.066 110.946 56.134 110.118 56.974ZM122.263 48.28H123.811V58H122.191L121.993 56.812C121.057 57.76 119.887 58.234 118.483 58.234C117.031 58.234 115.819 57.748 114.847 56.776C113.887 55.804 113.407 54.592 113.407 53.14C113.407 51.676 113.887 50.464 114.847 49.504C115.819 48.532 117.031 48.046 118.483 48.046C119.911 48.046 121.093 48.526 122.029 49.486L122.263 48.28ZM116.341 55.426C116.953 56.026 117.715 56.326 118.627 56.326C119.551 56.326 120.307 56.026 120.895 55.426C121.495 54.814 121.795 54.052 121.795 53.14C121.795 52.216 121.495 51.454 120.895 50.854C120.307 50.254 119.551 49.954 118.627 49.954C118.027 49.954 117.481 50.092 116.989 50.368C116.509 50.644 116.131 51.028 115.855 51.52C115.579 52 115.441 52.54 115.441 53.14C115.441 54.052 115.741 54.814 116.341 55.426ZM133.32 48.28H135.372L131.376 58H129.54L125.436 48.28H127.542L130.458 55.498L133.32 48.28ZM144.869 48.28H146.417V58H144.797L144.599 56.812C143.663 57.76 142.493 58.234 141.089 58.234C139.637 58.234 138.425 57.748 137.453 56.776C136.493 55.804 136.013 54.592 136.013 53.14C136.013 51.676 136.493 50.464 137.453 49.504C138.425 48.532 139.637 48.046 141.089 48.046C142.517 48.046 143.699 48.526 144.635 49.486L144.869 48.28ZM138.947 55.426C139.559 56.026 140.321 56.326 141.233 56.326C142.157 56.326 142.913 56.026 143.501 55.426C144.101 54.814 144.401 54.052 144.401 53.14C144.401 52.216 144.101 51.454 143.501 50.854C142.913 50.254 142.157 49.954 141.233 49.954C140.633 49.954 140.087 50.092 139.595 50.368C139.115 50.644 138.737 51.028 138.461 51.52C138.185 52 138.047 52.54 138.047 53.14C138.047 54.052 138.347 54.814 138.947 55.426Z" fill="black"/>
<path d="M56.8326 68.9274C56.8326 68.9274 54.747 70.141 58.3188 70.5505C62.6465 71.0449 64.8581 70.974 69.6259 70.0728C69.6259 70.0728 70.882 70.8581 72.6329 71.5388C61.9408 76.1195 48.4356 71.2733 56.8326 68.9274ZM55.5253 62.949C55.5253 62.949 53.1856 64.681 56.7604 65.0512C61.3834 65.5285 65.0335 65.5674 71.3528 64.3512C71.3528 64.3512 72.2247 65.2371 73.598 65.721C60.6734 69.501 46.2779 66.0185 55.5253 62.949Z" fill="#0074BD"/>
<path d="M66.5386 52.8062C69.1745 55.8402 65.8474 58.5681 65.8474 58.5681C65.8474 58.5681 72.5363 55.1157 69.465 50.7906C66.5955 46.7591 64.3957 44.7566 76.3054 37.8494C76.3054 37.8498 57.6105 42.5175 66.5386 52.8062Z" fill="#EA2D2E"/>
<path d="M80.6791 73.3503C80.6791 73.3503 82.223 74.6234 78.9781 75.6074C72.8084 77.4764 53.2942 78.0399 47.8744 75.6822C45.9271 74.8343 49.5802 73.6587 50.7296 73.4107C51.9279 73.1512 52.6121 73.1985 52.6121 73.1985C50.4452 71.6729 38.6064 76.1954 46.5996 77.4926C68.3962 81.0258 86.332 75.9014 80.6791 73.3503ZM57.8367 56.7537C57.8367 56.7537 47.9116 59.1114 54.3223 59.9685C57.0296 60.3307 62.4239 60.2476 67.4521 59.8259C71.5602 59.4807 75.6828 58.7435 75.6828 58.7435C75.6828 58.7435 74.2356 59.3643 73.1873 60.0792C63.1064 62.7309 43.6368 61.4958 49.2425 58.7851C53.9815 56.493 57.8367 56.7537 57.8367 56.7537ZM75.6417 66.7056C85.8884 61.3825 81.1502 56.2668 77.8432 56.9559C77.0347 57.1243 76.672 57.2709 76.672 57.2709C76.672 57.2709 76.973 56.7988 77.547 56.5958C84.0889 54.2967 89.1193 63.3784 75.4369 66.9755C75.4369 66.9746 75.594 66.8324 75.6417 66.7056Z" fill="#0074BD"/>
<path d="M69.4646 26.6943C69.4646 26.6943 75.1381 32.3713 64.082 41.0981C55.2156 48.1008 62.0603 52.0925 64.079 56.6552C58.9029 51.9858 55.1063 47.8746 57.653 44.0486C61.3927 38.4338 71.7531 35.7103 69.4646 26.6943Z" fill="#EA2D2E"/>
<path d="M58.8436 81.1341C68.6769 81.7628 83.7811 80.7841 84.1385 76.1309C84.1385 76.1309 83.4512 77.8949 76.0111 79.2944C67.6172 80.8747 57.2625 80.6905 51.123 79.6768C51.123 79.6772 52.3809 80.7185 58.8436 81.1341Z" fill="#0074BD"/>
<defs>
<filter id="filter0_d_346_402" x="0" y="0" width="225" height="122" filterUnits="userSpaceOnUse" color-interpolation-filters="sRGB">
<feFlood flood-opacity="0" result="BackgroundImageFix"/>
<feColorMatrix in="SourceAlpha" type="matrix" values="0 0 0 0 0 0 0 0 0 0 0 0 0 0 0 0 0 0 127 0" result="hardAlpha"/>
<feOffset dy="7"/>
<feGaussianBlur stdDeviation="10"/>
<feComposite in2="hardAlpha" operator="out"/>
<feColorMatrix type="matrix" values="0 0 0 0 0.266667 0 0 0 0 0.266667 0 0 0 0 0.266667 0 0 0 0.05 0"/>
<feBlend mode="normal" in2="BackgroundImageFix" result="effect1_dropShadow_346_402"/>
<feBlend mode="normal" in="SourceGraphic" in2="effect1_dropShadow_346_402" result="shape"/>
</filter>
</defs>
</svg>
