<svg width="225" height="122" viewBox="0 0 225 122" fill="none" xmlns="http://www.w3.org/2000/svg">
<g filter="url(#filter0_d_346_391)">
<path d="M20 18C20 15.2386 22.2386 13 25 13H200C202.761 13 205 15.2386 205 18V90C205 92.7614 202.761 95 200 95H25C22.2386 95 20 92.7614 20 90V18Z" fill="white"/>
</g>
<path d="M106.118 56.974C105.29 57.814 104.228 58.234 102.932 58.234C101.636 58.234 100.568 57.814 99.728 56.974C98.888 56.134 98.468 55.066 98.468 53.77V53.428H100.502V53.68C100.502 54.436 100.73 55.054 101.186 55.534C101.642 56.014 102.224 56.254 102.932 56.254C103.628 56.254 104.198 56.014 104.642 55.534C105.086 55.054 105.308 54.436 105.308 53.68V45.4H107.36V53.77C107.36 55.066 106.946 56.134 106.118 56.974ZM118.263 48.28H119.811V58H118.191L117.993 56.812C117.057 57.76 115.887 58.234 114.483 58.234C113.031 58.234 111.819 57.748 110.847 56.776C109.887 55.804 109.407 54.592 109.407 53.14C109.407 51.676 109.887 50.464 110.847 49.504C111.819 48.532 113.031 48.046 114.483 48.046C115.911 48.046 117.093 48.526 118.029 49.486L118.263 48.28ZM112.341 55.426C112.953 56.026 113.715 56.326 114.627 56.326C115.551 56.326 116.307 56.026 116.895 55.426C117.495 54.814 117.795 54.052 117.795 53.14C117.795 52.216 117.495 51.454 116.895 50.854C116.307 50.254 115.551 49.954 114.627 49.954C114.027 49.954 113.481 50.092 112.989 50.368C112.509 50.644 112.131 51.028 111.855 51.52C111.579 52 111.441 52.54 111.441 53.14C111.441 54.052 111.741 54.814 112.341 55.426ZM129.32 48.28H131.372L127.376 58H125.54L121.436 48.28H123.542L126.458 55.498L129.32 48.28ZM140.869 48.28H142.417V58H140.797L140.599 56.812C139.663 57.76 138.493 58.234 137.089 58.234C135.637 58.234 134.425 57.748 133.453 56.776C132.493 55.804 132.013 54.592 132.013 53.14C132.013 51.676 132.493 50.464 133.453 49.504C134.425 48.532 135.637 48.046 137.089 48.046C138.517 48.046 139.699 48.526 140.635 49.486L140.869 48.28ZM134.947 55.426C135.559 56.026 136.321 56.326 137.233 56.326C138.157 56.326 138.913 56.026 139.501 55.426C140.101 54.814 140.401 54.052 140.401 53.14C140.401 52.216 140.101 51.454 139.501 50.854C138.913 50.254 138.157 49.954 137.233 49.954C136.633 49.954 136.087 50.092 135.595 50.368C135.115 50.644 134.737 51.028 134.461 51.52C134.185 52 134.047 52.54 134.047 53.14C134.047 54.052 134.347 54.814 134.947 55.426ZM149.388 58.198C148.44 58.198 147.606 58.03 146.886 57.694C146.178 57.358 145.626 56.878 145.23 56.254C144.834 55.618 144.636 54.88 144.636 54.04H146.724C146.724 54.712 146.97 55.246 147.462 55.642C147.966 56.026 148.602 56.218 149.37 56.218C150.066 56.218 150.654 56.05 151.134 55.714C151.614 55.366 151.854 54.916 151.854 54.364C151.854 54.16 151.818 53.974 151.746 53.806C151.686 53.638 151.578 53.494 151.422 53.374C151.278 53.254 151.134 53.152 150.99 53.068C150.858 52.972 150.654 52.882 150.378 52.798C150.114 52.714 149.898 52.654 149.73 52.618C149.562 52.57 149.31 52.504 148.974 52.42C148.602 52.336 148.32 52.27 148.128 52.222C147.936 52.162 147.666 52.078 147.318 51.97C146.982 51.85 146.718 51.736 146.526 51.628C146.346 51.52 146.13 51.376 145.878 51.196C145.626 51.004 145.434 50.806 145.302 50.602C145.182 50.386 145.074 50.128 144.978 49.828C144.882 49.528 144.834 49.192 144.834 48.82C144.834 47.692 145.23 46.81 146.022 46.174C146.826 45.538 147.9 45.22 149.244 45.22C150.612 45.22 151.68 45.568 152.448 46.264C153.216 46.948 153.6 47.884 153.6 49.072H151.548C151.548 48.472 151.326 48.004 150.882 47.668C150.45 47.32 149.892 47.146 149.208 47.146C148.548 47.146 147.996 47.29 147.552 47.578C147.12 47.854 146.904 48.244 146.904 48.748C146.904 48.964 146.958 49.162 147.066 49.342C147.174 49.522 147.3 49.672 147.444 49.792C147.588 49.9 147.804 50.008 148.092 50.116C148.38 50.224 148.62 50.308 148.812 50.368C149.016 50.416 149.31 50.488 149.694 50.584C149.994 50.656 150.216 50.71 150.36 50.746C150.516 50.782 150.738 50.848 151.026 50.944C151.314 51.028 151.536 51.106 151.692 51.178C151.848 51.238 152.046 51.328 152.286 51.448C152.526 51.568 152.712 51.688 152.844 51.808C152.976 51.928 153.12 52.078 153.276 52.258C153.444 52.438 153.57 52.63 153.654 52.834C153.738 53.026 153.81 53.254 153.87 53.518C153.93 53.77 153.96 54.04 153.96 54.328C153.96 55.552 153.528 56.506 152.664 57.19C151.8 57.862 150.708 58.198 149.388 58.198ZM160.556 58.234C159.116 58.234 157.904 57.748 156.92 56.776C155.948 55.792 155.462 54.58 155.462 53.14C155.462 51.688 155.948 50.476 156.92 49.504C157.904 48.532 159.122 48.046 160.574 48.046C161.762 48.046 162.794 48.382 163.67 49.054C164.546 49.726 165.116 50.62 165.38 51.736H163.4C163.148 51.184 162.77 50.752 162.266 50.44C161.762 50.116 161.192 49.954 160.556 49.954C159.992 49.954 159.476 50.092 159.008 50.368C158.54 50.644 158.168 51.028 157.892 51.52C157.628 52 157.496 52.54 157.496 53.14C157.496 54.04 157.79 54.796 158.378 55.408C158.966 56.02 159.692 56.326 160.556 56.326C161.192 56.326 161.756 56.164 162.248 55.84C162.752 55.516 163.136 55.054 163.4 54.454H165.416C165.14 55.594 164.558 56.512 163.67 57.208C162.794 57.892 161.756 58.234 160.556 58.234ZM172.041 48.226H172.905V50.116H171.861C170.205 50.116 169.377 51.016 169.377 52.816V58H167.379V48.28H168.729L169.071 49.612C169.767 48.688 170.757 48.226 172.041 48.226ZM174.427 46.768V44.716H176.497V46.768H174.427ZM174.463 58V48.28H176.461V58H174.463ZM184.517 48.046C185.477 48.046 186.341 48.268 187.109 48.712C187.877 49.144 188.477 49.75 188.909 50.53C189.341 51.31 189.557 52.18 189.557 53.14C189.557 54.604 189.077 55.822 188.117 56.794C187.169 57.754 185.969 58.234 184.517 58.234C183.269 58.234 182.195 57.844 181.295 57.064V61.492H179.297V48.28H180.647L181.025 49.468C181.961 48.52 183.125 48.046 184.517 48.046ZM182.087 55.426C182.687 56.026 183.443 56.326 184.355 56.326C185.279 56.326 186.041 56.026 186.641 55.426C187.241 54.814 187.541 54.052 187.541 53.14C187.541 52.228 187.241 51.472 186.641 50.872C186.041 50.26 185.285 49.954 184.373 49.954C183.773 49.954 183.227 50.092 182.735 50.368C182.243 50.644 181.859 51.028 181.583 51.52C181.319 52 181.187 52.54 181.187 53.14C181.187 54.052 181.487 54.814 182.087 55.426ZM195.922 56.182H197.02V58H195.544C194.836 58 194.224 57.862 193.708 57.586C193.192 57.31 192.796 56.914 192.52 56.398C192.244 55.87 192.106 55.252 192.106 54.544V49.99H190.36V49.612L193.744 46.012H194.086V48.28H196.966V49.99H194.104V54.382C194.104 54.958 194.26 55.402 194.572 55.714C194.884 56.026 195.334 56.182 195.922 56.182Z" fill="black"/>
<g clip-path="url(#clip0_346_391)">
<path d="M88 25.9917H36L40.8749 76.2989L61.9974 82L83.1198 76.2989L88 25.9917Z" fill="#E6A329"/>
<path d="M75.6123 36.262H49.2986L47.4658 55.0956L47.5036 54.9784H69.8585L69.1304 62.9471L61.9978 64.8998L54.7599 62.9156L54.3264 58.0926H47.7564L48.6936 67.7298L61.9978 71.324L75.3079 67.7298L77.1407 48.8131H53.4156L53.7201 42.5104H70.1808L70.4271 46.1216H77.0526L75.6123 36.262Z" fill="white"/>
<path d="M62.0031 36.262H49.2986L47.4658 55.0956L47.5036 54.9784H62.0024V48.8345H54.3409L54.6454 42.5318H62.0031V36.262ZM54.3409 58.0957H47.7557L48.693 67.728L61.9971 71.3183V64.9086L54.7593 62.9194L54.3409 58.0957Z" fill="#EBEBEB"/>
</g>
<defs>
<filter id="filter0_d_346_391" x="0" y="0" width="225" height="122" filterUnits="userSpaceOnUse" color-interpolation-filters="sRGB">
<feFlood flood-opacity="0" result="BackgroundImageFix"/>
<feColorMatrix in="SourceAlpha" type="matrix" values="0 0 0 0 0 0 0 0 0 0 0 0 0 0 0 0 0 0 127 0" result="hardAlpha"/>
<feOffset dy="7"/>
<feGaussianBlur stdDeviation="10"/>
<feComposite in2="hardAlpha" operator="out"/>
<feColorMatrix type="matrix" values="0 0 0 0 0.266667 0 0 0 0 0.266667 0 0 0 0 0.266667 0 0 0 0.05 0"/>
<feBlend mode="normal" in2="BackgroundImageFix" result="effect1_dropShadow_346_391"/>
<feBlend mode="normal" in="SourceGraphic" in2="effect1_dropShadow_346_391" result="shape"/>
</filter>
<clipPath id="clip0_346_391">
<rect width="52" height="56" fill="white" transform="translate(36 26)"/>
</clipPath>
</defs>
</svg>
