<svg width="143" height="53" viewBox="0 0 143 53" fill="none" xmlns="http://www.w3.org/2000/svg">
<g clip-path="url(#clip0_1549_2071)">
<path d="M47.8452 1.62153C42.9293 -1.96701 36.7002 1.06945 32.3566 4.0369C28.1814 6.90083 24.3093 10.2823 20.8749 14.0779C16.8344 18.5636 13.3663 23.5668 10.7063 28.9497C7.91161 34.6085 5.18427 41.0955 5.35263 47.5135C5.35263 47.686 5.3863 47.8585 5.3863 47.9965C5.41997 48.9972 5.72301 49.9978 6.36275 50.964C8.14731 53.5519 11.3797 53.4138 13.8713 51.9991C17.8445 49.6873 20.8749 45.7882 24.0399 42.5447C30.4711 35.8852 37.1379 29.3982 42.9966 22.1866C46.8351 17.5284 55.2528 7.00434 47.8452 1.62153Z" fill="#FF4F3D"/>
<path d="M75.3551 17.4246C71.2136 13.077 60.1695 13.3185 49.6642 20.6336C45.9941 23.187 42.7281 26.465 39.9334 30.0535C37.004 33.7801 34.041 38.1622 33.1655 42.9585C33.1319 43.0965 33.1319 43.2345 33.1319 43.338C32.7278 47.8927 35.7245 50.4461 39.1589 49.6525C48.0817 47.6167 61.348 39.0594 66.769 34.6082C70.3045 31.8133 80.2037 22.4969 75.3551 17.4246Z" fill="#FF4F3D"/>
<path d="M18.3165 2.62231C17.2391 2.62231 16.1953 3.03638 14.6464 4.55461C13.67 5.58976 12.7272 6.69393 11.9864 7.90161C9.32643 12.2148 11.3467 13.1809 12.5588 13.1464C13.7036 13.1119 16.1953 12.3183 18.7206 9.00578C21.5489 5.34823 20.5051 2.62231 18.3165 2.62231Z" fill="#FF4F3D"/>
<path d="M2.42349 21.9802C-1.81904 23.2569 -0.000812448 29.4334 4.24171 28.1222C8.48424 26.8455 6.69968 20.6345 2.42349 21.9802Z" fill="#FF4F3D"/>
<path d="M142.999 20.0476C142.999 22.0489 141.518 23.5671 139.565 23.5671C137.578 23.5671 136.13 22.0489 136.13 20.0476C136.13 18.0463 137.612 16.5281 139.565 16.5281C141.551 16.5281 142.999 17.9773 142.999 20.0476ZM141.955 20.0476C141.955 18.6329 140.945 17.5977 139.598 17.5977C138.184 17.5977 137.174 18.6329 137.174 20.0476C137.174 21.4623 138.184 22.4975 139.598 22.4975C140.945 22.463 141.955 21.4278 141.955 20.0476ZM140.541 20.5652L141.114 21.6693H140.036L139.565 20.7377H139.262V21.6003H138.252V18.3223H139.801C140.508 18.3223 140.979 18.8399 140.979 19.53C141.013 20.0131 140.844 20.3236 140.541 20.5652ZM139.295 19.9096H139.666C139.868 19.9096 140.036 19.7716 140.036 19.5645C140.036 19.392 139.935 19.2195 139.666 19.2195H139.295V19.9096Z" fill="white"/>
<path d="M31.5823 22.877H35.9258L31.0099 34.4017C30.4711 35.6784 29.9324 36.6445 29.3937 37.3691C28.8549 38.0938 28.2489 38.6113 27.5418 38.9219C26.8347 39.2669 25.9592 39.4395 24.9491 39.4395H23.5686V35.8509H24.6798C25.4542 35.8509 25.9929 35.7129 26.3296 35.4714C26.6663 35.2298 26.9694 34.7122 27.2387 33.9531L22.3901 22.9115H26.7673L29.259 29.5365L31.5823 22.877Z" fill="white"/>
<path d="M42.4574 35.3335C41.2116 35.3335 40.0668 35.0575 39.0566 34.5054C38.0465 33.9533 37.2721 33.1942 36.6997 32.228C36.1273 31.2619 35.8579 30.1577 35.8579 28.9155C35.8579 27.0522 36.464 25.4995 37.7098 24.2918C38.9556 23.0841 40.5382 22.4976 42.4574 22.4976C43.7032 22.4976 44.848 22.7736 45.8581 23.3257C46.8683 23.8778 47.6427 24.6369 48.2151 25.603C48.7875 26.5692 49.0569 27.6733 49.0569 28.9155C49.0569 30.1577 48.7875 31.2619 48.2151 32.228C47.6427 33.1942 46.8683 33.9533 45.8581 34.5054C44.848 35.0575 43.7032 35.3335 42.4574 35.3335ZM40.6392 30.8478C41.1106 31.3654 41.7166 31.6069 42.4574 31.6069C43.1981 31.6069 43.8042 31.3654 44.2756 30.8478C44.747 30.3302 44.9827 29.7091 44.9827 28.9155C44.9827 28.1219 44.747 27.4663 44.2756 26.9832C43.8042 26.4657 43.1981 26.2241 42.4574 26.2241C41.7166 26.2241 41.1106 26.4657 40.6392 26.9832C40.1678 27.5008 39.9321 28.1219 39.9321 28.9155C39.9321 29.7091 40.1678 30.3302 40.6392 30.8478Z" fill="white"/>
<path d="M56.8348 35.3333C55.589 35.3333 54.4442 35.0572 53.4341 34.5051C52.424 33.953 51.6495 33.1939 51.0771 32.2278C50.5047 31.2616 50.2354 30.1575 50.2354 28.9153C50.2354 27.052 50.8414 25.4993 52.0872 24.2916C53.3331 23.0839 54.9156 22.4973 56.8348 22.4973C58.0807 22.4973 59.2255 22.7734 60.2356 23.3254C61.2457 23.8775 62.0201 24.6366 62.5925 25.6028C63.1649 26.5689 63.4343 27.6731 63.4343 28.9153C63.4343 30.1575 63.1649 31.2616 62.5925 32.2278C62.0201 33.1939 61.2457 33.953 60.2356 34.5051C59.1918 35.0572 58.0807 35.3333 56.8348 35.3333ZM54.9829 30.8476C55.4543 31.3652 56.0604 31.6067 56.8012 31.6067C57.5419 31.6067 58.148 31.3652 58.6194 30.8476C59.0908 30.33 59.3265 29.7089 59.3265 28.9153C59.3265 28.1217 59.0908 27.4661 58.6194 26.983C58.148 26.4654 57.5419 26.2239 56.8012 26.2239C56.0604 26.2239 55.4543 26.4654 54.9829 26.983C54.5115 27.5006 54.2759 28.1217 54.2759 28.9153C54.2759 29.7089 54.5115 30.33 54.9829 30.8476Z" fill="white"/>
<path d="M71.1118 35.3333C70.169 35.3333 69.3272 35.1607 68.5191 34.8502C67.711 34.5396 67.0376 34.0911 66.4652 33.5045C65.8928 32.9524 65.4551 32.2623 65.1183 31.4687C64.7816 30.675 64.6133 29.8124 64.6133 28.8808C64.6133 27.0175 65.2194 25.4993 66.4315 24.2916C67.6437 23.0839 69.2262 22.4973 71.1118 22.4973C72.7616 22.4973 74.1421 22.9804 75.2869 23.9465C76.4317 24.9127 77.1052 26.2239 77.3409 27.8111H73.4014C73.233 27.328 72.93 26.914 72.5259 26.6379C72.1219 26.3619 71.6505 26.1894 71.1118 26.1894C70.4047 26.1894 69.7986 26.4309 69.3609 26.9485C68.9231 27.4661 68.6875 28.0872 68.6875 28.8808C68.6875 29.6744 68.9231 30.2955 69.3609 30.8131C69.8323 31.3307 70.4047 31.5722 71.1118 31.5722C71.6505 31.5722 72.1219 31.3997 72.5259 31.0891C72.93 30.7786 73.233 30.33 73.4014 29.8124H77.3745C77.1388 31.4342 76.4654 32.7799 75.2869 33.7805C74.1421 34.8157 72.7616 35.3333 71.1118 35.3333Z" fill="white"/>
<path d="M85.0175 35.3333C83.7716 35.3333 82.6268 35.0572 81.6167 34.5051C80.6066 33.953 79.8321 33.1939 79.2597 32.2278C78.6873 31.2616 78.418 30.1575 78.418 28.9153C78.418 27.052 79.024 25.4993 80.2699 24.2916C81.5157 23.0839 83.0982 22.4973 85.0175 22.4973C86.2633 22.4973 87.4081 22.7734 88.4182 23.3254C89.4283 23.8775 90.2028 24.6366 90.7752 25.6028C91.3476 26.5689 91.6169 27.6731 91.6169 28.9153C91.6169 30.1575 91.3476 31.2616 90.7752 32.2278C90.2028 33.1939 89.4283 33.953 88.4182 34.5051C87.4081 35.0572 86.2969 35.3333 85.0175 35.3333ZM83.1992 30.8476C83.6706 31.3652 84.2767 31.6067 85.0175 31.6067C85.7582 31.6067 86.3643 31.3652 86.8357 30.8476C87.3071 30.33 87.5428 29.7089 87.5428 28.9153C87.5428 28.1217 87.3071 27.4661 86.8357 26.983C86.3643 26.4654 85.7582 26.2239 85.0175 26.2239C84.2767 26.2239 83.6706 26.4654 83.1992 26.983C82.7278 27.5006 82.4921 28.1217 82.4921 28.9153C82.4921 29.7089 82.7278 30.33 83.1992 30.8476Z" fill="white"/>
<path d="M93.5024 34.9193V18.5293H97.5429V34.9193H93.5024Z" fill="white"/>
<path d="M100.07 34.9193V18.5293H104.11V34.9193H100.07Z" fill="white"/>
<path d="M116.163 22.8769H119.193V34.9192H116.062L115.725 34.0566C114.715 34.8847 113.536 35.2987 112.19 35.2987C111.011 35.2987 109.934 35.0227 108.991 34.4706C108.048 33.9185 107.307 33.1594 106.802 32.1933C106.297 31.2271 106.028 30.123 106.028 28.8808C106.028 27.0175 106.6 25.4993 107.745 24.2916C108.89 23.0839 110.371 22.4973 112.19 22.4973C113.57 22.4973 114.782 22.9114 115.792 23.774L116.163 22.8769ZM110.809 30.8476C111.314 31.3652 111.92 31.6412 112.695 31.6412C113.469 31.6412 114.075 31.3652 114.58 30.8476C115.085 30.33 115.321 29.6744 115.321 28.8808C115.321 28.0872 115.085 27.4316 114.58 26.914C114.075 26.3964 113.435 26.1204 112.695 26.1204C111.92 26.1204 111.314 26.3964 110.809 26.914C110.304 27.4316 110.068 28.0872 110.068 28.8808C110.068 29.6744 110.338 30.33 110.809 30.8476Z" fill="white"/>
<path d="M128.655 22.4974C130.474 22.4974 131.955 23.084 133.1 24.2917C134.245 25.4993 134.817 27.0176 134.817 28.9154C134.817 30.7786 134.245 32.3314 133.1 33.5391C131.955 34.7467 130.474 35.3333 128.655 35.3333C127.309 35.3333 126.13 34.9193 125.12 34.0566L124.75 34.9538H121.753V18.5293H125.76V23.3255C126.602 22.7734 127.578 22.4974 128.655 22.4974ZM128.117 31.6413C128.857 31.6413 129.497 31.3652 130.002 30.8477C130.507 30.3301 130.743 29.6745 130.743 28.8809C130.743 28.0872 130.507 27.4316 130.002 26.9141C129.497 26.3965 128.857 26.1204 128.117 26.1204C127.342 26.1204 126.736 26.3965 126.231 26.9141C125.726 27.4316 125.49 28.0872 125.49 28.8809C125.49 29.6745 125.726 30.3301 126.231 30.8477C126.736 31.3997 127.342 31.6413 128.117 31.6413Z" fill="white"/>
</g>
<defs>
<clipPath id="clip0_1549_2071">
<rect width="143" height="53" fill="white"/>
</clipPath>
</defs>
</svg>
