<svg width="163" height="59" viewBox="0 0 163 59" fill="none" xmlns="http://www.w3.org/2000/svg">
<path d="M54.5378 1.80513C48.9343 -2.18966 41.834 1.19055 36.883 4.49393C32.1239 7.68208 27.7102 11.4464 23.7954 15.6717C19.1898 20.6652 15.2366 26.2348 12.2046 32.227C9.01908 38.5265 5.9103 45.7478 6.1022 52.8924C6.1022 53.0844 6.14058 53.2765 6.14058 53.4301C6.17896 54.5441 6.52438 55.658 7.2536 56.7335C9.28774 59.6144 12.9722 59.4607 15.8123 57.8859C20.3412 55.3123 23.7954 50.9718 27.4031 47.3611C34.7337 39.9477 42.333 32.7264 49.0111 24.6984C53.3864 19.5128 62.9814 7.79732 54.5378 1.80513Z" fill="#FF4F3D"/>
<path d="M85.894 19.3974C81.1732 14.5575 68.5846 14.8264 56.61 22.9696C52.4266 25.8121 48.7037 29.4612 45.5182 33.4559C42.1791 37.6044 38.8017 42.4826 37.8038 47.8218C37.7654 47.9755 37.7654 48.1291 37.7654 48.2444C37.3048 53.3147 40.7207 56.1571 44.6354 55.2737C54.8061 53.0074 69.9279 43.4813 76.1071 38.5263C80.137 35.4149 91.4207 25.0438 85.894 19.3974Z" fill="#FF4F3D"/>
<path d="M20.8781 2.91928C19.65 2.91928 18.4602 3.38022 16.6947 5.07032C15.5817 6.22267 14.5071 7.45183 13.6627 8.79623C10.6307 13.5977 12.9335 14.6732 14.3152 14.6348C15.6201 14.5964 18.4602 13.7129 21.3387 10.0254C24.5626 5.95379 23.3728 2.91928 20.8781 2.91928Z" fill="#FF4F3D"/>
<path d="M2.76316 24.4686C-2.07272 25.8898 -0.000202191 32.7655 4.83568 31.3059C9.67157 29.8846 7.63742 22.9706 2.76316 24.4686Z" fill="#FF4F3D"/>
<path d="M163 22.3171C163 24.5449 161.311 26.235 159.085 26.235C156.821 26.235 155.17 24.5449 155.17 22.3171C155.17 20.0892 156.859 18.3991 159.085 18.3991C161.35 18.3991 163 20.0124 163 22.3171ZM161.81 22.3171C161.81 20.7422 160.659 19.5899 159.124 19.5899C157.512 19.5899 156.36 20.7422 156.36 22.3171C156.36 23.8919 157.512 25.0443 159.124 25.0443C160.659 25.0059 161.81 23.8535 161.81 22.3171ZM160.198 22.8932L160.851 24.1224H159.623L159.085 23.0853H158.74V24.0456H157.588V20.3965H159.354C160.16 20.3965 160.697 20.9727 160.697 21.7409C160.736 22.2787 160.544 22.6244 160.198 22.8932ZM158.778 22.1634H159.2C159.431 22.1634 159.623 22.0098 159.623 21.7793C159.623 21.5873 159.507 21.3952 159.2 21.3952H158.778V22.1634Z" fill="black"/>
<path d="M36.0002 25.4668H40.9512L35.3478 38.2962C34.7337 39.7174 34.1196 40.793 33.5055 41.5996C32.8914 42.4063 32.2006 42.9824 31.3946 43.3281C30.5886 43.7122 29.5907 43.9043 28.4393 43.9043H26.8658V39.9095H28.1323C29.015 39.9095 29.6291 39.7559 30.0129 39.487C30.3967 39.2181 30.7421 38.6419 31.0492 37.7969L25.5225 25.5052H30.5119L33.352 32.8802L36.0002 25.4668Z" fill="black"/>
<path d="M48.3965 39.3333C46.9764 39.3333 45.6715 39.0261 44.5201 38.4115C43.3687 37.7969 42.486 36.9518 41.8335 35.8763C41.1811 34.8008 40.874 33.5716 40.874 32.1888C40.874 30.1146 41.5649 28.3861 42.9849 27.0417C44.405 25.6973 46.2088 25.0443 48.3965 25.0443C49.8166 25.0443 51.1215 25.3516 52.2729 25.9662C53.4243 26.5807 54.307 27.4258 54.9595 28.5013C55.612 29.5768 55.919 30.806 55.919 32.1888C55.919 33.5716 55.612 34.8008 54.9595 35.8763C54.307 36.9518 53.4243 37.7969 52.2729 38.4115C51.1215 39.0261 49.8166 39.3333 48.3965 39.3333ZM46.324 34.3399C46.8613 34.916 47.5521 35.1849 48.3965 35.1849C49.2409 35.1849 49.9317 34.916 50.469 34.3399C51.0063 33.7637 51.275 33.0723 51.275 32.1888C51.275 31.3054 51.0063 30.5755 50.469 30.0378C49.9317 29.4616 49.2409 29.1927 48.3965 29.1927C47.5521 29.1927 46.8613 29.4616 46.324 30.0378C45.7867 30.6139 45.518 31.3054 45.518 32.1888C45.518 33.0723 45.7867 33.7637 46.324 34.3399Z" fill="black"/>
<path d="M64.7847 39.3333C63.3646 39.3333 62.0597 39.0261 60.9083 38.4115C59.7569 37.7969 58.8742 36.9518 58.2217 35.8763C57.5692 34.8008 57.2622 33.5716 57.2622 32.1888C57.2622 30.1146 57.953 28.3861 59.3731 27.0417C60.7932 25.6973 62.597 25.0443 64.7847 25.0443C66.2048 25.0443 67.5097 25.3516 68.6611 25.9662C69.8125 26.5807 70.6952 27.4258 71.3477 28.5013C72.0001 29.5768 72.3072 30.806 72.3072 32.1888C72.3072 33.5716 72.0001 34.8008 71.3477 35.8763C70.6952 36.9518 69.8125 37.7969 68.6611 38.4115C67.4713 39.0261 66.2048 39.3333 64.7847 39.3333ZM62.6738 34.3399C63.2111 34.916 63.902 35.1849 64.7463 35.1849C65.5907 35.1849 66.2815 34.916 66.8188 34.3399C67.3562 33.7637 67.6248 33.0723 67.6248 32.1888C67.6248 31.3054 67.3562 30.5755 66.8188 30.0378C66.2815 29.4616 65.5907 29.1927 64.7463 29.1927C63.902 29.1927 63.2111 29.4616 62.6738 30.0378C62.1365 30.6139 61.8678 31.3054 61.8678 32.1888C61.8678 33.0723 62.1365 33.7637 62.6738 34.3399Z" fill="black"/>
<path d="M81.0577 39.3333C79.9831 39.3333 79.0236 39.1413 78.1025 38.7956C77.1814 38.4499 76.4138 37.9505 75.7613 37.2975C75.1088 36.683 74.6099 35.9147 74.2261 35.0313C73.8423 34.1478 73.6504 33.1875 73.6504 32.1504C73.6504 30.0762 74.3412 28.3861 75.7229 27.0417C77.1046 25.6973 78.9085 25.0443 81.0577 25.0443C82.9384 25.0443 84.5119 25.582 85.8169 26.6576C87.1218 27.7331 87.8894 29.1927 88.158 30.9596H83.6676C83.4757 30.4219 83.1303 29.9609 82.6697 29.6537C82.2091 29.3464 81.6718 29.1543 81.0577 29.1543C80.2518 29.1543 79.5609 29.4232 79.062 29.9994C78.563 30.5755 78.2944 31.2669 78.2944 32.1504C78.2944 33.0339 78.563 33.7253 79.062 34.3014C79.5993 34.8776 80.2518 35.1465 81.0577 35.1465C81.6718 35.1465 82.2091 34.9544 82.6697 34.6087C83.1303 34.263 83.4757 33.7637 83.6676 33.1875H88.1964C87.9278 34.9929 87.1602 36.4909 85.8169 37.6048C84.5119 38.7572 82.9384 39.3333 81.0577 39.3333Z" fill="black"/>
<path d="M96.9092 39.3333C95.4891 39.3333 94.1842 39.0261 93.0328 38.4115C91.8814 37.7969 90.9987 36.9518 90.3462 35.8763C89.6938 34.8008 89.3867 33.5716 89.3867 32.1888C89.3867 30.1146 90.0776 28.3861 91.4976 27.0417C92.9177 25.6973 94.7215 25.0443 96.9092 25.0443C98.3293 25.0443 99.6342 25.3516 100.786 25.9662C101.937 26.5807 102.82 27.4258 103.472 28.5013C104.125 29.5768 104.432 30.806 104.432 32.1888C104.432 33.5716 104.125 34.8008 103.472 35.8763C102.82 36.9518 101.937 37.7969 100.786 38.4115C99.6342 39.0261 98.3676 39.3333 96.9092 39.3333ZM94.8367 34.3399C95.374 34.916 96.0648 35.1849 96.9092 35.1849C97.7536 35.1849 98.4444 34.916 98.9817 34.3399C99.519 33.7637 99.7877 33.0723 99.7877 32.1888C99.7877 31.3054 99.519 30.5755 98.9817 30.0378C98.4444 29.4616 97.7536 29.1927 96.9092 29.1927C96.0648 29.1927 95.374 29.4616 94.8367 30.0378C94.2994 30.6139 94.0307 31.3054 94.0307 32.1888C94.0307 33.0723 94.2994 33.7637 94.8367 34.3399Z" fill="black"/>
<path d="M106.581 38.8724V20.627H111.186V38.8724H106.581Z" fill="black"/>
<path d="M114.066 38.8724V20.627H118.672V38.8724H114.066Z" fill="black"/>
<path d="M132.411 25.4668H135.865V38.8724H132.296L131.912 37.9121C130.76 38.834 129.417 39.2949 127.882 39.2949C126.539 39.2949 125.31 38.9876 124.236 38.3731C123.161 37.7585 122.317 36.9134 121.741 35.8379C121.165 34.7624 120.858 33.5332 120.858 32.1504C120.858 30.0762 121.511 28.3861 122.816 27.0417C124.121 25.6973 125.809 25.0443 127.882 25.0443C129.456 25.0443 130.837 25.5052 131.989 26.4655L132.411 25.4668ZM126.308 34.3399C126.884 34.916 127.575 35.2233 128.458 35.2233C129.34 35.2233 130.031 34.916 130.607 34.3399C131.183 33.7637 131.451 33.0339 131.451 32.1504C131.451 31.2669 131.183 30.5371 130.607 29.9609C130.031 29.3848 129.302 29.0775 128.458 29.0775C127.575 29.0775 126.884 29.3848 126.308 29.9609C125.733 30.5371 125.464 31.2669 125.464 32.1504C125.464 33.0339 125.771 33.7637 126.308 34.3399Z" fill="black"/>
<path d="M146.65 25.0443C148.723 25.0443 150.411 25.6973 151.716 27.0417C153.021 28.3861 153.674 30.0762 153.674 32.1888C153.674 34.263 153.021 35.9915 151.716 37.3359C150.411 38.6803 148.723 39.3333 146.65 39.3333C145.115 39.3333 143.772 38.8724 142.62 37.9121L142.198 38.9108H138.782V20.627H143.349V25.9661C144.309 25.3516 145.422 25.0443 146.65 25.0443ZM146.036 35.2233C146.88 35.2233 147.61 34.916 148.185 34.3398C148.761 33.7637 149.03 33.0339 149.03 32.1504C149.03 31.2669 148.761 30.5371 148.185 29.9609C147.61 29.3848 146.88 29.0775 146.036 29.0775C145.153 29.0775 144.462 29.3848 143.887 29.9609C143.311 30.5371 143.042 31.2669 143.042 32.1504C143.042 33.0339 143.311 33.7637 143.887 34.3398C144.462 34.9544 145.153 35.2233 146.036 35.2233Z" fill="black"/>
</svg>
