<svg width="225" height="122" viewBox="0 0 225 122" fill="none" xmlns="http://www.w3.org/2000/svg">
<g filter="url(#filter0_d_346_419)">
<path d="M20 18C20 15.2386 22.2386 13 25 13H200C202.761 13 205 15.2386 205 18V90C205 92.7614 202.761 95 200 95H25C22.2386 95 20 92.7614 20 90V18Z" fill="white"/>
</g>
<path d="M111.882 45.4H113.916V58H112.17L105.636 49V58H103.602V45.4H105.474L111.882 54.256V45.4ZM124.989 56.794C124.005 57.754 122.769 58.234 121.281 58.234C119.793 58.234 118.551 57.754 117.555 56.794C116.571 55.822 116.079 54.604 116.079 53.14C116.079 52.18 116.301 51.31 116.745 50.53C117.201 49.75 117.825 49.144 118.617 48.712C119.421 48.268 120.309 48.046 121.281 48.046C122.253 48.046 123.135 48.268 123.927 48.712C124.731 49.144 125.355 49.75 125.799 50.53C126.255 51.31 126.483 52.18 126.483 53.14C126.483 54.604 125.985 55.822 124.989 56.794ZM121.281 56.326C121.893 56.326 122.439 56.194 122.919 55.93C123.399 55.654 123.771 55.276 124.035 54.796C124.311 54.304 124.449 53.752 124.449 53.14C124.449 52.216 124.149 51.454 123.549 50.854C122.961 50.254 122.205 49.954 121.281 49.954C120.357 49.954 119.595 50.254 118.995 50.854C118.407 51.454 118.113 52.216 118.113 53.14C118.113 54.064 118.407 54.826 118.995 55.426C119.595 56.026 120.357 56.326 121.281 56.326ZM136.153 44.788H138.151V58H136.639L136.387 56.902C135.451 57.79 134.305 58.234 132.949 58.234C131.485 58.234 130.273 57.754 129.313 56.794C128.365 55.822 127.891 54.604 127.891 53.14C127.891 51.676 128.365 50.464 129.313 49.504C130.273 48.532 131.485 48.046 132.949 48.046C134.185 48.046 135.253 48.424 136.153 49.18V44.788ZM130.843 55.426C131.443 56.026 132.199 56.326 133.111 56.326C134.023 56.326 134.779 56.026 135.379 55.426C135.991 54.814 136.297 54.052 136.297 53.14C136.297 52.54 136.159 52 135.883 51.52C135.607 51.028 135.223 50.644 134.731 50.368C134.251 50.092 133.711 49.954 133.111 49.954C132.511 49.954 131.965 50.092 131.473 50.368C130.993 50.644 130.615 51.028 130.339 51.52C130.075 52 129.943 52.54 129.943 53.14C129.943 54.052 130.243 54.814 130.843 55.426ZM150.238 53.158C150.238 53.338 150.226 53.56 150.202 53.824H142.318C142.438 54.604 142.762 55.222 143.29 55.678C143.83 56.134 144.496 56.362 145.288 56.362C145.672 56.362 146.032 56.308 146.368 56.2C146.704 56.08 146.998 55.918 147.25 55.714C147.514 55.498 147.73 55.24 147.898 54.94H150.004C149.62 55.972 149.008 56.782 148.168 57.37C147.328 57.946 146.368 58.234 145.288 58.234C143.86 58.234 142.666 57.748 141.706 56.776C140.758 55.804 140.284 54.592 140.284 53.14C140.284 51.688 140.758 50.476 141.706 49.504C142.666 48.532 143.86 48.046 145.288 48.046C146.26 48.046 147.124 48.28 147.88 48.748C148.636 49.204 149.218 49.822 149.626 50.602C150.034 51.37 150.238 52.222 150.238 53.158ZM145.288 49.846C144.544 49.846 143.908 50.056 143.38 50.476C142.864 50.896 142.522 51.472 142.354 52.204H148.24C148.12 51.712 147.922 51.292 147.646 50.944C147.37 50.584 147.028 50.314 146.62 50.134C146.224 49.942 145.78 49.846 145.288 49.846ZM163.063 56.974C162.235 57.814 161.173 58.234 159.877 58.234C158.581 58.234 157.513 57.814 156.673 56.974C155.833 56.134 155.413 55.066 155.413 53.77V53.428H157.447V53.68C157.447 54.436 157.675 55.054 158.131 55.534C158.587 56.014 159.169 56.254 159.877 56.254C160.573 56.254 161.143 56.014 161.587 55.534C162.031 55.054 162.253 54.436 162.253 53.68V45.4H164.305V53.77C164.305 55.066 163.891 56.134 163.063 56.974ZM171.317 58.198C170.369 58.198 169.535 58.03 168.815 57.694C168.107 57.358 167.555 56.878 167.159 56.254C166.763 55.618 166.565 54.88 166.565 54.04H168.653C168.653 54.712 168.899 55.246 169.391 55.642C169.895 56.026 170.531 56.218 171.299 56.218C171.995 56.218 172.583 56.05 173.063 55.714C173.543 55.366 173.783 54.916 173.783 54.364C173.783 54.16 173.747 53.974 173.675 53.806C173.615 53.638 173.507 53.494 173.351 53.374C173.207 53.254 173.063 53.152 172.919 53.068C172.787 52.972 172.583 52.882 172.307 52.798C172.043 52.714 171.827 52.654 171.659 52.618C171.491 52.57 171.239 52.504 170.903 52.42C170.531 52.336 170.249 52.27 170.057 52.222C169.865 52.162 169.595 52.078 169.247 51.97C168.911 51.85 168.647 51.736 168.455 51.628C168.275 51.52 168.059 51.376 167.807 51.196C167.555 51.004 167.363 50.806 167.231 50.602C167.111 50.386 167.003 50.128 166.907 49.828C166.811 49.528 166.763 49.192 166.763 48.82C166.763 47.692 167.159 46.81 167.951 46.174C168.755 45.538 169.829 45.22 171.173 45.22C172.541 45.22 173.609 45.568 174.377 46.264C175.145 46.948 175.529 47.884 175.529 49.072H173.477C173.477 48.472 173.255 48.004 172.811 47.668C172.379 47.32 171.821 47.146 171.137 47.146C170.477 47.146 169.925 47.29 169.481 47.578C169.049 47.854 168.833 48.244 168.833 48.748C168.833 48.964 168.887 49.162 168.995 49.342C169.103 49.522 169.229 49.672 169.373 49.792C169.517 49.9 169.733 50.008 170.021 50.116C170.309 50.224 170.549 50.308 170.741 50.368C170.945 50.416 171.239 50.488 171.623 50.584C171.923 50.656 172.145 50.71 172.289 50.746C172.445 50.782 172.667 50.848 172.955 50.944C173.243 51.028 173.465 51.106 173.621 51.178C173.777 51.238 173.975 51.328 174.215 51.448C174.455 51.568 174.641 51.688 174.773 51.808C174.905 51.928 175.049 52.078 175.205 52.258C175.373 52.438 175.499 52.63 175.583 52.834C175.667 53.026 175.739 53.254 175.799 53.518C175.859 53.77 175.889 54.04 175.889 54.328C175.889 55.552 175.457 56.506 174.593 57.19C173.729 57.862 172.637 58.198 171.317 58.198Z" fill="black"/>
<path d="M57.9637 75.0628C56.5287 75.8934 56.2557 75.9961 54.9047 76.4721C54.578 76.5841 54.0833 76.7824 55.0937 77.3611L61.858 81.4164C62.502 81.7968 63.251 81.9951 63.9837 81.9951L63.9883 81.9998C64.735 81.9998 65.4677 81.7991 66.1163 81.4211L86.3743 69.5771C87.688 68.7978 88.5 67.3651 88.5 65.8298V42.1511C88.5 40.6064 87.6903 39.1738 86.3743 38.4084L66.1163 26.5504C64.8423 25.8201 63.1437 25.8201 61.8603 26.5504L41.6257 38.3968C40.312 39.1644 39.5 40.6064 39.5 42.1394V65.8204C39.5 67.3651 40.3097 68.7978 41.6257 69.5631L46.934 72.6641C49.503 73.9521 50.4223 73.9521 51.5937 73.9521C55.3993 73.9521 57.5927 71.6188 57.5927 67.5518V44.1648C57.5927 43.8311 57.3197 43.5768 57 43.5768H54.4357C54.1043 43.5768 53.843 43.8311 53.843 44.1648V67.5401C53.843 69.3508 51.9997 71.1404 48.985 69.6191L43.434 66.3758C43.2403 66.2778 43.1167 66.0538 43.1167 65.8298V42.1511C43.1167 41.9224 43.2403 41.6984 43.434 41.5864L63.6687 29.7401H64.2917L84.538 41.5748C84.734 41.6961 84.8553 41.9061 84.8553 42.1394V65.8298C84.8553 66.0514 84.7363 66.2731 84.5497 66.3828L64.2917 78.2291H63.6687L58.47 75.1094L57.9637 75.0628Z" fill="#8CC03E"/>
<path d="M57.9637 75.063C56.5287 75.8937 56.2557 75.9963 54.9047 76.4723C54.578 76.5843 54.0833 76.7827 55.0937 77.3613L61.858 81.4167C62.502 81.797 63.251 81.9953 63.9837 81.9953L63.9883 82C63.993 82 63.9953 82 64 82V78.2317H63.6687L58.47 75.1097L57.9637 75.063ZM63.993 26C63.2487 26 62.502 26.182 61.8603 26.5483L41.6257 38.397C40.312 39.1647 39.5 40.6067 39.5 42.1397V65.8207C39.5 67.3653 40.3097 68.798 41.6257 69.5633L46.934 72.6643C49.503 73.9523 50.4223 73.9523 51.5937 73.9523C55.3993 73.9523 57.5927 71.619 57.5927 67.552V44.165C57.5927 43.8313 57.3197 43.577 57 43.577H54.4357C54.1043 43.577 53.843 43.8313 53.843 44.165V67.5403C53.843 68.8727 52.8467 70.1933 51.12 70.1933C50.4993 70.1933 49.783 70.023 48.985 69.6193L43.434 66.376C43.2403 66.278 43.1167 66.054 43.1167 65.83V42.1513C43.1167 41.9227 43.2403 41.6987 43.434 41.5867L63.6687 29.7403H64V26C63.9977 26 63.9953 26 63.993 26Z" fill="#7AA736"/>
<path d="M70.2392 62.0967C64.8749 62.0967 63.7012 60.7271 63.3092 58.0274C63.2649 57.7381 63.0222 57.5281 62.7282 57.5281H60.1079C59.7765 57.5281 59.5269 57.7917 59.5269 58.1161C59.5269 61.5741 61.3819 65.6947 70.2532 65.6947C76.6559 65.6807 80.3449 63.1164 80.3449 58.6481L80.3379 58.6504C80.3379 54.2171 77.3769 53.0411 71.1562 52.2034C64.8609 51.3611 64.2262 50.9271 64.2262 49.4361C64.2262 48.2041 64.7652 46.5591 69.4272 46.5591C73.5829 46.5591 75.1205 47.4714 75.7552 50.3134C75.8089 50.5817 76.0539 50.7801 76.3269 50.7801H78.9589L79.3882 50.5911L79.5399 50.1361C79.1362 45.2361 75.9209 42.9587 69.4295 42.9587C63.6522 42.9587 60.2059 45.4274 60.2059 49.5714C60.2059 54.0607 63.6382 55.3044 69.1775 55.8574C75.8135 56.5154 76.3269 57.5047 76.3269 58.8277C76.3269 61.1191 74.5069 62.0967 70.2392 62.0967Z" fill="#8CC03E"/>
<path d="M62.7282 57.5279H60.1079C59.7765 57.5279 59.5269 57.7916 59.5269 58.1159C59.5269 61.5319 61.3375 65.5966 69.9359 65.6923V62.0943C64.8305 62.0429 63.6942 60.6733 63.3092 58.0249C63.2649 57.7356 63.0222 57.5279 62.7282 57.5279ZM69.4295 42.9609C63.6522 42.9609 60.2059 45.4296 60.2059 49.5736C60.2059 54.0629 63.6382 55.3066 69.1775 55.8596C69.4389 55.8853 69.6932 55.9109 69.9359 55.9389V52.0353C64.7769 51.2956 64.2285 50.8243 64.2285 49.4383C64.2285 48.2063 64.7675 46.5613 69.4295 46.5613C69.6045 46.5613 69.7725 46.5636 69.9382 46.5659V42.9656C69.7702 42.9609 69.5999 42.9609 69.4295 42.9609Z" fill="#7AA736"/>
<defs>
<filter id="filter0_d_346_419" x="0" y="0" width="225" height="122" filterUnits="userSpaceOnUse" color-interpolation-filters="sRGB">
<feFlood flood-opacity="0" result="BackgroundImageFix"/>
<feColorMatrix in="SourceAlpha" type="matrix" values="0 0 0 0 0 0 0 0 0 0 0 0 0 0 0 0 0 0 127 0" result="hardAlpha"/>
<feOffset dy="7"/>
<feGaussianBlur stdDeviation="10"/>
<feComposite in2="hardAlpha" operator="out"/>
<feColorMatrix type="matrix" values="0 0 0 0 0.266667 0 0 0 0 0.266667 0 0 0 0 0.266667 0 0 0 0.05 0"/>
<feBlend mode="normal" in2="BackgroundImageFix" result="effect1_dropShadow_346_419"/>
<feBlend mode="normal" in="SourceGraphic" in2="effect1_dropShadow_346_419" result="shape"/>
</filter>
</defs>
</svg>
