<svg width="24" height="24" viewBox="0 0 24 24" fill="none" xmlns="http://www.w3.org/2000/svg">
<path d="M20.484 3.51332C15.797 -1.17226 8.19902 -1.17114 3.51344 3.5159C-1.17214 8.20293 -1.17101 15.8009 3.51602 20.4865C8.20305 25.1721 15.801 25.1709 20.4866 20.4839C22.7369 18.2329 24.0007 15.1802 24 11.9973C23.9994 8.81497 22.7346 5.76322 20.484 3.51332ZM18.1736 16.7158C18.1731 16.7163 18.1726 16.7168 18.172 16.7173V16.7134L17.564 17.3173C16.7777 18.1136 15.6325 18.4412 14.544 18.1813C13.4473 17.8878 12.4048 17.4206 11.456 16.7974C10.5745 16.234 9.75752 15.5754 9.01999 14.8333C8.34138 14.1597 7.73172 13.42 7.19997 12.6253C6.61835 11.7703 6.15799 10.8388 5.83197 9.85733C5.45824 8.7044 5.76794 7.43929 6.63199 6.58935L7.34397 5.87736C7.54192 5.67852 7.86358 5.67782 8.06238 5.87577C8.06289 5.87629 8.06345 5.8768 8.06397 5.87736L10.312 8.12535C10.5108 8.3233 10.5115 8.64496 10.3135 8.84376C10.313 8.84427 10.3125 8.84479 10.312 8.84535L8.99195 10.1653C8.6132 10.54 8.56558 11.1353 8.87997 11.5654C9.35739 12.2206 9.88572 12.8371 10.46 13.4094C11.1003 14.0524 11.7963 14.6374 12.54 15.1574C12.9697 15.4571 13.5522 15.4066 13.924 15.0374L15.1999 13.7414C15.3979 13.5426 15.7195 13.5418 15.9183 13.7398C15.9189 13.7403 15.9194 13.7408 15.9199 13.7414L18.172 15.9974C18.3708 16.1953 18.3715 16.5169 18.1736 16.7158Z" fill="#FF4F3D"/>
</svg>
