<svg width="225" height="122" viewBox="0 0 225 122" fill="none" xmlns="http://www.w3.org/2000/svg">
<g filter="url(#filter0_d_346_394)">
<path d="M20 18C20 15.2386 22.2386 13 25 13H200C202.761 13 205 15.2386 205 18V90C205 92.7614 202.761 95 200 95H25C22.2386 95 20 92.7614 20 90V18Z" fill="white"/>
</g>
<path d="M108.264 45.4C109.068 45.4 109.794 45.58 110.442 45.94C111.102 46.3 111.618 46.798 111.99 47.434C112.362 48.07 112.548 48.778 112.548 49.558C112.548 50.746 112.14 51.736 111.324 52.528C110.508 53.32 109.488 53.716 108.264 53.716H105.672V58H103.602V45.4H108.264ZM108.156 51.754C108.492 51.754 108.798 51.7 109.074 51.592C109.362 51.484 109.608 51.334 109.812 51.142C110.016 50.95 110.172 50.716 110.28 50.44C110.4 50.164 110.46 49.87 110.46 49.558C110.46 49.138 110.358 48.766 110.154 48.442C109.962 48.106 109.692 47.842 109.344 47.65C108.996 47.458 108.6 47.362 108.156 47.362H105.672V51.754H108.156ZM122.506 45.4H124.576V58H122.506V52.51H116.746V58H114.676V45.4H116.746V50.548H122.506V45.4ZM132.434 45.4C133.238 45.4 133.964 45.58 134.612 45.94C135.272 46.3 135.788 46.798 136.16 47.434C136.532 48.07 136.718 48.778 136.718 49.558C136.718 50.746 136.31 51.736 135.494 52.528C134.678 53.32 133.658 53.716 132.434 53.716H129.842V58H127.772V45.4H132.434ZM132.326 51.754C132.662 51.754 132.968 51.7 133.244 51.592C133.532 51.484 133.778 51.334 133.982 51.142C134.186 50.95 134.342 50.716 134.45 50.44C134.57 50.164 134.63 49.87 134.63 49.558C134.63 49.138 134.528 48.766 134.324 48.442C134.132 48.106 133.862 47.842 133.514 47.65C133.166 47.458 132.77 47.362 132.326 47.362H129.842V51.754H132.326Z" fill="black"/>
<path d="M64.0001 40.4546C49.2389 40.4546 37.2715 46.5192 37.2715 54C37.2715 61.4808 49.2389 67.5455 64.0001 67.5455C78.7614 67.5455 90.7287 61.4808 90.7287 54C90.7287 46.5192 78.7614 40.4546 64.0001 40.4546ZM57.0452 56.639C56.4073 57.2358 55.699 57.4821 54.9189 57.7358C54.1389 57.99 53.1462 57.9375 51.9391 57.9375H49.2034L48.4452 62.3125H45.251L48.1014 47.4375H54.2439C56.0919 47.4375 57.4398 47.9691 58.2872 48.939C59.1347 49.909 59.3893 51.2858 59.0515 53.024C58.912 53.7402 58.677 54.406 58.3454 54.9993C58.0134 55.593 57.5798 56.1473 57.0452 56.639ZM66.3687 57.9375L67.6292 51.6288C67.7727 50.8903 67.7202 50.3417 67.4712 50.0735C67.2219 49.8048 66.6916 49.625 65.8809 49.625H63.3478L61.7155 57.9375H58.5462L61.3965 43.5H64.5658L63.8081 47.4375H66.6312C68.4079 47.4375 69.6329 47.7941 70.3071 48.4136C70.9813 49.0331 71.1834 49.8818 70.9139 51.2696L69.5879 57.9375H66.3687ZM83.982 53.0472C83.8429 53.7633 83.6076 54.4178 83.2764 55.0106C82.9447 55.6043 82.5116 56.1473 81.9766 56.639C81.3387 57.2358 80.6299 57.4821 79.8503 57.7358C79.0707 57.99 78.0771 57.9375 76.87 57.9375H74.1344L73.3766 62.3125H70.1824L73.0323 47.4375H79.1752C81.0232 47.4375 82.3712 47.9691 83.2182 48.939C84.0647 49.909 84.3198 51.3094 83.982 53.0472ZM77.9647 49.625H75.7767L74.5837 55.75H76.5271C77.8142 55.75 78.7741 55.6231 79.404 55.1375C80.0349 54.6528 80.4597 53.9003 80.6807 52.7658C80.8924 51.676 80.7962 50.826 80.3919 50.378C79.9872 49.93 79.1783 49.625 77.9647 49.625ZM53.0337 49.625H50.8454L49.6523 55.75H51.5952C52.8828 55.75 53.8422 55.6231 54.4727 55.1375C55.1031 54.6528 55.5284 53.9003 55.7489 52.7658C55.9606 51.676 55.8644 50.826 55.4601 50.378C55.0559 49.93 54.2474 49.625 53.0337 49.625Z" fill="#666EE0"/>
<defs>
<filter id="filter0_d_346_394" x="0" y="0" width="225" height="122" filterUnits="userSpaceOnUse" color-interpolation-filters="sRGB">
<feFlood flood-opacity="0" result="BackgroundImageFix"/>
<feColorMatrix in="SourceAlpha" type="matrix" values="0 0 0 0 0 0 0 0 0 0 0 0 0 0 0 0 0 0 127 0" result="hardAlpha"/>
<feOffset dy="7"/>
<feGaussianBlur stdDeviation="10"/>
<feComposite in2="hardAlpha" operator="out"/>
<feColorMatrix type="matrix" values="0 0 0 0 0.266667 0 0 0 0 0.266667 0 0 0 0 0.266667 0 0 0 0.05 0"/>
<feBlend mode="normal" in2="BackgroundImageFix" result="effect1_dropShadow_346_394"/>
<feBlend mode="normal" in="SourceGraphic" in2="effect1_dropShadow_346_394" result="shape"/>
</filter>
</defs>
</svg>
