<svg width="65" height="67" viewBox="0 0 65 67" fill="none" xmlns="http://www.w3.org/2000/svg">
<path d="M31.7199 0.0964355C31.4496 0.0996638 31.191 0.208201 30.9988 0.399048L21.714 9.71869C21.6011 9.83168 21.5155 9.96911 21.4638 10.1205C21.4121 10.2718 21.3957 10.433 21.4157 10.5918C21.4358 10.7505 21.4918 10.9026 21.5796 11.0362C21.6673 11.1698 21.7843 11.2815 21.9217 11.3626C22.4811 11.6945 22.9914 12.0602 23.4373 12.5076C26.3928 15.4745 26.3928 20.2019 23.4373 23.1686C20.4819 26.135 15.7675 26.135 12.8121 23.1686C12.3663 22.7211 12.0022 22.2091 11.6713 21.6473C11.5901 21.5104 11.4788 21.3936 11.3459 21.3064C11.213 21.2191 11.062 21.1636 10.9044 21.1438C10.7468 21.124 10.5868 21.1404 10.4366 21.1921C10.2864 21.2438 10.1499 21.3294 10.0376 21.4421L0.752727 30.7577C0.655298 30.8549 0.577984 30.9705 0.525227 31.0978C0.472471 31.2252 0.445312 31.3619 0.445312 31.4999C0.445313 31.6378 0.472471 31.7743 0.525227 31.9017C0.577984 32.029 0.655298 32.1448 0.752727 32.2421L9.19833 40.7152C8.90272 40.9409 8.59165 41.1076 8.31425 41.3859C4.56721 45.1471 4.56717 51.2504 8.31425 55.0116C12.0613 58.7726 18.142 58.7726 21.8891 55.0116C22.1652 54.7344 22.3326 54.4242 22.5573 54.1283L30.9988 62.6015C31.1944 62.7977 31.4597 62.9079 31.7362 62.9079C32.0128 62.9079 32.278 62.7977 32.4736 62.6015L41.7585 53.2859C41.8714 53.1729 41.957 53.0355 42.0086 52.8841C42.0603 52.7328 42.0768 52.5716 42.0567 52.4128C42.0367 52.2541 41.9806 52.102 41.8929 51.9684C41.8052 51.8348 41.6881 51.7231 41.5507 51.642C40.9913 51.3101 40.4812 50.9446 40.0352 50.497C37.0797 47.5301 37.0797 42.7988 40.0352 39.8319C42.9906 36.8657 47.7049 36.8657 50.6604 39.8319C51.1065 40.2798 51.4703 40.7916 51.8012 41.3532C51.882 41.4905 51.993 41.6075 52.1258 41.6952C52.2585 41.7828 52.4094 41.8388 52.567 41.859C52.7246 41.8792 52.8847 41.8631 53.0351 41.8117C53.1855 41.7603 53.3223 41.675 53.4349 41.5625L62.7197 32.247C62.8172 32.1497 62.8945 32.0341 62.9472 31.9068C63 31.7794 63.0272 31.6427 63.0272 31.5047C63.0272 31.3668 63 31.2303 62.9472 31.103C62.8945 30.9756 62.8172 30.8598 62.7197 30.7625L54.2741 22.2894C54.5697 22.0637 54.8808 21.8972 55.1582 21.6187C58.9053 17.8575 58.9053 11.7542 55.1582 7.99298C51.4111 4.23198 45.3304 4.23198 41.5833 7.99298C41.3076 8.26978 41.1397 8.58085 40.9152 8.87628L32.4736 0.403265C32.3745 0.304833 32.2568 0.227249 32.1273 0.175283C31.9979 0.123318 31.8593 0.097961 31.7199 0.100653V0.0964355ZM31.7362 2.62366L40.2837 11.199C40.3963 11.3115 40.533 11.3966 40.6834 11.448C40.8338 11.4993 40.9939 11.5157 41.1515 11.4955C41.3091 11.4753 41.4601 11.4191 41.5928 11.3314C41.7255 11.2438 41.8365 11.127 41.9174 10.9897C42.2473 10.4286 42.6117 9.91649 43.0581 9.46822C46.0136 6.50179 50.7279 6.50179 53.6834 9.46822C56.6388 12.4349 56.6389 17.1667 53.6834 20.1335C53.2381 20.5803 52.7283 20.9489 52.1678 21.2826C52.0311 21.3638 51.9147 21.4752 51.8274 21.6085C51.7402 21.7417 51.6844 21.8932 51.6643 22.0514C51.6443 22.2096 51.6605 22.3703 51.7118 22.5212C51.763 22.6721 51.8479 22.8095 51.96 22.9225L60.5075 31.5019L52.8034 39.2308C52.579 38.9354 52.4111 38.6245 52.1352 38.3475C48.3881 34.5867 42.3074 34.5867 38.5603 38.3475C34.8133 42.1089 34.8133 48.212 38.5603 51.9732C38.8374 52.2515 39.1487 52.4177 39.4444 52.6436L31.7362 60.3776L23.1888 51.8023C23.0762 51.6898 22.9394 51.6047 22.789 51.5533C22.6386 51.5019 22.4785 51.4856 22.3209 51.5058C22.1633 51.526 22.0124 51.5822 21.8797 51.6699C21.7469 51.7575 21.6359 51.8743 21.5551 52.0116C21.2257 52.5717 20.8597 53.0811 20.4143 53.5287C17.4588 56.4954 12.7446 56.4954 9.78907 53.5287C6.83362 50.5623 6.83358 45.8346 9.78907 42.8678C10.2344 42.421 10.7441 42.0524 11.3046 41.7187C11.4413 41.6374 11.5578 41.5261 11.645 41.3928C11.7323 41.2595 11.7881 41.1081 11.8081 40.9499C11.8281 40.7917 11.8119 40.631 11.7607 40.4801C11.7094 40.3292 11.6245 40.1918 11.5124 40.0788L2.96496 31.5035L10.6691 23.7705C10.8935 24.0659 11.0613 24.3768 11.3372 24.6538C15.0843 28.4146 21.165 28.4146 24.9121 24.6538C28.6591 20.8926 28.6591 14.7893 24.9121 11.0281C24.6351 10.75 24.3237 10.5836 24.028 10.3577L31.7362 2.62366H31.7362Z" fill="#474747"/>
</svg>
