<svg width="225" height="122" viewBox="0 0 225 122" fill="none" xmlns="http://www.w3.org/2000/svg">
<g filter="url(#filter0_d_346_428)">
<path d="M20 18C20 15.2386 22.2386 13 25 13H200C202.761 13 205 15.2386 205 18V90C205 92.7614 202.761 95 200 95H25C22.2386 95 20 92.7614 20 90V18Z" fill="white"/>
</g>
<path d="M108.264 45.4C109.068 45.4 109.794 45.58 110.442 45.94C111.102 46.3 111.618 46.798 111.99 47.434C112.362 48.07 112.548 48.778 112.548 49.558C112.548 50.746 112.14 51.736 111.324 52.528C110.508 53.32 109.488 53.716 108.264 53.716H105.672V58H103.602V45.4H108.264ZM108.156 51.754C108.492 51.754 108.798 51.7 109.074 51.592C109.362 51.484 109.608 51.334 109.812 51.142C110.016 50.95 110.172 50.716 110.28 50.44C110.4 50.164 110.46 49.87 110.46 49.558C110.46 49.138 110.358 48.766 110.154 48.442C109.962 48.106 109.692 47.842 109.344 47.65C108.996 47.458 108.6 47.362 108.156 47.362H105.672V51.754H108.156ZM121.426 48.28H123.568L119.104 58.18C118.54 59.416 117.964 60.274 117.376 60.754C116.8 61.246 116.026 61.492 115.054 61.492H114.064V59.692H114.892C115.528 59.692 115.996 59.566 116.296 59.314C116.596 59.062 116.926 58.54 117.286 57.748L117.502 57.298L113.272 48.28H115.45L118.528 55.066L121.426 48.28ZM129.487 56.182H130.585V58H129.109C128.401 58 127.789 57.862 127.273 57.586C126.757 57.31 126.361 56.914 126.085 56.398C125.809 55.87 125.671 55.252 125.671 54.544V49.99H123.925V49.612L127.309 46.012H127.651V48.28H130.531V49.99H127.669V54.382C127.669 54.958 127.825 55.402 128.137 55.714C128.449 56.026 128.899 56.182 129.487 56.182ZM137.679 48.064C138.819 48.064 139.719 48.43 140.379 49.162C141.039 49.894 141.369 50.89 141.369 52.15V58H139.371V52.546C139.371 51.958 139.287 51.466 139.119 51.07C138.951 50.674 138.699 50.374 138.363 50.17C138.039 49.954 137.631 49.846 137.139 49.846C136.383 49.846 135.759 50.122 135.267 50.674C134.775 51.226 134.529 51.934 134.529 52.798V58H132.531V44.788H134.529V49.378C135.321 48.502 136.371 48.064 137.679 48.064ZM152.27 56.794C151.286 57.754 150.05 58.234 148.562 58.234C147.074 58.234 145.832 57.754 144.836 56.794C143.852 55.822 143.36 54.604 143.36 53.14C143.36 52.18 143.582 51.31 144.026 50.53C144.482 49.75 145.106 49.144 145.898 48.712C146.702 48.268 147.59 48.046 148.562 48.046C149.534 48.046 150.416 48.268 151.208 48.712C152.012 49.144 152.636 49.75 153.08 50.53C153.536 51.31 153.764 52.18 153.764 53.14C153.764 54.604 153.266 55.822 152.27 56.794ZM148.562 56.326C149.174 56.326 149.72 56.194 150.2 55.93C150.68 55.654 151.052 55.276 151.316 54.796C151.592 54.304 151.73 53.752 151.73 53.14C151.73 52.216 151.43 51.454 150.83 50.854C150.242 50.254 149.486 49.954 148.562 49.954C147.638 49.954 146.876 50.254 146.276 50.854C145.688 51.454 145.394 52.216 145.394 53.14C145.394 54.064 145.688 54.826 146.276 55.426C146.876 56.026 147.638 56.326 148.562 56.326ZM161.041 48.064C162.169 48.064 163.063 48.442 163.723 49.198C164.395 49.954 164.731 50.938 164.731 52.15V58H162.733V52.546C162.733 51.67 162.541 51.004 162.157 50.548C161.785 50.08 161.233 49.846 160.501 49.846C159.745 49.846 159.121 50.122 158.629 50.674C158.137 51.226 157.891 51.934 157.891 52.798V58H155.893V48.28H157.279L157.675 49.63C158.047 49.138 158.521 48.754 159.097 48.478C159.685 48.202 160.333 48.064 161.041 48.064Z" fill="black"/>
<g clip-path="url(#clip0_346_428)">
<path d="M84.2976 67.412C88.1849 67.412 89.6222 64.7007 90.9709 60.636C92.3709 56.4477 92.3102 52.4227 90.9709 47.0607C90.0072 43.199 88.1849 40.2847 84.2976 40.2847H79.2856V46.2113C79.2856 50.8127 75.3842 54.6883 70.9346 54.6883H57.5879C53.9386 54.6883 50.9146 57.8127 50.9146 61.4737V74.1997C50.9146 77.8233 54.0646 79.949 57.5879 80.985C61.8136 82.2217 65.8759 82.4457 70.9369 80.985C74.2992 80.0097 77.6126 78.045 77.6126 74.1997V69.1107H64.2729V67.4097H84.2976V67.412Z" fill="#F8C137"/>
<path d="M44.0361 67.4144H48.6234V61.315C48.6234 56.9004 52.4361 53.0154 56.9744 53.0154H70.3234C74.0358 53.0154 76.9968 49.954 76.9968 46.2277V33.4877C76.9968 29.8617 73.9471 27.148 70.3234 26.5367C65.8481 25.7994 60.9854 25.8367 56.9744 26.5507L56.9768 26.5484C51.3254 27.547 50.3011 29.6354 50.3011 33.497V38.5837H63.6641V40.287H45.2868C41.3971 40.287 37.9974 42.625 36.9381 47.0654C35.7131 52.152 35.6618 55.3254 36.9381 60.6407C37.8854 64.5887 40.1511 67.4144 44.0361 67.4144Z" fill="#366E9D"/>
<path d="M63.9999 54.6882H57.5879C53.9385 54.6882 50.9146 57.8126 50.9146 61.4736V74.1996C50.9146 77.8232 54.0645 79.9489 57.5879 80.9849C59.7159 81.6079 61.8042 81.9742 63.9999 81.9976V54.6882Z" fill="#E8B534"/>
<path d="M63.5963 26C61.277 26 59.0137 26.189 56.972 26.5507L56.9743 26.5483C51.3253 27.547 50.301 29.6353 50.301 33.497V38.5837H63.664V40.287H45.2867C41.397 40.287 37.9973 42.625 36.938 47.0653C36.3313 49.5877 36.0117 51.641 36 53.7153V53.951C36.0117 55.9857 36.3173 58.06 36.938 60.6407C37.8853 64.5887 40.151 67.4143 44.036 67.4143H48.6233V61.315C48.6233 56.9003 52.436 53.0153 56.9743 53.0153H64V26.0023C63.8647 26 63.7317 26 63.5963 26Z" fill="#2D638F"/>
<path d="M78.5391 43.1661H78.5413V43.157L78.5391 43.1661Z" fill="white"/>
<path d="M71.7746 72.5011C73.1606 72.5011 74.2876 73.6397 74.2876 75.0397C74.2876 76.4537 73.163 77.5901 71.7746 77.5901C70.398 77.5901 69.2616 76.4397 69.2616 75.0397C69.2756 73.6257 70.4026 72.5011 71.7746 72.5011ZM56.1366 35.1841C54.7506 35.1841 53.626 34.0454 53.626 32.6454C53.64 31.2337 54.7506 30.0974 56.1366 30.0974C57.5133 30.0974 58.6496 31.2477 58.6496 32.6477C58.6496 34.0454 57.525 35.1841 56.1366 35.1841Z" fill="white"/>
<path d="M56.1366 30.0974C54.7506 30.0974 53.6376 31.2337 53.626 32.6477C53.626 34.0477 54.7506 35.1864 56.1366 35.1864V30.0974ZM71.7746 72.5011C70.3886 72.5011 69.2756 73.6374 69.264 75.0514C69.264 76.4514 70.3886 77.5901 71.7746 77.5901V72.5011Z" fill="#DEDEDE"/>
</g>
<defs>
<filter id="filter0_d_346_428" x="0" y="0" width="225" height="122" filterUnits="userSpaceOnUse" color-interpolation-filters="sRGB">
<feFlood flood-opacity="0" result="BackgroundImageFix"/>
<feColorMatrix in="SourceAlpha" type="matrix" values="0 0 0 0 0 0 0 0 0 0 0 0 0 0 0 0 0 0 127 0" result="hardAlpha"/>
<feOffset dy="7"/>
<feGaussianBlur stdDeviation="10"/>
<feComposite in2="hardAlpha" operator="out"/>
<feColorMatrix type="matrix" values="0 0 0 0 0.266667 0 0 0 0 0.266667 0 0 0 0 0.266667 0 0 0 0.05 0"/>
<feBlend mode="normal" in2="BackgroundImageFix" result="effect1_dropShadow_346_428"/>
<feBlend mode="normal" in="SourceGraphic" in2="effect1_dropShadow_346_428" result="shape"/>
</filter>
<clipPath id="clip0_346_428">
<rect width="56" height="56" fill="white" transform="translate(36 26)"/>
</clipPath>
</defs>
</svg>
