<svg width="224" height="122" viewBox="0 0 224 122" fill="none" xmlns="http://www.w3.org/2000/svg">
<g filter="url(#filter0_d_346_393)">
<path d="M20 18C20 15.2386 22.2386 13 25 13H199C201.761 13 204 15.2386 204 18V90C204 92.7614 201.761 95 199 95H25C22.2386 95 20 92.7614 20 90V18Z" fill="white"/>
</g>
<path d="M105.766 58L103.066 53.338H100.672V58H98.602V45.4H103.516C104.308 45.4 105.028 45.568 105.676 45.904C106.324 46.24 106.828 46.714 107.188 47.326C107.56 47.938 107.746 48.622 107.746 49.378C107.746 50.23 107.512 50.986 107.044 51.646C106.576 52.294 105.952 52.762 105.172 53.05L108.088 58H105.766ZM100.672 47.344V51.394H103.39C103.726 51.394 104.032 51.346 104.308 51.25C104.596 51.154 104.836 51.016 105.028 50.836C105.22 50.656 105.37 50.44 105.478 50.188C105.586 49.936 105.64 49.66 105.64 49.36C105.64 48.772 105.43 48.292 105.01 47.92C104.602 47.536 104.062 47.344 103.39 47.344H100.672ZM119.17 53.158C119.17 53.338 119.158 53.56 119.134 53.824H111.25C111.37 54.604 111.694 55.222 112.222 55.678C112.762 56.134 113.428 56.362 114.22 56.362C114.604 56.362 114.964 56.308 115.3 56.2C115.636 56.08 115.93 55.918 116.182 55.714C116.446 55.498 116.662 55.24 116.83 54.94H118.936C118.552 55.972 117.94 56.782 117.1 57.37C116.26 57.946 115.3 58.234 114.22 58.234C112.792 58.234 111.598 57.748 110.638 56.776C109.69 55.804 109.216 54.592 109.216 53.14C109.216 51.688 109.69 50.476 110.638 49.504C111.598 48.532 112.792 48.046 114.22 48.046C115.192 48.046 116.056 48.28 116.812 48.748C117.568 49.204 118.15 49.822 118.558 50.602C118.966 51.37 119.17 52.222 119.17 53.158ZM114.22 49.846C113.476 49.846 112.84 50.056 112.312 50.476C111.796 50.896 111.454 51.472 111.286 52.204H117.172C117.052 51.712 116.854 51.292 116.578 50.944C116.302 50.584 115.96 50.314 115.552 50.134C115.156 49.942 114.712 49.846 114.22 49.846ZM129.427 48.28H130.975V58H129.355L129.157 56.812C128.221 57.76 127.051 58.234 125.647 58.234C124.195 58.234 122.983 57.748 122.011 56.776C121.051 55.804 120.571 54.592 120.571 53.14C120.571 51.676 121.051 50.464 122.011 49.504C122.983 48.532 124.195 48.046 125.647 48.046C127.075 48.046 128.257 48.526 129.193 49.486L129.427 48.28ZM123.505 55.426C124.117 56.026 124.879 56.326 125.791 56.326C126.715 56.326 127.471 56.026 128.059 55.426C128.659 54.814 128.959 54.052 128.959 53.14C128.959 52.216 128.659 51.454 128.059 50.854C127.471 50.254 126.715 49.954 125.791 49.954C125.191 49.954 124.645 50.092 124.153 50.368C123.673 50.644 123.295 51.028 123.019 51.52C122.743 52 122.605 52.54 122.605 53.14C122.605 54.052 122.905 54.814 123.505 55.426ZM138.198 58.234C136.758 58.234 135.546 57.748 134.562 56.776C133.59 55.792 133.104 54.58 133.104 53.14C133.104 51.688 133.59 50.476 134.562 49.504C135.546 48.532 136.764 48.046 138.216 48.046C139.404 48.046 140.436 48.382 141.312 49.054C142.188 49.726 142.758 50.62 143.022 51.736H141.042C140.79 51.184 140.412 50.752 139.908 50.44C139.404 50.116 138.834 49.954 138.198 49.954C137.634 49.954 137.118 50.092 136.65 50.368C136.182 50.644 135.81 51.028 135.534 51.52C135.27 52 135.138 52.54 135.138 53.14C135.138 54.04 135.432 54.796 136.02 55.408C136.608 56.02 137.334 56.326 138.198 56.326C138.834 56.326 139.398 56.164 139.89 55.84C140.394 55.516 140.778 55.054 141.042 54.454H143.058C142.782 55.594 142.2 56.512 141.312 57.208C140.436 57.892 139.398 58.234 138.198 58.234ZM149.342 56.182H150.44V58H148.964C148.256 58 147.644 57.862 147.128 57.586C146.612 57.31 146.216 56.914 145.94 56.398C145.664 55.87 145.526 55.252 145.526 54.544V49.99H143.78V49.612L147.164 46.012H147.506V48.28H150.386V49.99H147.524V54.382C147.524 54.958 147.68 55.402 147.992 55.714C148.304 56.026 148.754 56.182 149.342 56.182Z" fill="black"/>
<path d="M60.9999 59.0074C63.7667 59.0074 66.0096 56.7645 66.0096 53.9977C66.0096 51.2309 63.7667 48.988 60.9999 48.988C58.2331 48.988 55.9902 51.2309 55.9902 53.9977C55.9902 56.7645 58.2331 59.0074 60.9999 59.0074Z" fill="#53C1DE"/>
<path d="M43.5327 62.869C44.025 63.0324 44.5173 63.198 45.0213 63.3404C44.858 63.996 44.7157 64.6424 44.5827 65.3097C43.4347 71.381 44.3307 76.1924 47.196 77.8444C50.15 79.55 55.1153 77.8 59.95 73.5674C60.3327 73.229 60.7153 72.879 61.098 72.5057C61.5787 72.977 62.0827 73.425 62.5843 73.8614C67.265 77.8864 71.892 79.515 74.748 77.8654C77.702 76.1597 78.6633 70.9867 77.4173 64.6867C77.3193 64.206 77.2097 63.7137 77.0883 63.2097C77.4383 63.1117 77.7767 63.002 78.1173 62.8924C84.429 60.804 89 57.423 89 53.9557C89 50.6424 84.6903 47.427 78.7403 45.3807V45.3784C78.15 45.1824 77.5597 44.9957 76.9693 44.8207C77.0673 44.417 77.156 44.011 77.2423 43.6074C78.5887 37.088 77.702 31.852 74.7153 30.123C71.8383 28.471 67.146 30.1884 62.4 34.323C61.9287 34.7267 61.4713 35.1537 61.0327 35.5807C60.7363 35.296 60.4307 35.0114 60.125 34.7384C55.148 30.319 50.1617 28.4594 47.175 30.2C44.3097 31.8637 43.4557 36.7964 44.6597 42.961C44.781 43.5747 44.9117 44.1744 45.0633 44.788C44.3633 44.984 43.675 45.2034 43.0287 45.4344C37.1883 47.4574 33 50.6517 33 53.9557C33 57.3694 37.4613 60.79 43.5327 62.869ZM58.4077 71.78C56.604 73.432 54.5133 74.7434 52.2383 75.6417C51.025 76.2204 49.625 76.2764 48.3767 75.784C46.6383 74.7784 45.915 70.9167 46.8997 65.7204C47.021 65.109 47.1517 64.4954 47.3033 63.8934C49.7533 64.4184 52.2243 64.78 54.7303 64.9644C56.1747 67.0107 57.759 68.9684 59.4553 70.8047C59.1053 71.143 58.7553 71.472 58.4053 71.7777L58.4077 71.78ZM72.298 51.242C71.7847 50.2784 71.2597 49.317 70.7113 48.3767C70.1747 47.448 69.617 46.5287 69.0383 45.621C70.8 45.8404 72.4847 46.1344 74.0597 46.496C73.5557 48.1154 72.9653 49.6904 72.298 51.242ZM72.319 56.688C73.019 58.2747 73.6327 59.8824 74.167 61.5344C72.4707 61.917 70.7557 62.2134 69.0267 62.4094C69.617 61.49 70.1747 60.5497 70.723 59.6094C71.2807 58.6457 71.8057 57.6727 72.319 56.688ZM71.0543 53.9674C70.3217 55.477 69.533 56.9634 68.693 58.4287C67.8623 59.8824 66.9757 61.294 66.047 62.694C64.4183 62.8154 62.722 62.869 61.0047 62.869C59.2873 62.869 57.626 62.8154 56.0183 62.715C55.0663 61.3267 54.1703 59.9034 53.328 58.4497C52.4857 56.996 51.7087 55.519 50.976 54.0094H50.9713C51.6923 52.4997 52.481 51.0227 53.3117 49.569C54.1423 48.1154 55.0407 46.7037 55.981 45.3154C57.6213 45.194 59.2943 45.1287 61.0023 45.1287C62.7103 45.1287 64.3927 45.194 66.0237 45.3154C66.9523 46.6944 67.839 48.1037 68.6813 49.548C69.5237 50.9924 70.31 52.4694 71.0543 53.9674ZM51.2747 48.3977C50.738 49.3264 50.213 50.276 49.7207 51.2397C49.0323 49.611 48.4513 48.015 47.9707 46.4727C49.5457 46.1227 51.2187 45.838 52.957 45.6187C52.3807 46.5264 51.8113 47.455 51.2747 48.3977ZM49.723 56.7744C50.227 57.738 50.7403 58.69 51.2863 59.6304C51.844 60.5824 52.4133 61.5344 53.0153 62.463C51.3097 62.2764 49.6133 62.0034 47.9403 61.6417C48.421 60.0667 49.023 58.438 49.723 56.7744ZM61.0887 69.12C59.9733 67.9184 58.858 66.586 57.7753 65.151C58.8253 65.1954 59.908 65.2164 61.0023 65.2164C62.1293 65.2164 63.233 65.1954 64.3273 65.1394C63.3217 66.5277 62.239 67.853 61.0887 69.12ZM75.385 72.4054C75.2847 73.7377 74.629 74.9837 73.579 75.826C71.8407 76.8317 68.133 75.5204 64.129 72.0857C63.6693 71.6914 63.2097 71.2644 62.7407 70.828C64.4137 68.98 65.956 67.0224 67.356 64.9667C69.8597 64.759 72.354 64.3764 74.8157 63.8187C74.9253 64.2667 75.0233 64.7147 75.112 65.1534C75.6487 67.517 75.735 69.9764 75.385 72.4054ZM76.3347 47.0747C76.904 47.238 77.45 47.413 77.975 47.588C83.071 49.338 86.648 51.942 86.648 53.9324C86.648 56.0767 82.8307 58.844 77.373 60.6477C77.0673 60.7457 76.7617 60.8437 76.4443 60.9324C75.679 58.5477 74.7387 56.219 73.656 53.9534C74.706 51.7227 75.5927 49.4244 76.3347 47.0747ZM63.94 36.094C68.0117 32.552 71.8057 31.1637 73.5347 32.1577C75.3827 33.2194 76.0943 37.5057 74.9347 43.1384C74.8577 43.5094 74.7807 43.871 74.6827 44.2327C72.2537 43.6867 69.7943 43.2924 67.321 43.073C65.9 41.036 64.346 39.09 62.6613 37.263C63.0883 36.8594 63.5037 36.4767 63.94 36.094ZM61.0233 38.9384C62.1713 40.1844 63.254 41.4957 64.2597 42.8514C62.0943 42.7534 59.9173 42.7534 57.752 42.8514C58.823 41.442 59.929 40.1307 61.0233 38.9384ZM48.3347 32.2347C50.1733 31.1637 54.252 32.6944 58.55 36.5C58.823 36.7404 59.096 37.004 59.3807 37.2654C57.6843 39.09 56.121 41.036 54.6883 43.0707C52.2173 43.29 49.7673 43.6727 47.3383 44.2094C47.196 43.6517 47.077 43.0824 46.9557 42.513C45.9267 37.2187 46.6057 33.2287 48.3347 32.2347ZM43.7963 47.6534C44.4193 47.434 45.054 47.238 45.6887 47.0514C46.433 49.4244 47.329 51.7554 48.3673 54.007C47.3173 56.2937 46.4097 58.655 45.656 61.0607L45.6537 61.063C45.194 60.9324 44.746 60.79 44.298 60.636C41.9693 59.9034 39.321 58.7437 37.4077 57.2247C36.304 56.4594 35.5597 55.2787 35.352 53.9534C35.352 51.9514 38.8077 49.3917 43.7963 47.6534Z" fill="#53C1DE"/>
<defs>
<filter id="filter0_d_346_393" x="0" y="0" width="224" height="122" filterUnits="userSpaceOnUse" color-interpolation-filters="sRGB">
<feFlood flood-opacity="0" result="BackgroundImageFix"/>
<feColorMatrix in="SourceAlpha" type="matrix" values="0 0 0 0 0 0 0 0 0 0 0 0 0 0 0 0 0 0 127 0" result="hardAlpha"/>
<feOffset dy="7"/>
<feGaussianBlur stdDeviation="10"/>
<feComposite in2="hardAlpha" operator="out"/>
<feColorMatrix type="matrix" values="0 0 0 0 0.266667 0 0 0 0 0.266667 0 0 0 0 0.266667 0 0 0 0.05 0"/>
<feBlend mode="normal" in2="BackgroundImageFix" result="effect1_dropShadow_346_393"/>
<feBlend mode="normal" in="SourceGraphic" in2="effect1_dropShadow_346_393" result="shape"/>
</filter>
</defs>
</svg>
