<svg width="56" height="56" viewBox="0 0 56 56" fill="none" xmlns="http://www.w3.org/2000/svg">
<path d="M16.5 49C21.7467 49 26 44.5228 26 39C26 33.4772 21.7467 29 16.5 29C11.2533 29 7 33.4772 7 39C7 44.5228 11.2533 49 16.5 49Z" fill="#FFC80B"/>
<path d="M47.2727 26H31.7273C30.6909 26 30 25.3091 30 24.2727V8.72727C30 7.69091 30.6909 7 31.7273 7H47.2727C48.3091 7 49 7.69091 49 8.72727V24.2727C49 25.3091 48.3091 26 47.2727 26Z" fill="#59D672"/>
<path d="M47.1339 49C46.7946 49 46.4554 49 46.1161 48.6577L30.5089 32.9099C29.8304 32.2252 29.8304 31.1982 30.5089 30.5135C31.1875 29.8288 32.2054 29.8288 32.8839 30.5135L48.4911 46.2613C49.1696 46.9459 49.1696 47.973 48.4911 48.6577C48.1518 49 47.8125 49 47.1339 49Z" fill="#FF5640"/>
<path d="M30.9643 49C31.3214 49 31.6786 49 32.0357 48.6577L48.4643 32.9099C49.1786 32.2252 49.1786 31.1982 48.4643 30.5135C47.75 29.8288 46.6786 29.8288 45.9643 30.5135L29.5357 46.2613C28.8214 46.9459 28.8214 47.973 29.5357 48.6577C30.25 49 30.6071 49 30.9643 49Z" fill="#FF5640"/>
<path d="M24.5258 26H8.60823C7.57012 26 6.53202 24.9493 7.22409 23.8986L15.1829 7.78802C15.875 6.73733 17.6051 6.73733 17.9512 7.78802L25.91 23.8986C26.256 24.9493 25.564 26 24.5258 26Z" fill="#426DE8"/>
</svg>
