<svg width="56" height="56" viewBox="0 0 56 56" fill="none" xmlns="http://www.w3.org/2000/svg">
<path d="M36 44V49.5326C36 51.4476 34.3765 53 32.3737 53H23.6263C21.6235 53 20 51.4476 20 49.5326V44H36Z" fill="#DBD9D9"/>
<path d="M28 53H23.6825C21.6508 53 20 51.4514 20 49.5362V44H24.3174V49.5362C24.3174 51.4514 25.9682 53 28 53Z" fill="#DBD9D9"/>
<path d="M36 44V49.5362C36 51.4514 34.3555 53 32.3138 53H28C30.0337 53 31.6782 51.4514 31.6782 49.5362V44H36Z" fill="#DBD9D9"/>
<path d="M35.5676 44C36.0858 40.9738 37.4494 38.1606 39.413 35.7737C42.1675 32.4065 43.572 27.8174 42.7811 22.9015C41.6766 16.1529 36.2494 10.8676 29.7314 10.1004C20.6771 9.04902 13 16.3944 13 25.6294C13 29.5934 14.4181 33.2163 16.7635 35.9726C18.6999 38.2601 19.9816 41.0306 20.4589 44H35.5676V44Z" fill="#FFC80B"/>
<path d="M18.1258 25.6287C18.1258 18.8434 22.279 12.3416 28 10.0016C19.7396 9.87655 13 16.9048 13 25.6287C13 29.5954 14.3973 33.2199 16.7064 35.9732C18.6112 38.2599 19.8761 41.0288 20.3468 44H24.2518C24.5717 41.2972 23.737 38.2599 21.8323 35.9732C19.5231 33.2199 18.1258 29.5953 18.1258 25.6287Z" fill="#FFC80B"/>
<path d="M42.7922 22.7746C41.7782 16.2004 36.9205 11.027 31 10V10.0645C34.5964 11.5356 37.1677 18.2817 37.8598 22.7746C38.6098 27.7191 37.2795 32.335 34.6682 35.7226C32.807 38.1245 31.9288 41.0857 32.1668 44H35.9492C36.4445 40.9566 37.7394 38.1245 39.6006 35.7226C42.2119 32.335 43.5424 27.7191 42.7922 22.7746Z" fill="#FFC80B"/>
<path d="M28 6.33207C28.4206 6.33207 28.7609 5.99615 28.7609 5.58102V3.75106C28.7609 3.33592 28.4206 3 28 3C27.5794 3 27.2391 3.33592 27.2391 3.75106V5.58102C27.2391 5.99616 27.5794 6.33207 28 6.33207ZM15.9658 9.68469C16.1144 9.88712 16.3462 9.99421 16.5818 9.99421C16.7363 9.99421 16.8931 9.94727 17.0283 9.85045C17.3679 9.60694 17.4437 9.13753 17.1963 8.80161L16.107 7.32151C15.861 6.98632 15.3855 6.91151 15.0444 7.15575C14.7049 7.39926 14.6291 7.86867 14.8765 8.20459L15.9658 9.68469ZM9.75923 18.1172L7.99674 17.5517C7.59328 17.4248 7.16752 17.6397 7.03749 18.0336C6.90745 18.4282 7.12665 18.8521 7.52566 18.9805L9.28814 19.546C9.36691 19.5709 9.44566 19.5826 9.52368 19.5826C9.84468 19.5826 10.1426 19.3809 10.2474 19.0641C10.3774 18.6695 10.1582 18.2456 9.75923 18.1172ZM9.28814 29.9691L7.52566 30.5346C7.12665 30.6629 6.90745 31.0869 7.03749 31.4814C7.14226 31.7983 7.44021 32 7.7612 32C7.83922 32 7.91798 31.9883 7.99674 31.9633L9.75923 31.3978C10.1582 31.2695 10.3774 30.8455 10.2474 30.4509C10.1174 30.0571 9.69086 29.8407 9.28814 29.9691ZM39.4182 9.99421C39.6538 9.99421 39.8856 9.88712 40.0342 9.68469L41.1235 8.20459C41.3709 7.86866 41.2951 7.39925 40.9556 7.15575C40.6153 6.91151 40.139 6.98559 39.893 7.32151L38.8037 8.80161C38.5563 9.13754 38.6321 9.60695 38.9717 9.85045C39.1069 9.94727 39.2629 9.99421 39.4182 9.99421ZM46.4763 19.5826C46.5543 19.5826 46.6331 19.5709 46.7119 19.546L48.4743 18.9805C48.8733 18.8521 49.0925 18.4282 48.9625 18.0336C48.8317 17.6397 48.406 17.4248 48.0033 17.5517L46.2408 18.1172C45.8418 18.2456 45.6226 18.6695 45.7526 19.0641C45.8574 19.3809 46.1553 19.5826 46.4763 19.5826ZM48.4743 30.5346L46.7119 29.9691C46.3091 29.8414 45.8826 30.0571 45.7526 30.4509C45.6226 30.8455 45.8418 31.2695 46.2408 31.3978L48.0033 31.9633C48.082 31.9883 48.1608 32 48.2388 32C48.5598 32 48.8577 31.7983 48.9625 31.4814C49.0925 31.0869 48.8733 30.6629 48.4743 30.5346Z" fill="#DBD9D9"/>
<path d="M32.5083 27H32.4193C30.4992 27 28.9276 28.4975 28.9276 30.3441V32.1365H27.0724V30.3441C27.0724 28.4975 25.5008 27 23.5726 27H23.4917C21.5635 27 20 28.4975 20 30.3441C20 32.1908 21.5635 33.6883 23.4917 33.6883H25.4521V44H27.0724V33.6883H28.9276V44H30.5479V33.6883H32.5083C34.4284 33.6883 36 32.1908 36 30.3441C36 28.4975 34.4284 27 32.5083 27ZM25.4521 32.1365H23.4917C22.4628 32.1365 21.6203 31.3373 21.6203 30.3441C21.6203 29.351 22.4628 28.5518 23.4917 28.5518H23.5726C24.6096 28.5518 25.4521 29.351 25.4521 30.3441V32.1365ZM32.5083 32.1365H30.5479V30.3441C30.5479 29.351 31.3904 28.5518 32.4193 28.5518H32.5083C33.5372 28.5518 34.3797 29.351 34.3797 30.3441C34.3797 31.3373 33.5372 32.1365 32.5083 32.1365Z" fill="white"/>
</svg>
