<svg width="56" height="56" viewBox="0 0 56 56" fill="none" xmlns="http://www.w3.org/2000/svg">
<path d="M39.9676 39.9021L42.2823 45.3355L36.4954 45.1325L32.6223 49.4191L29.9043 43.042" fill="#426DE8"/>
<path d="M32.3842 50.8383L29.1895 43.3439L30.6189 42.7399L32.8602 47.9997L36.1611 44.3473L41.0915 44.5201L39.2527 40.204L40.6822 39.6001L43.4729 46.1507L36.8297 45.9175L32.3841 50.8384L32.3842 50.8383Z" fill="#426DE8"/>
<path d="M26.997 42.814L24.3177 49.4191L20.3703 45.2012L14.5879 45.5047L17.1286 39.2385" fill="#426DE8"/>
<path d="M24.5804 50.834L20.0495 45.9917L13.4121 46.3405L16.4091 38.9495L17.8476 39.5277L15.7632 44.669L20.6907 44.4108L24.0544 48.0044L26.2776 42.5249L27.7161 43.1033L24.5804 50.834V50.834Z" fill="#426DE8"/>
<path d="M47.0939 25.3577C47.0939 26.3045 45.3688 27.1033 45.2248 28.0084C45.0785 28.9377 46.4701 30.2273 46.1843 31.103C45.8941 31.9946 44.0045 32.2226 43.5831 33.0455C43.1571 33.8775 44.0772 35.5345 43.5301 36.2835C42.9797 37.037 41.1122 36.6738 40.4535 37.3298C39.7934 37.9859 40.1572 39.8462 39.4023 40.395C38.6496 40.9393 36.9866 40.0213 36.1514 40.4456C35.326 40.8669 35.0963 42.7474 34.2012 43.0373C33.3235 43.3213 32.029 41.9351 31.0959 42.0816C30.1856 42.2242 29.3837 43.9432 28.4347 43.9432C27.4851 43.9432 26.6824 42.2242 25.7744 42.0816C24.8413 41.9351 23.546 43.3212 22.6675 43.0373C21.7731 42.7474 21.5442 40.8669 20.7196 40.4456C19.8835 40.0213 18.2198 40.9385 17.468 40.3943C16.7124 39.8455 17.0761 37.9851 16.4167 37.3291C15.7573 36.6723 13.8904 37.0362 13.3395 36.2827C12.7915 35.5338 13.7132 33.8767 13.288 33.0447C12.865 32.2226 10.9754 31.9939 10.6859 31.103C10.3994 30.2273 11.7909 28.9377 11.6455 28.0084C11.5014 27.1033 9.77637 26.303 9.77637 25.3577C9.77637 24.4133 11.5014 23.613 11.6455 22.7078C11.7909 21.7792 10.3986 20.4898 10.6859 19.6148C10.9747 18.724 12.8635 18.4944 13.2864 17.6715C13.7116 16.8402 12.7907 15.1832 13.3379 14.4342C13.8889 13.6816 15.7566 14.0447 16.416 13.3864C17.0754 12.7304 16.7108 10.8701 17.4672 10.322C18.2191 9.77693 19.8828 10.6942 20.7181 10.2699C21.5427 9.84941 21.7724 7.968 22.6667 7.67898C23.546 7.39424 24.8398 8.78042 25.7744 8.63461C26.6824 8.49117 27.4851 6.77295 28.4347 6.77295C29.3845 6.77295 30.1871 8.49117 31.0959 8.63461C32.0289 8.78035 33.3235 7.39424 34.2028 7.67967C35.0978 7.96877 35.3268 9.84941 36.1514 10.2699C36.9882 10.6949 38.6512 9.77693 39.403 10.3227C40.1587 10.8708 39.7949 12.7303 40.4543 13.3871C41.1137 14.0447 42.9813 13.6816 43.5301 14.4342C44.0788 15.1832 43.1579 16.8403 43.5839 17.6723C44.006 18.4943 45.8941 18.7232 46.1843 19.614C46.4702 20.4898 45.0785 21.7792 45.2248 22.7078C45.3688 23.613 47.0939 24.4133 47.0939 25.3577Z" fill="#FFC80B"/>
<path d="M28.4345 44.7165C27.6046 44.7165 26.9967 44.0868 26.4608 43.5313C26.2236 43.2851 25.8257 42.8721 25.6529 42.845H25.6506C25.4057 42.845 24.976 43.0745 24.6304 43.2587C24.0862 43.5486 23.523 43.8491 22.9235 43.8491C22.7513 43.8491 22.5839 43.8234 22.4278 43.7728C21.6433 43.5184 21.2636 42.7362 20.9286 42.0455C20.7777 41.7352 20.5261 41.2158 20.3654 41.1334C20.3563 41.1298 20.2964 41.1025 20.1327 41.1025C19.8948 41.1025 19.5938 41.1561 19.2755 41.2127C18.9064 41.2776 18.5236 41.3456 18.1514 41.3456C17.6875 41.3456 17.3146 41.2392 17.0115 41.0195C16.349 40.5393 16.2308 39.6817 16.1255 38.9253C16.0785 38.581 15.9981 38.0057 15.8678 37.8758C15.7373 37.746 15.1599 37.6667 14.815 37.6191C14.0555 37.515 13.1945 37.3971 12.7117 36.7381C12.2311 36.0813 12.3835 35.2304 12.5176 34.4801C12.5828 34.1146 12.6814 33.5627 12.5957 33.3959C12.5146 33.2373 11.9924 32.9852 11.6808 32.8357C10.9873 32.5012 10.2013 32.1223 9.94743 31.3408C9.69576 30.5739 10.1035 29.8144 10.4636 29.1455C10.641 28.8163 10.9085 28.318 10.8782 28.1278C10.8509 27.9572 10.4371 27.56 10.1892 27.3231C9.63129 26.7893 9 26.1846 9 25.3578C9 24.532 9.63136 23.9273 10.1892 23.3942C10.4363 23.1564 10.8508 22.76 10.8789 22.5864C10.9078 22.3992 10.641 21.9017 10.4636 21.5725C10.1035 20.9028 9.69576 20.1434 9.9482 19.3748C10.2006 18.5957 10.9858 18.2168 11.6793 17.883C11.9908 17.732 12.5123 17.4799 12.5949 17.3198C12.6798 17.1537 12.5813 16.6011 12.5161 16.2357C12.382 15.486 12.2303 14.636 12.7102 13.9798C13.1921 13.32 14.0524 13.2022 14.8119 13.0981C15.1795 13.0476 15.7359 12.9713 15.8662 12.8399C15.9973 12.7101 16.077 12.1348 16.1247 11.7913C16.2292 11.034 16.3483 10.1765 17.0108 9.69707C17.3131 9.47739 17.6868 9.37016 18.1514 9.37016C18.5236 9.37016 18.9056 9.43812 19.2755 9.50296C19.5938 9.5596 19.8939 9.61318 20.132 9.61318C20.2949 9.61318 20.3548 9.58677 20.3654 9.58157C20.5245 9.49997 20.777 8.98056 20.9279 8.67025C21.2628 7.97946 21.6433 7.19735 22.427 6.94369C22.5832 6.89317 22.7506 6.86745 22.9235 6.86745C23.523 6.86745 24.0861 7.16719 24.6304 7.45782C24.9775 7.64275 25.4088 7.87222 25.6309 7.87222C25.8249 7.8436 26.2228 7.43134 26.4608 7.18526C26.9967 6.62964 27.6038 6 28.4345 6C29.2644 6 29.8723 6.62964 30.4082 7.18449C30.6455 7.43142 31.0442 7.8436 31.2169 7.87077C31.439 7.89718 31.8915 7.64275 32.2371 7.45859C32.7821 7.16788 33.3452 6.86814 33.9448 6.86814C34.1184 6.86814 34.2859 6.89386 34.4427 6.94522C35.2265 7.19735 35.6062 7.98099 35.942 8.67102C36.0928 8.98132 36.3445 9.49997 36.5051 9.58157C36.5143 9.58677 36.5749 9.61325 36.7387 9.61325C36.9766 9.61325 37.2767 9.56044 37.5951 9.5038C37.9643 9.43813 38.3455 9.37092 38.7176 9.37092C39.183 9.37092 39.5567 9.47808 39.8599 9.69776C40.5215 10.178 40.6397 11.0348 40.7451 11.7913C40.7959 12.1574 40.8724 12.7101 41.0028 12.8407C41.134 12.9713 41.7115 13.0505 42.0571 13.0981C42.8166 13.2022 43.6769 13.32 44.1581 13.9798C44.6379 14.6352 44.4864 15.486 44.3529 16.2365C44.2878 16.6019 44.1892 17.1537 44.2749 17.3214C44.3567 17.4806 44.8782 17.732 45.1897 17.8823C45.8825 18.2168 46.6678 18.5949 46.9224 19.3756C47.1733 20.1433 46.7654 20.9021 46.4062 21.5718C46.2288 21.9009 45.9613 22.3984 45.9916 22.5879C46.0189 22.76 46.4335 23.1564 46.6807 23.3942C47.2384 23.9272 47.8698 24.532 47.8698 25.3578C47.8698 26.1853 47.2377 26.79 46.6798 27.3245C46.4328 27.5608 46.0189 27.9572 45.9908 28.1294C45.9613 28.318 46.2288 28.8163 46.4062 29.1462C46.7654 29.8152 47.1733 30.5738 46.9224 31.3424C46.6685 32.123 45.8825 32.5012 45.1897 32.8357C44.8782 32.9852 44.356 33.2366 44.2741 33.3974C44.1884 33.5643 44.287 34.1169 44.3522 34.4831C44.4856 35.232 44.6372 36.082 44.1574 36.7388C43.6753 37.3986 42.8143 37.5165 42.0541 37.6206C41.7092 37.6675 41.1324 37.7475 41.002 37.8766C40.8709 38.0072 40.7913 38.5832 40.7436 38.9267C40.6383 39.6832 40.52 40.5393 39.8599 41.0195C39.5551 41.2399 39.1822 41.3463 38.7183 41.3463C38.3462 41.3463 37.9634 41.2784 37.5936 41.2127C37.2752 41.1561 36.9743 41.1025 36.7371 41.1025C36.5741 41.1025 36.5143 41.129 36.5037 41.1342C36.3437 41.2157 36.0913 41.7352 35.9404 42.0462C35.6054 42.7362 35.225 43.5183 34.4412 43.7728C34.2808 43.824 34.1132 43.8497 33.9448 43.8491C33.346 43.8491 32.7829 43.5486 32.2387 43.2587C31.8922 43.0737 31.461 42.8434 31.2397 42.8434C31.0426 42.8721 30.644 43.2858 30.4059 43.5327C29.8708 44.0877 29.2637 44.7165 28.4345 44.7165ZM25.6301 41.2973C25.7203 41.2973 25.8082 41.3049 25.8946 41.3184C26.5836 41.4257 27.0899 41.9518 27.5803 42.46C27.8032 42.6909 28.2655 43.1703 28.4345 43.1703C28.6028 43.1703 29.0643 42.6917 29.2864 42.4614C29.7776 41.9526 30.2854 41.4257 30.9752 41.3184C31.646 41.212 32.3394 41.5585 32.9716 41.8953C33.3119 42.0772 33.7356 42.3029 33.9448 42.3029C34.1184 42.2471 34.4056 41.6566 34.5436 41.3728C34.8528 40.7356 35.1734 40.0758 35.7972 39.7572C36.3369 39.4832 37.1328 39.561 37.8656 39.6908C38.1832 39.7466 38.4834 39.8002 38.7183 39.8002C38.8949 39.8002 38.9465 39.7692 38.9465 39.7692C39.0738 39.6659 39.1594 39.0476 39.2057 38.7154C39.299 38.0426 39.4043 37.2802 39.9054 36.7827C40.4033 36.2859 41.168 36.1817 41.8427 36.0888C42.1762 36.0428 42.7968 35.9582 42.9023 35.8284C42.9901 35.688 42.8818 35.0795 42.8234 34.7526C42.7044 34.0829 42.5695 33.3235 42.8917 32.6946C43.2107 32.0718 43.8731 31.7516 44.5136 31.4436C44.7979 31.3062 45.3898 31.0208 45.4459 30.8645C45.4823 30.7037 45.1927 30.1647 45.0373 29.8756C44.7137 29.2738 44.3477 28.5914 44.4575 27.8893C44.5667 27.2023 45.0942 26.6972 45.6044 26.2087C45.8362 25.9875 46.3175 25.5262 46.3175 25.3578C46.3175 25.1902 45.8362 24.7297 45.6052 24.5085C45.0949 24.0194 44.5674 23.515 44.4583 22.8296C44.3469 22.1258 44.7137 21.4434 45.0373 20.8417C45.1927 20.5526 45.4823 20.0135 45.4459 19.852C45.3898 19.6965 44.7979 19.4111 44.5137 19.2737C43.8739 18.9656 43.2123 18.6463 42.8924 18.0249C42.5702 17.3945 42.7052 16.6359 42.824 15.9662C42.8824 15.6393 42.9908 15.0308 42.9023 14.8889C42.7961 14.7606 42.1776 14.6752 41.8449 14.6291C41.1696 14.5371 40.4048 14.4314 39.9053 13.9331C39.4058 13.4363 39.3005 12.6746 39.2073 12.0027C39.161 11.6705 39.0754 11.0522 38.9457 10.948C38.9457 10.948 38.8935 10.917 38.7176 10.917C38.4827 10.917 38.1832 10.9698 37.8664 11.0265C37.1327 11.1563 36.3361 11.2318 35.7988 10.9586C35.1734 10.64 34.8536 9.98165 34.5443 9.34444C34.4064 9.06062 34.1198 8.47025 33.963 8.41506H33.9615C33.7325 8.41506 33.3096 8.64086 32.9694 8.82204C32.3387 9.15798 31.6497 9.50449 30.9752 9.39878C30.2862 9.29009 29.7792 8.76463 29.2887 8.25578C29.0666 8.02554 28.6036 7.54615 28.4345 7.54615C28.2655 7.54615 27.8024 8.0263 27.5803 8.25578C27.0899 8.76463 26.5836 9.29009 25.8954 9.39878C25.214 9.50747 24.5303 9.15875 23.8982 8.82051C23.5579 8.63933 23.1335 8.41361 22.9235 8.41361C22.7492 8.47025 22.4626 9.06062 22.3247 9.34367C22.0155 9.98089 21.6956 10.64 21.0719 10.9586C20.5322 11.2318 19.7363 11.1563 19.0034 11.0258C18.6865 10.9691 18.3871 10.9163 18.1514 10.9163C17.9749 10.9163 17.9232 10.9472 17.9232 10.948C17.7937 11.0522 17.708 11.6697 17.6626 12.0019C17.5693 12.6746 17.464 13.4363 16.9645 13.9331C16.4658 14.4314 15.6995 14.537 15.0241 14.6291C14.6906 14.676 14.0699 14.7606 13.9645 14.8904C13.8774 15.0301 13.9858 15.6385 14.0441 15.9654C14.1639 16.6351 14.2996 17.3939 13.9774 18.0227C13.6576 18.6455 12.9959 18.9657 12.3555 19.2737C12.0719 19.4111 11.4807 19.6965 11.4239 19.8527C11.3875 20.0157 11.6771 20.5541 11.8324 20.8424C12.1553 21.4442 12.5222 22.1258 12.4122 22.8272C12.3024 23.515 11.7748 24.0194 11.2647 24.5085C11.0336 24.7297 10.5523 25.1903 10.5523 25.3578C10.5523 25.5262 11.0336 25.9868 11.2647 26.2087C11.7748 26.6964 12.3031 27.2022 12.4115 27.8878C12.5221 28.5914 12.1553 29.2731 11.8324 29.8748C11.6771 30.1647 11.3875 30.7029 11.4239 30.8653C11.4807 31.0207 12.0719 31.3062 12.3569 31.4436C12.9967 31.7516 13.6583 32.0702 13.9782 32.6923C14.3011 33.3234 14.1654 34.0814 14.0457 34.7518C13.9873 35.0779 13.8781 35.6864 13.9668 35.8284C14.0713 35.9567 14.6922 36.0421 15.0264 36.0881C15.701 36.1802 16.4658 36.2852 16.9653 36.7827C17.4648 37.2795 17.5701 38.0418 17.6633 38.7139C17.7096 39.0461 17.7952 39.6651 17.9256 39.7701C17.9256 39.7701 17.9786 39.7995 18.1515 39.7995C18.3871 39.7995 18.6865 39.7466 19.0041 39.69C19.7371 39.5609 20.5352 39.484 21.0719 39.7572C21.6971 40.0765 22.017 40.7356 22.3262 41.3728C22.4642 41.6566 22.7506 42.2471 22.9076 42.3029H22.9083C23.1343 42.3029 23.5579 42.0764 23.8982 41.8953C24.4492 41.6016 25.0192 41.2973 25.6301 41.2973Z" fill="#FFC80B"/>
<path d="M28.435 36.954C34.8648 36.954 40.0771 31.7623 40.0771 25.3579C40.0771 18.9535 34.8648 13.7617 28.435 13.7617C22.0053 13.7617 16.793 18.9535 16.793 25.3579C16.793 31.7623 22.0053 36.954 28.435 36.954Z" fill="#FFC80B"/>
</svg>
