<svg width="56" height="56" viewBox="0 0 56 56" fill="none" xmlns="http://www.w3.org/2000/svg">
<path d="M28 47C38.4934 47 47 38.4934 47 28C47 17.5066 38.4934 9 28 9C17.5066 9 9 17.5066 9 28C9 38.4934 17.5066 47 28 47Z" fill="#FFC80B"/>
<path d="M14.2906 28C14.2906 18.3876 21.5624 10.4438 31 9.17741C30.1234 9.05948 29.2395 9.00021 28.3547 9C17.6654 9 9 17.5066 9 28C9 38.4934 17.6654 47 28.3547 47C29.2395 46.9998 30.1234 46.9405 31 46.8226C21.5624 45.5562 14.2906 37.6124 14.2906 28Z" fill="#FFC80B"/>
<path d="M32 19H24V21H32V19Z" fill="#FFC80B"/>
<path d="M32 17H24V19H32V17Z" fill="#3C3B41"/>
<path d="M27.9997 38H27.981C25.5862 37.9927 23.2516 37.5508 21.2866 36.7327C21.1403 36.6713 21.0409 36.5777 21.0101 36.4725C20.9793 36.3672 21.0197 36.259 21.1223 36.1716C21.225 36.0841 21.3816 36.0246 21.5576 36.0061C21.7337 35.9876 21.9149 36.0116 22.0613 36.0729C23.7995 36.7965 25.8647 37.1875 27.9831 37.194H27.9997C30.1241 37.1897 32.1957 36.7986 33.9387 36.0729C34.0851 36.0116 34.2663 35.9876 34.4424 36.0061C34.6184 36.0246 34.775 36.0841 34.8777 36.1716C34.9803 36.259 35.0207 36.3672 34.9899 36.4725C34.9591 36.5777 34.8597 36.6713 34.7134 36.7327C32.7431 37.5531 30.4012 37.9951 27.9997 38Z" fill="#74563A"/>
<path d="M42.3548 31H34.8281C33.5838 31 33.0118 29.1006 32.7528 27.9216L31 19.242L43.3642 19C43.7416 19 44.1146 19.0785 44.458 19.2302C44.8014 19.3819 45.1071 19.6033 45.3546 19.8794C45.602 20.1554 45.7853 20.4798 45.8922 20.8304C45.999 21.181 46.0269 21.5498 45.9739 21.9118L44.9644 28.8054C44.8753 29.4143 44.5622 29.9716 44.0827 30.3748C43.6033 30.778 42.9897 31 42.3548 31Z" fill="#FFC80B"/>
<path d="M42.3414 29H34.7872C34.1812 29 33.5936 28.7992 33.1226 28.4312C32.6516 28.0631 32.3258 27.5502 32.1997 26.9781L30 17H43.3546C43.7334 17 44.1077 17.0785 44.4524 17.2302C44.797 17.3819 45.1039 17.6033 45.3522 17.8794C45.6005 18.1554 45.7845 18.4798 45.8918 18.8304C45.999 19.181 46.027 19.5498 45.9738 19.9118L44.9606 26.8054C44.8711 27.4143 44.5569 27.9716 44.0757 28.3748C43.5945 28.778 42.9787 29 42.3414 29Z" fill="#3C3B41"/>
<path d="M13.6452 31H21.1719C22.4162 31 23.2518 29.1006 23.5108 27.9216L25 19.242L12.6358 19C12.2584 19 11.8854 19.0785 11.542 19.2302C11.1986 19.3819 10.8929 19.6033 10.6454 19.8794C10.398 20.1554 10.2147 20.4798 10.1078 20.8304C10.001 21.181 9.97312 21.5498 10.0261 21.9118L11.0356 28.8054C11.1247 29.4143 11.4378 29.9716 11.9173 30.3748C12.3967 30.778 13.0103 31 13.6452 31Z" fill="#FFC80B"/>
<path d="M13.6586 29H21.2128C21.8188 29 22.4064 28.7992 22.8774 28.4312C23.3484 28.0631 23.6742 27.5502 23.8003 26.9781L26 17H12.6454C12.2666 17 11.8923 17.0785 11.5476 17.2302C11.203 17.3819 10.8961 17.6033 10.6478 17.8794C10.3995 18.1554 10.2155 18.4798 10.1082 18.8304C10.001 19.181 9.97302 19.5498 10.0262 19.9118L11.0394 26.8054C11.1289 27.4143 11.4431 27.9716 11.9243 28.3748C12.4055 28.778 13.0213 29 13.6586 29Z" fill="#3C3B41"/>
<path d="M15.084 26.8054L13.9561 19.9118C13.8969 19.5498 13.928 19.181 14.0474 18.8304C14.1668 18.4798 14.3716 18.1554 14.6481 17.8794C14.9246 17.6033 15.2662 17.3819 15.6499 17.2302C16.0336 17.0785 16.4504 17 16.8721 17H12.9452C12.5235 17 12.1067 17.0785 11.723 17.2302C11.3393 17.3819 10.9977 17.6033 10.7212 17.8794C10.4447 18.1554 10.2399 18.4798 10.1205 18.8304C10.0011 19.181 9.96996 19.5498 10.0292 19.9118L11.1571 26.8054C11.2568 27.4143 11.6066 27.9716 12.1423 28.3748C12.678 28.778 13.3637 29 14.0731 29H18C17.2906 29 16.6049 28.778 16.0692 28.3748C15.5335 27.9716 15.1837 27.4143 15.084 26.8054Z" fill="#2C2B2D"/>
</svg>
