<svg width="56" height="56" viewBox="0 0 56 56" fill="none" xmlns="http://www.w3.org/2000/svg">
<path d="M41.583 24.3405C41.0215 24.3405 40.4728 24.3941 39.9394 24.4914C39.4833 18.2935 34.3142 13.4058 27.9998 13.4058C21.6849 13.4058 16.5155 18.2942 16.0602 24.493C15.5244 24.3946 14.9734 24.3406 14.4091 24.3406C9.38795 24.3406 5.31738 28.4185 5.31738 33.4397C5.31738 38.4392 9.35291 42.5535 14.3441 42.5535C14.3441 42.5535 41.4542 42.5535 41.5832 42.5535C46.6085 42.5535 50.6822 38.4723 50.6822 33.447C50.682 28.4216 46.6083 24.3405 41.583 24.3405Z" fill="#27AAE0"/>
<path d="M34.9264 28.0305H32.4932L35.8344 32.6376L32.4942 37.2446H34.9274L38.2678 32.6376L34.9264 28.0305Z" fill="white"/>
<path d="M21.0702 28.0305H23.5038L20.1626 32.6376L23.503 37.2446H21.0696L17.7295 32.6376L21.0702 28.0305Z" fill="white"/>
<path d="M25.9102 37.2354L29.2087 28.0225H30.0127L26.7021 37.2354H25.9102Z" fill="white"/>
</svg>
